<?xml version="1.0" encoding="UTF-8" standalone="no"?>
<!-- Created with Inkscape (http://www.inkscape.org/) -->

<svg
   width="259"
   height="60"
   viewBox="0 0 68.527082 15.875"
   version="1.1"
   id="svg5"
   inkscape:version="1.2.2 (b0a8486541, 2022-12-01)"
   sodipodi:docname="1.svg"
   xmlns:inkscape="http://www.inkscape.org/namespaces/inkscape"
   xmlns:sodipodi="http://sodipodi.sourceforge.net/DTD/sodipodi-0.dtd"
   xmlns="http://www.w3.org/2000/svg"
   xmlns:svg="http://www.w3.org/2000/svg">
  <sodipodi:namedview
     id="namedview7"
     pagecolor="#505050"
     bordercolor="#eeeeee"
     borderopacity="1"
     inkscape:pageshadow="0"
     inkscape:pageopacity="0"
     inkscape:pagecheckerboard="0"
     inkscape:document-units="mm"
     showgrid="false"
     units="px"
     width="259px"
     inkscape:zoom="2.1417559"
     inkscape:cx="80.774845"
     inkscape:cy="63.265846"
     inkscape:window-width="1920"
     inkscape:window-height="1011"
     inkscape:window-x="0"
     inkscape:window-y="0"
     inkscape:window-maximized="1"
     inkscape:current-layer="layer1"
     inkscape:showpageshadow="0"
     inkscape:deskcolor="#505050" />
  <defs
     id="defs2" />
  <g
     inkscape:label="Camada 1"
     inkscape:groupmode="layer"
     id="layer1">
    <rect
       style="fill:#f9f9f9;stroke:none;stroke-width:1.1611;stroke-linecap:round;stroke-linejoin:round;paint-order:stroke markers fill"
       id="rect31"
       width="68.527084"
       height="15.875"
       x="-5.0862633e-07"
       y="-1.7763568e-15"
       ry="0" />
    <g
       id="g241"
       transform="matrix(0.72194924,0,0,0.72194924,-6.3486662,2.2070279)">
      <path
         id="path40"
         d="m 21.076614,3.180454 c -2.513286,0 -4.553079,1.9259019 -4.553079,4.7492159 0,2.5294451 1.680725,4.7648761 4.553079,4.7648761 1.256455,0 2.447733,-0.522185 3.018747,-1.566694 v 1.28932 h 2.137884 V 3.4581538 H 24.095361 V 4.7636564 C 23.703976,4.04552 22.708484,3.180454 21.076614,3.180454 Z m 11.015341,0 c -1.550322,0 -2.415217,0.9954712 -2.611005,1.403767 V 3.4581538 h -2.007255 v 8.9590182 h 2.137688 V 7.5704087 c 0,-0.522161 0.08171,-1.077001 0.342688,-1.5501213 0.261363,-0.4569616 0.750858,-0.8323822 1.534005,-0.8323822 0.767177,0.016348 1.207582,0.359074 1.468756,0.8323822 0.228292,0.4567732 0.277764,0.9627687 0.277764,1.4847415 V 12.417172 H 35.37209 V 7.5050289 c 0,-0.5385072 0.03267,-1.0115869 0.310194,-1.501054 0.276958,-0.4896554 0.799293,-0.8160697 1.550122,-0.8160697 0.750265,0 1.174902,0.2936982 1.403573,0.734313 0.309837,0.4731194 0.358869,1.0935546 0.358869,1.664568 v 4.8303858 h 2.137689 V 7.5050289 c 0,-1.8440038 -0.163287,-2.5784666 -0.979128,-3.426814 C 39.467967,3.3762386 38.521555,3.180454 37.771101,3.180454 c -0.946428,0 -1.72997,0.3594102 -2.284825,0.8813835 -0.29368,0.2775211 -0.489657,0.5710346 -0.652751,0.8483679 C 34.719285,4.6821005 34.490999,4.3066612 34.295024,4.0945274 33.642089,3.3929265 32.826251,3.1804541 32.091955,3.180454 Z M 42.667781,3.45985 c -0.173427,0 -0.313392,0.1401595 -0.313392,0.3135873 0,0.1728635 0.139965,0.3130642 0.313392,0.3130642 0.172864,0 0.313065,-0.1402007 0.313065,-0.3130642 0,-0.1734278 -0.140201,-0.3135873 -0.313065,-0.3135873 z m 0.708799,0.00972 c -0.129271,0 -0.226217,0.095639 -0.287095,0.2872915 0.05224,0.2262261 0.16519,0.3394909 0.339555,0.3394909 0.191091,-0.060878 0.288011,-0.1567045 0.288011,-0.2872915 v -0.0522 c 0,-0.1610265 -0.09692,-0.2566642 -0.288011,-0.2872915 z m 0.757151,0 c -0.136036,0 -0.231844,0.095835 -0.288401,0.2874873 0,0.1739914 0.104649,0.2871098 0.313587,0.3389689 0.182634,0 0.286955,-0.1129306 0.31326,-0.3389689 0,-0.161026 -0.09564,-0.2570487 -0.287291,-0.2874873 z m 2.261139,0 c -0.130212,0 -0.225833,0.095639 -0.2869,0.2872915 0.05317,0.2262261 0.165189,0.3394909 0.339556,0.3394909 0.191278,-0.060878 0.28801,-0.1567045 0.28801,-0.2872915 v -0.0522 c 0,-0.1610265 -0.09673,-0.2566642 -0.28801,-0.2872915 z m 0.757475,0 c -0.135097,0 -0.230929,0.095835 -0.287486,0.2874873 0,0.1739914 0.105767,0.2871098 0.313391,0.3389689 0.182821,0 0.288278,-0.1129306 0.313457,-0.3389689 0,-0.161026 -0.09584,-0.2570487 -0.286183,-0.2874873 z m 0.755845,0 c -0.130397,0 -0.226235,0.095639 -0.285986,0.2872915 0.05092,0.2262261 0.164065,0.3394909 0.338056,0.3394909 0.191653,-0.060878 0.287291,-0.1567045 0.287291,-0.2872915 v -0.0522 c 0,-0.1610265 -0.09564,-0.2566642 -0.287291,-0.2872915 z m 0.75702,0 c -0.130398,0 -0.226216,0.095639 -0.287095,0.2872915 0.05205,0.2262261 0.165116,0.3394909 0.339294,0.3394909 0.192406,-0.060878 0.287293,-0.1567045 0.287293,-0.2872915 v -0.0522 c 0,-0.1610265 -0.09488,-0.2566642 -0.287293,-0.2872915 z m 0.729745,0 c -0.13021,0 -0.22603,0.095639 -0.287095,0.2872915 0.05224,0.2262261 0.165189,0.3394909 0.339555,0.3394909 0.192406,-0.060878 0.287096,-0.1567045 0.287096,-0.2872915 v -0.0522 c 0,-0.1610265 -0.09469,-0.2566642 -0.287096,-0.2872915 z m 0.756235,0 c -0.135097,0 -0.230692,0.095835 -0.286312,0.2874873 0,0.1739914 0.104472,0.2871098 0.312284,0.3389689 0.182821,0 0.287077,-0.1129306 0.313195,-0.3389689 0,-0.161026 -0.09584,-0.2570487 -0.285989,-0.2874873 z m 0.756824,0 c -0.13021,0 -0.226085,0.095639 -0.286964,0.2872915 0.05187,0.2262261 0.165181,0.3394909 0.33936,0.3394909 0.191278,-0.060878 0.287098,-0.1567045 0.287098,-0.2872915 v -0.0522 c 0,-0.1610265 -0.09582,-0.2566642 -0.287098,-0.2872915 z m 0.755979,0 c -0.130213,0 -0.226033,0.095639 -0.287098,0.2872915 0.05205,0.2262261 0.165315,0.3394909 0.339489,0.3394909 0.192219,-0.060878 0.287162,-0.1567045 0.287162,-0.2872915 v -0.0522 c 0,-0.1610265 -0.09494,-0.2566642 -0.287162,-0.2872915 z m -9.044562,0.7570848 c -0.129272,0 -0.224865,0.095639 -0.284615,0.2872919 0,0.1862039 0.110654,0.2991109 0.336879,0.3383811 0.191466,-0.061065 0.287292,-0.1567045 0.287292,-0.2872914 v -0.051089 c 0,-0.1610265 -0.09583,-0.2566647 -0.287292,-0.287292 z m 0.757149,0 c -0.129271,0 -0.226217,0.095639 -0.287095,0.2872919 0.05224,0.2250982 0.16519,0.3383811 0.339555,0.3383811 0.191091,-0.061065 0.288011,-0.1567045 0.288011,-0.2872914 v -0.051089 c 0,-0.1610265 -0.09692,-0.2566647 -0.288011,-0.287292 z m 3.01829,0 c -0.130212,0 -0.225833,0.095639 -0.2869,0.2872919 0.05317,0.2250982 0.165189,0.3383811 0.339556,0.3383811 0.191278,-0.061065 0.28801,-0.1567045 0.28801,-0.2872914 v -0.051089 c 0,-0.1610265 -0.09673,-0.2566647 -0.28801,-0.287292 z m 1.51332,0 c -0.130397,0 -0.226235,0.095639 -0.285986,0.2872919 0,0.1862039 0.111831,0.2991109 0.338056,0.3383811 0.191653,-0.061065 0.287291,-0.1567045 0.287291,-0.2872914 v -0.051089 c 0,-0.1610265 -0.09564,-0.2566647 -0.287291,-0.287292 z m 0.75702,0 c -0.130398,0 -0.226216,0.095639 -0.287095,0.2872919 0.05205,0.2250982 0.165116,0.3383811 0.339294,0.3383811 0.192406,-0.061065 0.287293,-0.1567045 0.287293,-0.2872914 v -0.051089 c 0,-0.1610265 -0.09488,-0.2566647 -0.287293,-0.287292 z m 0.729745,0 c -0.13021,0 -0.22603,0.095639 -0.287095,0.2872919 0.05224,0.2250982 0.165189,0.3383811 0.339555,0.3383811 0.192406,-0.061065 0.287096,-0.1567045 0.287096,-0.2872914 v -0.051089 c 0,-0.1610265 -0.09469,-0.2566647 -0.287096,-0.287292 z m 1.513059,0 c -0.13021,0 -0.226085,0.095639 -0.286964,0.2872919 0,0.1862039 0.112947,0.2991109 0.33936,0.3383811 0.191278,-0.061065 0.287098,-0.1567045 0.287098,-0.2872914 v -0.051089 c 0,-0.1610265 -0.09582,-0.2566647 -0.287098,-0.287292 z m 0.755979,0 c -0.130213,0 -0.226033,0.095639 -0.287098,0.2872919 0.05205,0.2250982 0.165315,0.3383811 0.339489,0.3383811 0.192219,-0.061065 0.287162,-0.1567045 0.287162,-0.2872914 v -0.051089 c 0,-0.1610265 -0.09494,-0.2566647 -0.287162,-0.287292 z m -7.530262,2.4e-4 c -0.131715,0 -0.226208,0.095638 -0.288401,0.2872915 0,0.1856407 0.114458,0.2989075 0.339556,0.33799 0.161027,0 0.256853,-0.1130791 0.287291,-0.33799 0,-0.161026 -0.09564,-0.2570401 -0.287291,-0.2872915 z m 3.018614,0 c -0.130586,0 -0.22642,0.095638 -0.287486,0.2872915 0,0.1856407 0.113125,0.2989075 0.340665,0.33799 0.159898,0 0.255555,-0.1130791 0.286183,-0.33799 0,-0.161026 -0.09584,-0.2570401 -0.286183,-0.2872915 h -0.02727 z m 2.998845,0 c -0.130587,0 -0.226558,0.095638 -0.286312,0.2872915 0,0.1856407 0.112326,0.2989075 0.33949,0.33799 0.159903,0 0.255548,-0.1130791 0.285989,-0.33799 0,-0.161026 -0.09584,-0.2570401 -0.285989,-0.2872915 h -0.02721 z M 42.671695,4.982571 c -0.226225,0.030813 -0.336879,0.1262654 -0.336879,0.2872915 0,0.165348 0.09427,0.2786777 0.284615,0.3395559 0.226602,-0.03476 0.339556,-0.1307743 0.339556,-0.2872911 v -0.052265 c 0,-0.1610261 -0.09583,-0.2564765 -0.287292,-0.2872913 z m 0.757345,0 c -0.226413,0.030813 -0.339555,0.1262654 -0.339555,0.2872915 0,0.165348 0.09563,0.2786777 0.287095,0.3395559 0.226227,-0.03476 0.340471,-0.1307743 0.340471,-0.2872911 v -0.052265 c 0,-0.1610261 -0.09692,-0.2564765 -0.288011,-0.2872913 z m 3.018486,0 c -0.226415,0.030813 -0.339556,0.1262654 -0.339556,0.2872915 0,0.165348 0.09581,0.2786777 0.2869,0.3395559 0.226415,-0.03476 0.340666,-0.1307743 0.340666,-0.2872911 v -0.052265 c 0,-0.1610261 -0.09673,-0.2564765 -0.28801,-0.2872913 z m 1.512734,0 c -0.226225,0.030813 -0.338056,0.1262654 -0.338056,0.2872915 0,0.165348 0.09452,0.2786777 0.285986,0.3395559 0.226226,-0.03476 0.339361,-0.1307743 0.339361,-0.2872911 v -0.052265 c 0,-0.1610261 -0.09564,-0.2564765 -0.287291,-0.2872913 z m 0.757149,0 c -0.226226,0.030813 -0.339294,0.1262654 -0.339294,0.2872915 0,0.165348 0.09582,0.2786777 0.287095,0.3395559 0.225286,-0.03476 0.339492,-0.1307743 0.339492,-0.2872911 v -0.052265 c 0,-0.1610261 -0.09488,-0.2564765 -0.287293,-0.2872913 z m 0.730006,0 c -0.226413,0.030813 -0.339555,0.1262654 -0.339555,0.2872915 0,0.165348 0.09582,0.2786777 0.287095,0.3395559 0.225286,-0.03476 0.339556,-0.1307743 0.339556,-0.2872911 v -0.052265 c 0,-0.1610261 -0.09469,-0.2564765 -0.287096,-0.2872913 z m 1.512995,0 c -0.226413,0.030813 -0.33936,0.1262654 -0.33936,0.2872915 0,0.165348 0.09569,0.2786777 0.286964,0.3395559 0.226416,-0.03476 0.339494,-0.1307743 0.339494,-0.2872911 v -0.052265 c 0,-0.1610261 -0.09582,-0.2564765 -0.287098,-0.2872913 z m 0.755974,0 c -0.226412,0.030813 -0.339489,0.1262654 -0.339489,0.2872915 0,0.165348 0.09582,0.2786777 0.287098,0.3395559 0.226412,-0.03476 0.339553,-0.1307743 0.339553,-0.2872911 v -0.052265 c 0,-0.1610261 -0.09494,-0.2564765 -0.287162,-0.2872913 z m -7.531498,6.69e-5 c -0.225098,0.03042 -0.339556,0.1262554 -0.339556,0.2874687 0.04472,0.2260384 0.139588,0.338969 0.288401,0.338969 0.204431,0 0.316464,-0.1129306 0.338446,-0.338969 0,-0.1612133 -0.09564,-0.2570477 -0.287291,-0.2874872 z m 3.020638,0 c -0.22754,0.030441 -0.340665,0.1262736 -0.340665,0.2874874 0.04379,0.2260378 0.139425,0.3389689 0.287486,0.3389689 0.204244,0 0.317379,-0.1129311 0.339362,-0.3389689 0,-0.1612138 -0.09584,-0.2570482 -0.286183,-0.2874874 z m 2.998844,0 c -0.227164,0.030441 -0.33949,0.1262736 -0.33949,0.2874874 0.04266,0.2260378 0.138253,0.3389689 0.286312,0.3389689 0.204432,0 0.317371,-0.1129311 0.339167,-0.3389689 0,-0.1612138 -0.09584,-0.2570482 -0.285989,-0.2874874 z m -28.834069,0.188961 c 1.28915,0 2.121529,0.7344725 2.496756,1.583007 0.179627,0.3913855 0.260972,0.8321678 0.244814,1.2564353 -0.0327,0.4406143 -0.130555,0.8646739 -0.342689,1.2564358 -0.408107,0.81584 -1.191311,1.436327 -2.382568,1.436327 -1.925551,0 -2.725386,-1.6157432 -2.725386,-2.7254527 v -0.016313 c 0,-1.3870423 0.979311,-2.7904404 2.709073,-2.7904394 z m 21.301396,0.568058 c -0.226225,0.030818 -0.336879,0.1262655 -0.336879,0.2872915 0.03362,0.2250982 0.136789,0.3383815 0.31078,0.3383815 0.208938,-0.043593 0.313391,-0.1392222 0.313391,-0.2870956 v -0.051285 c 0,-0.1610261 -0.09583,-0.2564759 -0.287292,-0.2872924 z m 0.731247,0 c -0.161215,0 -0.265731,0.1044693 -0.313457,0.3122822 0.06088,0.2089387 0.165208,0.3133908 0.313457,0.3133908 0.208939,-0.043593 0.314109,-0.1392222 0.314109,-0.2870956 v -0.051285 c 0,-0.1610261 -0.09692,-0.2564759 -0.288011,-0.2872915 z m 0.781944,0 c -0.225098,0.030626 -0.339556,0.126274 -0.339556,0.2874873 0.03608,0.2249109 0.139596,0.3379906 0.313587,0.3379906 0.182634,0 0.286955,-0.1130796 0.31326,-0.3379906 0,-0.1612133 -0.09564,-0.2568604 -0.287291,-0.2874873 z m 2.236345,0 c -0.160838,0 -0.265536,0.1044693 -0.313261,0.3122822 0.06107,0.2089387 0.165199,0.3133908 0.313261,0.3133908 0.208752,-0.043593 0.314305,-0.1392222 0.314305,-0.2870956 v -0.051285 c 0,-0.1610261 -0.09673,-0.2564759 -0.28801,-0.2872915 z m 0.784293,0 c -0.22754,0.030626 -0.340665,0.126274 -0.340665,0.2874873 0.03475,0.2249109 0.1394,0.3379906 0.313391,0.3379906 0.182821,0 0.288278,-0.1130796 0.313457,-0.3379906 0,-0.1612133 -0.09584,-0.2568604 -0.286183,-0.2874873 z m 0.754736,0 c -0.226225,0.030818 -0.338056,0.1262655 -0.338056,0.2872915 0.03363,0.2250982 0.138153,0.3383815 0.311956,0.3383815 0.209127,-0.043593 0.313391,-0.1392222 0.313391,-0.2870956 v -0.051285 c 0,-0.1610261 -0.09564,-0.2564759 -0.287291,-0.2872924 z m 2.244108,0 c -0.227164,0.030626 -0.33949,0.126274 -0.33949,0.2874873 0.03382,0.2249109 0.13829,0.3379906 0.312284,0.3379906 0.182821,0 0.287077,-0.1130796 0.313195,-0.3379906 0,-0.1612133 -0.09584,-0.2568604 -0.285989,-0.2874873 z m 0.756042,0 c -0.226413,0.030818 -0.33936,0.1262655 -0.33936,0.2872915 0.03476,0.2250982 0.140192,0.3383815 0.314372,0.3383815 0.207812,-0.043593 0.312086,-0.1392222 0.312086,-0.2870956 v -0.051285 c 0,-0.1610261 -0.09582,-0.2564759 -0.287098,-0.2872924 z m 0.729878,0 c -0.159898,0 -0.26548,0.1044693 -0.313393,0.3122822 0.06106,0.2089387 0.16533,0.3133908 0.313393,0.3133908 0.208937,-0.043593 0.313258,-0.1392222 0.313258,-0.2870956 v -0.051285 c 0,-0.1610261 -0.09494,-0.2564759 -0.287162,-0.2872915 z m -9.044692,0.7561529 c -0.147874,0 -0.25103,0.095443 -0.31078,0.2870957 0.03362,0.2262261 0.136789,0.3394909 0.31078,0.3394909 0.208938,-0.043778 0.313391,-0.1394176 0.313391,-0.2872915 v -0.052199 c 0,-0.1610261 -0.09583,-0.2564685 -0.287292,-0.2870957 z m 0.757346,0 c -0.161215,0 -0.265731,0.1042484 -0.313457,0.3130004 0,0.1614014 0.104705,0.2654846 0.313457,0.3135862 0.208939,-0.043778 0.314109,-0.1394176 0.314109,-0.2872915 v -0.052199 c 0,-0.1610261 -0.09692,-0.2564685 -0.288011,-0.2870957 z m 0.781814,0 c -0.225098,0.03063 -0.339296,0.1260735 -0.339296,0.2870996 0.03608,0.2262261 0.139205,0.3394909 0.313196,0.3394909 0.209878,-0.043778 0.313392,-0.1394176 0.313392,-0.2872915 V 6.7829094 C 44.424323,6.5912566 44.328496,6.4958137 44.184756,6.4958137 Z m 2.236475,0 c -0.160838,0 -0.265536,0.1042484 -0.313261,0.3130004 0,0.1614014 0.104697,0.2654846 0.313261,0.3135862 0.208752,-0.043778 0.314305,-0.1394176 0.314305,-0.2872915 v -0.052199 c 0,-0.1610261 -0.09673,-0.2564685 -0.28801,-0.2870957 z m 0.784162,0 c -0.227164,0.03063 -0.340273,0.1260735 -0.340273,0.2870996 0.03476,0.2262261 0.139073,0.3394909 0.313064,0.3394909 0.20894,-0.043778 0.313392,-0.1394176 0.313392,-0.2872915 V 6.7829094 C 47.443851,6.5912566 47.348194,6.4958137 47.205393,6.4958137 Z m 0.728767,0 c -0.147872,0 -0.252205,0.095443 -0.311956,0.2870957 0.03363,0.2262261 0.138153,0.3394909 0.311956,0.3394909 0.209127,-0.043778 0.313391,-0.1394176 0.313391,-0.2872915 v -0.052199 c 0,-0.1610261 -0.09564,-0.2564685 -0.287291,-0.2870957 z m 2.270474,0 c -0.227544,0.030626 -0.339689,0.1260696 -0.339689,0.2870957 0.03382,0.2262261 0.138103,0.3394909 0.31228,0.3394909 0.208939,-0.043778 0.313196,-0.1394176 0.313196,-0.2872915 V 6.7829094 C 50.442504,6.5912566 50.346868,6.4958137 50.204634,6.4958137 Z m 0.730788,0 c -0.149191,0 -0.253493,0.095443 -0.314372,0.2870957 0.03476,0.2262261 0.140192,0.3394909 0.314372,0.3394909 0.207812,-0.043778 0.312086,-0.1394176 0.312086,-0.2872915 v -0.052199 c 0,-0.1610261 -0.09582,-0.2564685 -0.287098,-0.2870957 z m 0.754866,0 c -0.159898,0 -0.26548,0.1042484 -0.313393,0.3130004 0,0.1614014 0.104639,0.2654846 0.313393,0.3135862 0.208937,-0.043778 0.313258,-0.1394176 0.313258,-0.2872915 v -0.052199 c 0,-0.1610261 -0.09494,-0.2564685 -0.287162,-0.2870957 z m -9.044692,0.757085 c -0.147874,0 -0.25103,0.09546 -0.31078,0.2859858 0,0.1610266 0.08473,0.2741686 0.258907,0.3395564 0.244452,-0.021798 0.365264,-0.1174338 0.365264,-0.2872915 V 7.538884 c 0,-0.1469336 -0.104453,-0.2425824 -0.313391,-0.2859853 z m 0.757346,0 c -0.161215,0 -0.265731,0.1043309 -0.313457,0.311955 0,0.1350971 0.08719,0.2393682 0.260997,0.3135872 0.243699,-0.021798 0.366569,-0.1174338 0.366569,-0.2872915 V 7.538884 c 0,-0.1557643 -0.10517,-0.2514135 -0.314109,-0.2859853 z m 0.755714,0 c -0.147874,0 -0.251002,0.09546 -0.313196,0.2859858 0,0.1610266 0.08713,0.2741686 0.261127,0.3395564 C 44.3501,7.856643 44.472048,7.7610071 44.472048,7.5911494 V 7.538884 c 0,-0.1469336 -0.103514,-0.2425824 -0.313392,-0.2859853 z m 2.262575,0 c -0.160838,0 -0.265536,0.1043309 -0.313261,0.311955 0,0.1350971 0.087,0.2393682 0.260996,0.3135872 0.243699,-0.021798 0.36657,-0.1174338 0.36657,-0.2872915 V 7.538884 c 0,-0.1557643 -0.105553,-0.2514135 -0.314305,-0.2859853 z m 0.756953,0 c -0.147873,0 -0.252186,0.09546 -0.313064,0.2859858 0,0.1610266 0.087,0.2741686 0.260996,0.3395564 0.2437,-0.021798 0.36546,-0.1174338 0.36546,-0.2872915 V 7.538884 c 0,-0.1469336 -0.104452,-0.2425824 -0.313392,-0.2859853 z m 0.755976,0 c -0.147872,0 -0.252205,0.09546 -0.311956,0.2859858 0,0.1610266 0.08702,0.2741686 0.259692,0.3395564 0.243888,-0.021798 0.365655,-0.1174338 0.365655,-0.2872915 V 7.538884 c 0,-0.1469336 -0.104264,-0.2425824 -0.313391,-0.2859853 z m 2.243065,0 c -0.14806,0 -0.252343,0.09546 -0.31228,0.2859858 0,0.1610266 0.08583,0.2741686 0.259821,0.3395564 0.243887,-0.021798 0.365655,-0.1174338 0.365655,-0.2872915 V 7.538884 c 0,-0.1469336 -0.104257,-0.2425824 -0.313196,-0.2859853 z m 0.758197,0 c -0.149191,0 -0.253493,0.09546 -0.314372,0.2859858 0,0.1610266 0.08681,0.2741686 0.2608,0.3395564 0.243891,-0.021798 0.365658,-0.1174338 0.365658,-0.2872915 V 7.538884 c 0,-0.1469336 -0.104274,-0.2425824 -0.312086,-0.2859853 z m 0.754866,0 c -0.159898,0 -0.26548,0.1043309 -0.313393,0.311955 0,0.1350971 0.087,0.2393682 0.260996,0.3135872 0.243887,-0.021798 0.365655,-0.1174338 0.365655,-0.2872915 V 7.538884 c 0,-0.1557643 -0.104321,-0.2514135 -0.313258,-0.2859853 z m -9.044692,0.7559097 c -0.147874,0 -0.25103,0.095819 -0.31078,0.2870957 0,0.161026 0.08473,0.2741681 0.258907,0.3395558 0.244452,-0.021608 0.365264,-0.1174338 0.365264,-0.2872914 V 8.295904 c 0,-0.1478738 -0.104453,-0.2435039 -0.313391,-0.2870956 z m 0.757346,0 c -0.161215,0 -0.265731,0.1043128 -0.313457,0.3130643 0,0.1350966 0.08719,0.2393693 0.260997,0.3135872 0.243699,0 0.366569,-0.096014 0.366569,-0.2872914 V 8.295904 c 0,-0.1478738 -0.10517,-0.2435039 -0.314109,-0.2870956 z m 0.755714,0 c -0.147874,0 -0.251002,0.095819 -0.313196,0.2870957 0,0.161026 0.08713,0.2741681 0.261127,0.3395558 C 44.3501,8.613848 44.472048,8.5180222 44.472048,8.3481646 V 8.295904 c 0,-0.1478738 -0.103514,-0.2435039 -0.313392,-0.2870956 z m 2.262575,0 c -0.160838,0 -0.265536,0.1043128 -0.313261,0.3130643 0,0.1350966 0.087,0.2393693 0.260996,0.3135872 0.243699,0 0.36657,-0.096014 0.36657,-0.2872914 V 8.295904 c 0,-0.1478738 -0.105553,-0.2435039 -0.314305,-0.2870956 z m 0.756953,0 c -0.147873,0 -0.252186,0.095819 -0.313064,0.2870957 0,0.161026 0.087,0.2741681 0.260996,0.3395558 0.2437,-0.021608 0.36546,-0.1174338 0.36546,-0.2872914 V 8.295904 c 0,-0.1478738 -0.104452,-0.2435039 -0.313392,-0.2870956 z m 0.755976,0 c -0.147872,0 -0.252205,0.095819 -0.311956,0.2870957 0,0.161026 0.08702,0.2741681 0.259692,0.3395558 0.243888,-0.021608 0.365655,-0.1174338 0.365655,-0.2872914 V 8.295904 c 0,-0.1478738 -0.104264,-0.2435039 -0.313391,-0.2870956 z m 2.243065,0 c -0.14806,0 -0.252343,0.095819 -0.31228,0.2870957 0,0.161026 0.08583,0.2741681 0.259821,0.3395558 0.243887,-0.021608 0.365655,-0.1174338 0.365655,-0.2872914 V 8.295904 c 0,-0.1478738 -0.104257,-0.2435039 -0.313196,-0.2870956 z m 0.758197,0 c -0.149191,0 -0.253493,0.095819 -0.314372,0.2870957 0,0.161026 0.08681,0.2741681 0.2608,0.3395558 0.243891,-0.021608 0.365658,-0.1174338 0.365658,-0.2872914 V 8.295904 c 0,-0.1478738 -0.104274,-0.2435039 -0.312086,-0.2870956 z m 0.754866,0 c -0.159898,0 -0.26548,0.1043128 -0.313393,0.3130643 0,0.1350966 0.087,0.2393693 0.260996,0.3135872 0.243887,0 0.365655,-0.096014 0.365655,-0.2872914 V 8.295904 c 0,-0.1478738 -0.104321,-0.2435039 -0.313258,-0.2870956 z m -9.018593,0.7568887 c -0.226225,0.043593 -0.336879,0.1392485 -0.336879,0.2861826 0.03362,0.2262257 0.136789,0.3395559 0.31078,0.3395559 h 0.0261 c 0.161214,0 0.256853,-0.095638 0.287292,-0.2872915 v -0.052264 c -3e-6,-0.1347211 -0.09583,-0.2296259 -0.287295,-0.2861826 z m 0.757345,0 c -0.226413,0.039268 -0.339555,0.1437476 -0.339555,0.3124779 0,0.1649715 0.104705,0.269669 0.313457,0.3132606 h 0.02609 c 0.160651,0 0.257571,-0.095638 0.28801,-0.2872915 v -0.052264 c 0,-0.1347211 -0.09692,-0.2296259 -0.28801,-0.2861827 z m 0.755716,0 C 43.959658,8.80929 43.84546,8.9049456 43.84546,9.0518797 c 0,0.2044296 0.114198,0.3175721 0.339296,0.3395559 0.191466,-0.047915 0.287292,-0.1439273 0.287292,-0.2872915 v -0.052264 c 0,-0.1347211 -0.09583,-0.2296259 -0.287292,-0.2861825 z m 2.26277,0 c -0.226415,0.039268 -0.339556,0.1437476 -0.339556,0.3124779 0,0.1649715 0.104697,0.269669 0.313261,0.3132606 h 0.02629 c 0.16065,0 0.256442,-0.095638 0.28801,-0.2872915 v -0.052264 c 0,-0.1347211 -0.09673,-0.2296259 -0.28801,-0.2861827 z m 0.757867,0 C 46.978229,8.80929 46.86512,8.9049456 46.86512,9.0518797 c 0,0.2044296 0.113109,0.3175721 0.340273,0.3395559 0.190339,-0.047915 0.286183,-0.1439273 0.286183,-0.2872915 v -0.052264 c 0,-0.1347211 -0.09584,-0.2296259 -0.286183,-0.2861825 z m 0.754867,0 c -0.226225,0.043593 -0.338056,0.1392485 -0.338056,0.2861826 0.03363,0.2262257 0.138153,0.3395559 0.311956,0.3395559 h 0.0261 c 0.161026,0 0.256852,-0.095638 0.287291,-0.2872915 v -0.052264 c 0,-0.1347211 -0.09564,-0.2296259 -0.287291,-0.286183 z m 2.244374,0 c -0.227544,0.043593 -0.339689,0.1392485 -0.339689,0.2861826 0,0.2044296 0.112145,0.3175721 0.339689,0.3395559 0.189961,-0.047915 0.285787,-0.1439273 0.285787,-0.2872915 v -0.052264 c 0,-0.1347211 -0.09583,-0.2296259 -0.285787,-0.286183 z m 0.755776,0 c -0.226413,0.043593 -0.33936,0.1392485 -0.33936,0.2861826 0.03476,0.2262257 0.140192,0.3395559 0.314372,0.3395559 h 0.02499 c 0.16084,0 0.255343,-0.095638 0.287098,-0.2872915 v -0.052264 c 0,-0.1347211 -0.09582,-0.2296259 -0.287098,-0.2861826 z m 0.755974,0 c -0.226412,0.039268 -0.339489,0.1437476 -0.339489,0.3124779 0,0.1649715 0.104639,0.269669 0.313393,0.3132606 h 0.02609 c 0.16084,0 0.256537,-0.095638 0.287161,-0.2872915 v -0.052264 c 0,-0.1347211 -0.09494,-0.2296259 -0.287161,-0.2861826 z M 42.671695,9.521538 c -0.226225,0.043778 -0.336879,0.1394178 -0.336879,0.2872916 0,0.2046174 0.110654,0.3177024 0.336879,0.3396864 0.161214,0 0.256854,-0.09564 0.287292,-0.287291 V 9.808824 c 0,-0.1347213 -0.09583,-0.2305472 -0.287292,-0.2872918 z m 0.757345,0 c -0.174365,0 -0.287321,0.1044592 -0.339555,0.313587 0,0.16516 0.104705,0.269612 0.313457,0.313391 h 0.02609 c 0.160651,0 0.257571,-0.09564 0.28801,-0.287291 V 9.808824 c 0,-0.1347213 -0.09692,-0.2305472 -0.28801,-0.2872918 z m 0.782077,0 c -0.243702,0.030626 -0.365657,0.1264036 -0.365657,0.2876178 0,0.2042422 0.114198,0.3173612 0.339296,0.3389682 0.161027,0 0.256664,-0.09562 0.287292,-0.286899 0,-0.165536 -0.08713,-0.2784336 -0.260931,-0.339687 z m 2.236409,0 c -0.174367,0 -0.286382,0.1044592 -0.339556,0.313587 0,0.16516 0.104697,0.269612 0.313261,0.313391 h 0.02629 c 0.16065,0 0.256442,-0.09564 0.28801,-0.287291 V 9.808824 c 0,-0.1347213 -0.09673,-0.2305472 -0.28801,-0.2872918 z m 0.783053,0 c -0.243511,0.030626 -0.365459,0.1264036 -0.365459,0.2876178 0,0.2042422 0.113109,0.3173612 0.340273,0.3389682 0.159899,0 0.255932,-0.09562 0.286183,-0.286899 0,-0.165536 -0.08682,-0.2784336 -0.260997,-0.339687 z m 0.729681,0 c -0.226225,0.043778 -0.338056,0.1394178 -0.338056,0.2872916 0,0.2046174 0.111831,0.3177024 0.338056,0.3396864 0.161026,0 0.256852,-0.09564 0.287291,-0.287291 V 9.808824 c 0,-0.1347213 -0.09564,-0.2305472 -0.287291,-0.2872918 z m 2.269163,0 c -0.243509,0.030626 -0.364478,0.1264036 -0.364478,0.2876178 0,0.2042422 0.112145,0.3173612 0.339689,0.3389682 0.159519,0 0.255348,-0.09562 0.285787,-0.286899 0,-0.165536 -0.087,-0.2784336 -0.260998,-0.339687 z m 0.730987,0 c -0.226413,0.043778 -0.33936,0.1394178 -0.33936,0.2872916 0,0.2046174 0.112947,0.3177024 0.33936,0.3396864 0.160841,0 0.255343,-0.09564 0.287098,-0.287291 V 9.808824 c 0,-0.1347213 -0.09582,-0.2305472 -0.287098,-0.2872918 z m 0.755974,0 c -0.174174,0 -0.287443,0.1044592 -0.339489,0.313587 0,0.16516 0.104639,0.269612 0.313393,0.313391 h 0.02609 c 0.16084,0 0.256537,-0.09564 0.287161,-0.287291 V 9.808824 c 0,-0.1347213 -0.09494,-0.2305472 -0.287161,-0.2872918 z m -9.044689,0.757102 c -0.165159,0 -0.277129,0.09466 -0.336879,0.286312 0,0.20443 0.110654,0.317565 0.336879,0.33936 0.161214,0 0.256854,-0.09544 0.287292,-0.287095 v -0.05227 c 0,-0.129647 -0.09583,-0.22487 -0.287292,-0.286312 z m 0.757345,0 c -0.18733,0 -0.300285,0.113478 -0.339555,0.338577 0,0.161025 0.113142,0.256656 0.339555,0.287095 0.160652,0 0.257572,-0.09544 0.288011,-0.287095 v -0.05227 c 0,-0.129647 -0.09692,-0.22487 -0.288011,-0.286312 z m 3.018486,0 c -0.187144,0 -0.299346,0.113478 -0.339556,0.338577 0,0.161025 0.113141,0.256656 0.339556,0.287095 0.160651,0 0.256443,-0.09544 0.28801,-0.287095 v -0.05227 c 0,-0.129647 -0.09673,-0.22487 -0.28801,-0.286312 z m 1.512734,0 c -0.164222,0 -0.278305,0.09466 -0.338056,0.286312 0,0.20443 0.111831,0.317565 0.338056,0.33936 0.161026,0 0.256852,-0.09544 0.287291,-0.287095 v -0.05227 c 0,-0.129647 -0.09564,-0.22487 -0.287291,-0.286312 z m 3.00015,0 c -0.165346,0 -0.278481,0.09466 -0.33936,0.286312 0,0.20443 0.112947,0.317565 0.33936,0.33936 0.160841,0 0.255343,-0.09544 0.287098,-0.287095 v -0.05227 c 0,-0.129647 -0.09582,-0.22487 -0.287098,-0.286312 z m 0.755974,0 c -0.186015,0 -0.300219,0.113478 -0.339489,0.338577 0,0.161025 0.113077,0.256656 0.339489,0.287095 0.160842,0 0.256537,-0.09544 0.287162,-0.287095 v -0.05227 c 0,-0.129647 -0.09494,-0.22487 -0.287162,-0.286312 z m -7.531498,3.78e-4 c -0.225098,0.04229 -0.339556,0.137948 -0.339556,0.286198 0,0.20443 0.114458,0.317173 0.339556,0.338969 0.161027,0 0.256853,-0.0957 0.287291,-0.28716 -0.03044,-0.224912 -0.126264,-0.337991 -0.287291,-0.337991 z m 0.756889,0 c -0.226039,0.04227 -0.338185,0.137932 -0.338185,0.286182 0,0.204431 0.112146,0.317172 0.338185,0.338969 0.161214,0 0.25704,-0.0957 0.287292,-0.287161 -0.03026,-0.22491 -0.126078,-0.33799 -0.287292,-0.33799 z m 0.730136,0 c -0.226225,0.04227 -0.338577,0.137932 -0.338577,0.286182 0,0.204431 0.112352,0.317172 0.338577,0.338969 0.161025,0 0.256461,-0.0957 0.2869,-0.287161 -0.03044,-0.22491 -0.125875,-0.33799 -0.2869,-0.33799 z m 1.533613,0 c -0.22754,0.04227 -0.340665,0.137932 -0.340665,0.286182 0,0.204431 0.113125,0.317172 0.340665,0.338969 0.159898,0 0.255555,-0.0957 0.286183,-0.287161 -0.03063,-0.22491 -0.126285,-0.33799 -0.286183,-0.33799 z m 2.998845,0 c -0.227165,0.04227 -0.339491,0.137932 -0.339491,0.286182 0,0.204431 0.112326,0.317172 0.339491,0.338969 0.159902,0 0.255547,-0.0957 0.285988,-0.287161 -0.03044,-0.22491 -0.126086,-0.33799 -0.285988,-0.33799 z m -7.532674,0.755593 c -0.18564,0 -0.299114,0.113518 -0.336879,0.339556 0.05976,0.191653 0.155343,0.287291 0.284615,0.287291 h 0.05226 c 0.161213,0 0.256853,-0.09564 0.287292,-0.287291 v -0.05227 c 0,-0.130588 -0.09583,-0.226038 -0.287293,-0.287291 z m 0.757345,0 c -0.226413,0.05261 -0.339555,0.165753 -0.339555,0.339556 0.06088,0.191653 0.157824,0.287291 0.287095,0.287291 h 0.05246 c 0.160651,0 0.257571,-0.09564 0.288009,-0.287291 v -0.05227 c 0,-0.130588 -0.09692,-0.226038 -0.288009,-0.287291 z m 3.018486,0 c -0.226415,0.05261 -0.339556,0.165753 -0.339556,0.339556 0.06107,0.191653 0.156688,0.287291 0.2869,0.287291 h 0.05266 c 0.160652,0 0.256443,-0.09564 0.28801,-0.287291 v -0.05227 c 0,-0.130588 -0.09673,-0.226038 -0.288009,-0.287291 z m 1.512734,0 c -0.186769,0 -0.300288,0.113518 -0.338056,0.339556 0.05976,0.191653 0.155589,0.287291 0.285986,0.287291 h 0.05207 c 0.161026,0 0.256852,-0.09564 0.287292,-0.287291 v -0.05227 c 0,-0.130588 -0.09564,-0.226038 -0.287292,-0.287291 z m 3.00015,0 c -0.187141,0 -0.300276,0.113518 -0.33936,0.339556 0.06088,0.191653 0.156754,0.287291 0.286964,0.287291 h 0.0524 c 0.160841,0 0.255344,-0.09564 0.287098,-0.287291 v -0.05227 c 0,-0.130588 -0.09582,-0.226038 -0.287098,-0.287291 z m 0.755974,0 c -0.226412,0.05261 -0.339489,0.165753 -0.339489,0.339556 0.06106,0.191653 0.156885,0.287291 0.287098,0.287291 h 0.0524 c 0.160841,0 0.256537,-0.09564 0.287162,-0.287291 v -0.05227 c 0,-0.130588 -0.09495,-0.226038 -0.287162,-0.287291 z m -7.531498,2.4e-4 c -0.165161,0 -0.277363,0.09583 -0.339556,0.287291 0.03608,0.226037 0.130757,0.339165 0.288401,0.339165 h 0.05115 c 0.161027,0 0.256853,-0.09583 0.287291,-0.287293 -0.03044,-0.226225 -0.126264,-0.339163 -0.287291,-0.339163 z m 0.756889,0 c -0.164032,0 -0.278436,0.09583 -0.338185,0.287291 0.03362,0.226037 0.129411,0.339165 0.286115,0.339165 h 0.05207 c 0.161214,0 0.25704,-0.09583 0.287292,-0.287293 -0.03025,-0.226225 -0.126078,-0.339163 -0.287292,-0.339163 z m 0.730136,0 c -0.164409,0 -0.278639,0.09583 -0.338577,0.287291 0.03381,0.226037 0.129601,0.339165 0.286117,0.339165 h 0.05246 c 0.161025,0 0.25646,-0.09583 0.2869,-0.287293 -0.03045,-0.226225 -0.125875,-0.339163 -0.2869,-0.339163 z m 1.533613,0 c -0.166288,0 -0.279599,0.09583 -0.340665,0.287291 0.03475,0.226037 0.130782,0.339165 0.287486,0.339165 h 0.05318 c 0.159897,0 0.255554,-0.09583 0.286182,-0.287293 -0.03063,-0.226225 -0.126285,-0.339163 -0.286183,-0.339163 z m 2.998845,0 c -0.166473,0 -0.279737,0.09583 -0.339491,0.287291 0.03382,0.226037 0.129421,0.339165 0.286312,0.339165 h 0.05318 c 0.159902,0 0.255547,-0.09583 0.285988,-0.287293 -0.03044,-0.226225 -0.126086,-0.339163 -0.285989,-0.339163 z m -6.775329,0.756834 c -0.151442,0 -0.265525,0.104657 -0.339555,0.312282 0.04772,0.208939 0.143544,0.313391 0.287095,0.313391 h 0.02636 c 0.208939,0 0.314109,-0.104452 0.314109,-0.313391 v -0.02616 c 0,-0.1304 -0.09692,-0.225991 -0.28801,-0.286116 z m 3.018486,0 c -0.151255,0 -0.265337,0.104657 -0.339556,0.312282 0.04772,0.208939 0.143536,0.313391 0.2869,0.313391 h 0.02636 c 0.208752,0 0.314305,-0.104452 0.314305,-0.313391 v -0.02616 c 0,-0.1304 -0.09673,-0.225991 -0.288009,-0.286116 z m 4.512884,0 c -0.226413,0.05261 -0.33936,0.164389 -0.33936,0.338381 0.06088,0.191466 0.156754,0.287292 0.286964,0.287292 h 0.0524 c 0.160841,0 0.255344,-0.09583 0.287098,-0.287292 v -0.05227 c 0,-0.1304 -0.09582,-0.225991 -0.287098,-0.286118 z m 0.755974,0 c -0.152379,0 -0.265271,0.104657 -0.339489,0.312282 0.04791,0.208939 0.143544,0.313391 0.287098,0.313391 h 0.02629 c 0.208937,0 0.313258,-0.104452 0.313258,-0.313391 v -0.02616 c 0,-0.1304 -0.09494,-0.225991 -0.287161,-0.286116 z m -7.557728,6.8e-5 c -0.208752,0.05994 -0.313196,0.164415 -0.313196,0.312476 0.04454,0.208751 0.139204,0.313 0.288206,0.313 h 0.0511 c 0.161026,0 0.256663,-0.09544 0.287291,-0.287096 -0.02611,-0.226226 -0.13057,-0.33838 -0.313392,-0.33838 z m 0.757085,0 c -0.208941,0.05994 -0.312086,0.164415 -0.312086,0.312476 0.04227,0.208751 0.138114,0.313 0.285986,0.313 h 0.05221 c 0.160837,0 0.256665,-0.09544 0.287291,-0.287096 -0.02611,-0.226226 -0.129629,-0.33838 -0.313391,-0.33838 z m 0.729744,0 c -0.208939,0.05994 -0.311889,0.164415 -0.311889,0.312476 0.04227,0.208751 0.137918,0.313 0.28579,0.313 h 0.05246 c 0.161026,0 0.256665,-0.09544 0.287291,-0.287096 -0.0263,-0.226226 -0.129703,-0.33838 -0.313652,-0.33838 z m 1.532699,0 c -0.207623,0.05994 -0.313064,0.164415 -0.313064,0.312476 0.04341,0.208751 0.139034,0.313 0.287096,0.313 h 0.05318 c 0.159899,0 0.255933,-0.09544 0.286183,-0.287096 -0.02499,-0.226226 -0.130569,-0.33838 -0.313391,-0.33838 z m 2.999041,0 c -0.207811,0.05994 -0.31228,0.164415 -0.31228,0.312476 0.04246,0.208751 0.138112,0.313 0.285986,0.313 h 0.0537 c 0.159519,0 0.255349,-0.09544 0.285787,-0.287096 -0.02611,-0.226226 -0.13056,-0.33838 -0.313197,-0.33838 z"
         style="fill:#46555f;fill-opacity:1;fill-rule:nonzero;stroke:none;stroke-width:0.0334075" />
      <g
         transform="matrix(0.05231844,0,0,0.05231844,-22.607108,50.426598)"
         id="g7654">
        <path
           d="m 1745.3116,-787.56904 c -1.3749,15.25066 14.2506,23.62601 28.2514,23.376 10.3752,-0.25002 23.1259,-2.0001 24.751,-15.62568 3.2501,-27.25117 -85.1288,-7.62531 -85.7537,-64.37775 -0.2502,-30.12628 30.0012,-47.50203 59.3776,-46.62697 41.7516,1.25004 58.6276,24.62603 58.6276,51.12715 h -34.1268 c 0,0 3.1253,-20.25086 -25.126,-21.12588 -10.6255,-0.25002 -22.001,4.00018 -23.3758,13.75059 -3.5004,25.6261 83.6284,6.62528 84.2536,64.62776 0.2499,28.75123 -26.3764,48.25205 -59.5026,47.75205 -65.7527,-0.87506 -61.8777,-48.87712 -62.1276,-52.87727 h 34.7513"
           style="fill:#f0461c;fill-rule:evenodd;stroke:none"
           id="path115" />
        <path
           d="m 2230.9574,-822.32054 v 82.12853 h 35.7515 l -0.1251,-146.7563 h -36.0014 l -36.7517,60.2526 -34.5014,-60.2526 h -37.8767 v 146.63129 h 36.8768 v -79.6284 l 36.0014,58.12749 36.6266,-60.50261"
           style="fill:#f0461c;fill-rule:evenodd;stroke:none"
           id="path119" />
        <path
           d="m 2061.9503,-886.94831 53.377,146.63129 h -36.6266 l -8.625,-25.6261 h -57.7525 l -8.8757,25.6261 h -36.8764 l 53.5024,-146.63129 z m -20.6261,37.00162 -18.7509,53.25225 H 2059.7 l -18.3758,-53.62728 v 0.37503"
           style="fill:#f0461c;fill-rule:evenodd;stroke:none"
           id="path123" />
        <path
           d="m 1903.8183,-787.19401 h -22.2509 v 46.87699 h -34.2515 V -886.8233 h 75.0033 c 27.0013,0 48.0021,23.12601 46.377,51.50222 -1.1249,21.25089 -10.3756,37.00157 -29.8764,45.87696 l 24.5011,49.1271 h -37.6264 z m -22.751,-68.62795 h 34.8768 c 10.2501,0 17.1254,9.1254 17.6255,19.37584 0.5001,9.00036 -6.5003,20.00085 -16.6257,20.00085 h -35.8766 v -39.37669"
           style="fill:#f0461c;fill-rule:evenodd;stroke:none"
           id="path132" />
        <path
           d="m 1630.0569,-733.44173 c 43.8768,0.25002 73.128,-34.7515 72.1278,-78.00333 2.0001,-46.37699 -29.7513,-78.25335 -72.1278,-78.12834 -41.2519,0 -72.2534,32.37639 -72.0031,78.12834 -0.5001,45.12692 28.7511,79.50339 72.0031,78.00333 z m 0,-125.25534 c 25.8759,-0.37503 36.7513,23.25098 36.6266,47.127 -1.5004,21.87593 -11.5006,46.00197 -36.7517,46.25199 -24.8762,0 -36.3768,-23.37603 -36.7517,-46.12698 0.3749,-22.87599 11.0004,-47.62704 36.8768,-47.25201"
           style="fill:#f0461c;fill-rule:evenodd;stroke:none"
           id="path141" />
      </g>
    </g>
  </g>
</svg>
