<?xml version="1.0" encoding="UTF-8" standalone="no"?>
<!-- Created with Inkscape (http://www.inkscape.org/) -->

<svg
   width="259"
   height="60"
   viewBox="0 0 68.527082 15.875"
   version="1.1"
   id="svg5"
   inkscape:version="1.1.2 (b8e25be833, 2022-02-05)"
   sodipodi:docname="11.svg"
   xmlns:inkscape="http://www.inkscape.org/namespaces/inkscape"
   xmlns:sodipodi="http://sodipodi.sourceforge.net/DTD/sodipodi-0.dtd"
   xmlns="http://www.w3.org/2000/svg"
   xmlns:svg="http://www.w3.org/2000/svg">
  <sodipodi:namedview
     id="namedview7"
     pagecolor="#505050"
     bordercolor="#eeeeee"
     borderopacity="1"
     inkscape:pageshadow="0"
     inkscape:pageopacity="0"
     inkscape:pagecheckerboard="0"
     inkscape:document-units="mm"
     showgrid="false"
     units="px"
     width="259px"
     inkscape:zoom="1.5144501"
     inkscape:cx="134.04205"
     inkscape:cy="80.557293"
     inkscape:window-width="1920"
     inkscape:window-height="1009"
     inkscape:window-x="-8"
     inkscape:window-y="-8"
     inkscape:window-maximized="1"
     inkscape:current-layer="layer1" />
  <defs
     id="defs2" />
  <g
     inkscape:label="Camada 1"
     inkscape:groupmode="layer"
     id="layer1">
    <rect
       style="fill:#f9f9f9;stroke:none;stroke-width:1.1611;stroke-linecap:round;stroke-linejoin:round;paint-order:stroke markers fill"
       id="rect31"
       width="68.527084"
       height="15.875"
       x="-5.0862633e-07"
       y="-1.7763568e-15"
       ry="0" />
    <path
       d="m 33.876538,7.1778793 c -0.616881,0 -0.732032,-0.36265 -0.705626,-0.7748 h 0.497997 c 0,0.227407 0.01003,0.418673 0.283328,0.418673 0.168172,0 0.250603,-0.108836 0.250603,-0.270279 0,-0.428615 -1.002101,-0.455021 -1.002101,-1.163857 0,-0.372592 0.178009,-0.669173 0.784534,-0.669173 0.484637,0 0.725509,0.217466 0.692367,0.715359 h -0.484327 c 0,-0.178115 -0.03005,-0.35944 -0.23103,-0.35944 -0.161339,0 -0.257024,0.08916 -0.257024,0.254125 0,0.451707 1.002107,0.411942 1.002107,1.160232 -2.09e-4,0.616568 -0.451815,0.68916 -0.830828,0.68916 z m 1.005522,-0.03956 0.659332,-2.380217 h 0.656128 l 0.645976,2.380217 h -0.524088 l -0.132035,-0.527405 h -0.678905 l -0.135248,0.527407 z m 0.959025,-1.922192 h -0.0062 l -0.227405,1.028717 h 0.474591 z m 1.226613,1.922192 v -2.380217 h 0.801306 l 0.372592,1.618672 h 0.0064 l 0.395475,-1.618672 h 0.774803 v 2.380217 h -0.484699 v -1.836446 h -0.0064 l -0.458435,1.836448 h -0.474849 l -0.43514,-1.836448 h -0.0064 v 1.836448 z m 3.4022,0.03956 c -0.616362,0 -0.731722,-0.36265 -0.705311,-0.7748 h 0.497891 c 0,0.227407 0.0097,0.418673 0.283222,0.418673 0.168176,0 0.250607,-0.108836 0.250607,-0.270279 0,-0.428615 -1.002106,-0.455021 -1.002106,-1.163857 0,-0.372592 0.177908,-0.669173 0.784636,-0.669173 0.484535,0 0.725199,0.217466 0.69227,0.715359 h -0.484744 c 0,-0.178115 -0.02951,-0.35944 -0.230516,-0.35944 -0.161853,0 -0.257537,0.08916 -0.257537,0.254125 0,0.451707 1.002203,0.411942 1.002203,1.160232 1.06e-4,0.616568 -0.451394,0.68916 -0.830615,0.68916 z m 2.795889,-2.419775 v 1.687847 c 0,0.356126 -0.201106,0.732032 -0.807732,0.732032 -0.547291,0 -0.811357,-0.283534 -0.811357,-0.732032 v -1.687847 h 0.497998 v 1.654813 c 0,0.293475 0.125304,0.408835 0.306628,0.408835 0.217674,0 0.316567,-0.145184 0.316567,-0.408835 v -1.654813 z m 0.408525,2.380217 v -2.380217 h 0.67259 l 0.633139,1.648289 h 0.0065 V 4.7581043 H 45.4513 v 2.380217 h -0.65592 l -0.649601,-1.740867 h -0.0066 v 1.740867 z m 3.283734,-1.648495 c 0.0034,-0.220884 -0.03305,-0.415464 -0.296684,-0.415464 -0.309942,0 -0.309942,0.418777 -0.309942,0.880219 0,0.745184 0.0727,0.877113 0.356023,0.877113 0.08243,0 0.171487,-0.01978 0.247395,-0.04619 v -0.527611 h -0.270384 v -0.365861 h 0.767965 v 1.206833 c -0.134827,0.0263 -0.47449,0.07912 -0.672281,0.07912 -0.837554,0 -0.933239,-0.346185 -0.933239,-1.249601 0,-0.599792 0.02971,-1.209836 0.844082,-1.209836 0.488054,0 0.79126,0.273593 0.761336,0.771383 H 46.958046 Z M 33.230251,10.786261 V 8.4059413 h 1.29879 v 0.365964 h -0.800899 v 0.586847 h 0.73825 v 0.365861 h -0.73825 v 0.6956837 h 0.827305 v 0.365964 z m 1.651809,0 V 8.4059413 h 0.497789 v 1.9846357 h 0.745082 v 0.395684 z m 1.460439,0 V 8.4059413 h 1.298891 v 0.365964 h -0.801102 v 0.586847 h 0.738351 v 0.365861 h -0.738351 v 0.6956837 h 0.827198 v 0.365964 z m 1.625403,-1.1900567 c 0,-0.629719 0,-1.229822 0.820675,-1.229822 0.507728,0 0.712255,0.280428 0.692474,0.791369 h -0.488059 c 0,-0.316568 -0.05602,-0.435138 -0.204415,-0.435138 -0.280324,0 -0.316572,0.263651 -0.316572,0.873695 0,0.6100437 0.03625,0.8737987 0.316572,0.8737987 0.230821,0 0.220882,-0.296893 0.227511,-0.4848457 h 0.491262 c 0,0.6359327 -0.253913,0.8405577 -0.718773,0.8405577 -0.820675,0 -0.820675,-0.606523 -0.820675,-1.2296147 z m 3.273377,-1.190263 v 0.395581 h -0.553605 v 1.9847387 h -0.4981 V 8.8015223 h -0.553605 v -0.395581 z m 0.718778,2.3803197 H 41.462375 V 8.4059413 h 0.919777 c 0.33945,0 0.557124,0.21788 0.557124,0.623195 0,0.303313 -0.118675,0.530824 -0.441871,0.583533 v 0.0065 c 0.108837,0.01315 0.431931,0.03966 0.431931,0.4681727 0,0.151708 0.0099,0.599895 0.05602,0.698791 h -0.487952 c -0.06596,-0.144667 -0.0526,-0.306628 -0.0526,-0.461442 0,-0.283534 0.02631,-0.5244037 -0.356023,-0.5244037 h -0.128614 v 0.9859487 z m 0,-1.3516027 h 0.220781 c 0.197892,0 0.253917,-0.197998 0.253917,-0.349395 0,-0.227615 -0.09569,-0.313255 -0.253917,-0.313255 h -0.220781 z m 1.322197,0.161546 c 0,-0.629719 0,-1.229822 0.820985,-1.229822 0.820676,0 0.820676,0.600207 0.820676,1.229822 0,0.6230917 0,1.2296147 -0.820676,1.2296147 -0.820985,0 -0.820985,-0.606523 -0.820985,-1.2296147 z m 1.137242,0 c 0,-0.610044 -0.03635,-0.873695 -0.316257,-0.873695 -0.280222,0 -0.316882,0.263651 -0.316882,0.873695 0,0.6100437 0.03664,0.8737987 0.316882,0.8737987 0.279907,0 0.316257,-0.263755 0.316257,-0.8737987 z m 1.644971,0.131826 V 10.064378 H 45.25674 V 9.7280303 Z m 0.342978,1.0582307 V 8.4059413 h 0.801204 l 0.372282,1.6186707 h 0.0065 l 0.395688,-1.6186707 h 0.774798 V 10.786261 H 48.273173 V 8.9499163 h -0.0065 L 47.80865,10.786157 H 47.333851 L 46.898503,8.9499163 h -0.0065 v 1.8363447 z m 2.756224,0 V 8.4059413 h 1.298789 v 0.365964 h -0.801204 v 0.586847 h 0.738662 v 0.365861 h -0.738662 v 0.6956837 h 0.827611 v 0.365964 z m 1.625194,-1.1900567 c 0,-0.629719 0,-1.229822 0.820984,-1.229822 0.507321,0 0.711945,0.280428 0.692168,0.791369 h -0.487952 c 0,-0.316568 -0.05592,-0.435138 -0.204216,-0.435138 -0.280424,0 -0.316769,0.263651 -0.316769,0.873695 0,0.6100437 0.03634,0.8737987 0.316769,0.8737987 0.230622,0 0.220678,-0.296893 0.227308,-0.4848457 h 0.491266 c 0,0.6359327 -0.253709,0.8405577 -0.718574,0.8405577 -0.820984,0 -0.820984,-0.606523 -0.820984,-1.2296147 z m 2.940764,-0.237452 v -0.952811 h 0.497789 V 10.786261 H 53.729627 V 9.7246133 h -0.57049 V 10.786261 H 52.661246 V 8.4059413 h 0.497891 v 0.952811 z m 0.748183,1.4275087 0.659439,-2.3802167 h 0.65592 L 56.43946,10.786261 H 55.915158 L 55.78323,10.258854 h -0.679012 l -0.135243,0.527407 z m 0.959335,-1.9219847 h -0.0065 l -0.227512,1.028717 h 0.474805 z m 1.239664,1.9219847 V 8.4059413 h 0.672488 l 0.633134,1.6484947 h 0.0065 V 8.4059413 h 0.46486 V 10.786261 H 57.797663 L 57.148271,9.0456013 h -0.0066 v 1.7406597 z m 2.195887,0 V 8.4059413 h 0.497581 v 2.3803197 z m 0.893162,-1.1900567 c 0,-0.629719 0,-1.229822 0.821092,-1.229822 0.507525,0 0.711839,0.280428 0.692159,0.791369 h -0.487952 c 0,-0.316568 -0.05602,-0.435138 -0.204207,-0.435138 -0.280221,0 -0.316571,0.263651 -0.316571,0.873695 0,0.6100437 0.03635,0.8737987 0.316571,0.8737987 0.230613,0 0.220572,-0.296893 0.227303,-0.4848457 h 0.49116 c 0,0.6359327 -0.253811,0.8405577 -0.718463,0.8405577 -0.821092,0 -0.821092,-0.606523 -0.821092,-1.2296147 z m 2.502307,1.2296147 c -0.616459,0 -0.731824,-0.362443 -0.705519,-0.7748 h 0.497895 c 0,0.227614 0.0099,0.418984 0.28343,0.418984 0.168172,0 0.250603,-0.10894 0.250603,-0.270693 0,-0.4283047 -1.00231,-0.4548147 -1.00231,-1.1636497 0,-0.372488 0.177908,-0.669381 0.784636,-0.669381 0.484434,0 0.725199,0.21788 0.692265,0.715566 H 62.58463 c 0,-0.178115 -0.02971,-0.359336 -0.230821,-0.359336 -0.161649,0 -0.257233,0.08906 -0.257233,0.254021 0,0.451604 1.002208,0.412046 1.002208,1.1604397 1.02e-4,0.616257 -0.451398,0.688849 -0.830619,0.688849 z M 29.163118,5.8722553 c -0.322988,-1.85426 -5.894364,-2.4328232 -12.44475,-1.292473 -2.75084,0.47915 -5.234509,1.186018 -7.1689179,1.981219 0.2971005,0.0065 0.5174639,0.07466 0.6511559,0.208042 0.104694,0.104798 0.157715,0.248636 0.157715,0.427787 v 0.184017 H 9.7160712 v -0.162374 c 0,-0.135347 -0.081292,-0.21933 -0.2250255,-0.21933 -0.1207485,0 -0.1953047,0.05457 -0.2192296,0.162064 -0.00674,0.02993 -0.00858,0.08129 0.00291,0.128097 0.06876,0.280946 1.0221929,0.455436 1.1262659,0.974041 0.01347,0.06669 0.03208,0.209285 0.0029,0.413807 -0.05944,0.418155 -0.4270604,0.579598 -0.894717,0.579598 -0.6526054,0 -0.9178093,-0.309319 -0.9178093,-0.735656 l 4.216e-4,-0.201622 h 0.6884369 l 4.265e-4,0.251329 c 0,0.141145 0.1026244,0.219226 0.2424227,0.219226 0.1326553,0 0.2098041,-0.05343 0.236622,-0.162582 0.012551,-0.05022 0.017833,-0.123955 -0.00485,-0.1806 -0.1272665,-0.319675 -1.0180495,-0.469002 -1.1275068,-0.985949 -0.024424,-0.116189 -0.026411,-0.214981 -0.00611,-0.339972 0.011097,-0.06783 0.03179,-0.125613 0.056955,-0.17884 -2.1459728,1.003554 -3.401062,2.107556 -3.2352686,3.0608847 0.3231964,1.85426 5.894567,2.432512 12.444642,1.292162 2.879251,-0.501414 5.467613,-1.251464 7.437956,-2.0924357 -0.02888,0.0015 -0.05613,0.0046 -0.08574,0.0046 -0.448393,0 -0.848637,-0.167967 -0.890163,-0.626199 -0.0075,-0.08347 -0.0089,-0.118363 -0.0089,-0.165895 v -1.053467 c 0,-0.04536 0.0055,-0.124992 0.01056,-0.166207 0.05312,-0.442906 0.403345,-0.625473 0.888709,-0.625473 0.375388,0 0.835795,0.107801 0.88664,0.625888 0.0066,0.06493 0.0059,0.134414 0.0059,0.1573 v 0.09952 h -0.648981 v -0.148602 c 0,-0.0033 -9.69e-4,-0.05861 -0.0079,-0.09341 -0.01066,-0.05281 -0.05571,-0.175423 -0.240557,-0.175423 -0.182361,0 -0.229789,0.123024 -0.241701,0.175526 -0.0066,0.0291 -0.0099,0.07073 -0.0099,0.116914 v 1.144803 c -4.27e-4,0.03987 0.0015,0.07073 0.0056,0.09382 0.0034,0.01792 0.03581,0.17563 0.248325,0.17563 0.210734,0 0.243251,-0.157611 0.246251,-0.17563 0.0056,-0.03107 0.0065,-0.06814 0.0061,-0.09382 v -0.354676 h -0.255265 v -0.382119 h 0.902588 v 0.679633 c -2.08e-4,0.04619 -9.69e-4,0.08057 -0.0086,0.165792 -0.0111,0.120124 -0.04898,0.221815 -0.108212,0.308905 2.09005,-0.992059 3.306413,-2.078353 3.142797,-3.017806 z m -16.984507,3.286532 -0.328682,-2.233065 h -0.01168 l -0.336969,2.232961 h -0.692784 l 0.465893,-2.521673 h 1.129789 l 0.462893,2.521673 h -0.688437 z m 3.331167,0 -0.01531,-2.189779 h -0.0111 l -0.407697,2.189779 h -0.649916 l -0.40552,-2.189779 h -0.01139 l -0.01483,2.189779 h -0.644217 l 0.05582,-2.521673 h 1.035864 l 0.301757,1.87321 h 0.01483 l 0.302276,-1.87321 h 1.035554 l 0.05551,2.521673 z m 3.032821,-0.48878 c -0.06928,0.488469 -0.547805,0.573695 -0.885913,0.573695 -0.561476,0 -0.908597,-0.240041 -0.908597,-0.728407 l 2.08e-4,-0.199241 h 0.680257 l 4.85e-4,0.248222 c 0,0.13483 0.09496,0.217259 0.241594,0.217259 0.130998,0 0.20742,-0.05261 0.234034,-0.160614 0.01221,-0.05012 0.01749,-0.123541 -0.0044,-0.178943 -0.125096,-0.313565 -1.008837,-0.467034 -1.116327,-0.976008 -0.02452,-0.115154 -0.02631,-0.21322 -0.0061,-0.336762 0.07476,-0.461338 0.517464,-0.557127 0.873797,-0.557127 0.318535,0 0.550291,0.06959 0.689576,0.208664 0.103763,0.103658 0.156367,0.246254 0.156367,0.423644 v 0.181947 h -0.636212 v -0.160614 c 0,-0.137315 -0.08533,-0.216949 -0.22254,-0.216949 -0.121572,0 -0.194888,0.05395 -0.218914,0.160407 -0.0048,0.02247 -0.0098,0.07477 0.0029,0.126752 0.06814,0.279703 1.013393,0.450569 1.116948,0.964306 0.01328,0.06576 0.0314,0.206386 0.0029,0.409769 z m 2.356087,-0.228858 c 9.69e-4,0.04722 -0.0039,0.141767 -0.0063,0.165792 -0.03882,0.415464 -0.335932,0.626716 -0.880945,0.626716 -0.546875,0 -0.844286,-0.211252 -0.883015,-0.626716 -0.0024,-0.02403 -0.0073,-0.11857 -0.0061,-0.165585 v -1.804656 h 0.650744 v 1.861612 c -4.84e-4,0.04163 0.0015,0.07249 0.0056,0.09392 0.0082,0.04132 0.0494,0.175836 0.232896,0.175836 0.183189,0 0.2244,-0.134415 0.232997,-0.175526 0.0039,-0.02175 0.0058,-0.05426 0.0058,-0.09423 v -1.861612 h 0.648462 c -1.02e-4,0 -1.02e-4,1.804656 -1.02e-4,1.804449 z m 2.803967,0.691749 h -0.905796 l -0.60777,-1.997166 h -0.01037 l 0.03397,1.997166 h -0.631166 v -2.495784 h 0.943493 l 0.561888,1.918671 h 0.01328 l -0.03334,-1.918671 h 0.635833 z"
       fill="#034ea2"
       id="path862"
       style="stroke-width:0.103555" />
  </g>
</svg>
