<?xml version="1.0" encoding="UTF-8" standalone="no"?>
<!-- Created with Inkscape (http://www.inkscape.org/) -->

<svg
   width="259"
   height="60"
   viewBox="0 0 68.527082 15.875"
   version="1.1"
   id="svg5"
   inkscape:version="1.1.2 (b8e25be833, 2022-02-05)"
   sodipodi:docname="14.svg"
   xmlns:inkscape="http://www.inkscape.org/namespaces/inkscape"
   xmlns:sodipodi="http://sodipodi.sourceforge.net/DTD/sodipodi-0.dtd"
   xmlns="http://www.w3.org/2000/svg"
   xmlns:svg="http://www.w3.org/2000/svg">
  <sodipodi:namedview
     id="namedview7"
     pagecolor="#505050"
     bordercolor="#eeeeee"
     borderopacity="1"
     inkscape:pageshadow="0"
     inkscape:pageopacity="0"
     inkscape:pagecheckerboard="0"
     inkscape:document-units="mm"
     showgrid="false"
     units="px"
     width="259px"
     inkscape:zoom="1.5144501"
     inkscape:cx="217.24057"
     inkscape:cy="80.557293"
     inkscape:window-width="1920"
     inkscape:window-height="1009"
     inkscape:window-x="-8"
     inkscape:window-y="-8"
     inkscape:window-maximized="1"
     inkscape:current-layer="layer1" />
  <defs
     id="defs2" />
  <g
     inkscape:label="Camada 1"
     inkscape:groupmode="layer"
     id="layer1">
    <rect
       style="fill:#f9f9f9;stroke:none;stroke-width:1.1611;stroke-linecap:round;stroke-linejoin:round;paint-order:stroke markers fill"
       id="rect31"
       width="68.527084"
       height="15.875"
       x="-5.0862633e-07"
       y="-1.7763568e-15"
       ry="0" />
    <g
       id="g1054"
       transform="matrix(0.0642119,0,0,0.0642119,23.450257,-9.7207733)">
      <rect
         x="-131.60001"
         y="197.39999"
         class="st0"
         width="208.89999"
         height="124.2"
         id="rect937" />
      <g
         id="g1009">
	<path
   class="st1"
   d="m -77.8,247.2 c -1,-2.5 -2.9,-7.2 -13,-7.2 -5.9,0 -14.6,2.8 -14.6,14.6 0,7.5 4.2,14.3 14.6,14.3 6.8,0 11.5,-2.7 13,-7.9 h 12.3 c -2.5,9.1 -10.8,15.4 -25.6,15.4 -15.6,0 -26.9,-7.5 -26.9,-21.9 0,-14.6 11.9,-22.1 27,-22.1 17.6,0 24.7,8.6 25.4,14.8"
   id="path939" />

	<path
   class="st1"
   d="m -51.7,233.5 h 26 c 19.8,0 23.9,12 23.9,19.9 0,9 -5,21.9 -24.4,21.9 h -25.5 m 12,-7.2 h 12 c 10,0 13.4,-7.2 13.4,-14 0,-12.3 -8.3,-13.3 -13.5,-13.3 h -11.8 v 27.3 z"
   id="path941" />

	<polyline
   class="st1"
   points="55.9,240.9 24.7,240.9 24.7,249.7 53.4,249.7 53.4,257.1 24.7,257.1 24.7,267.9 57.3,267.9    57.3,275.3 12.7,275.3 12.7,233.5 55.9,233.5  "
   id="polyline943" />

	<polyline
   class="st2"
   points="-10.1,289.6 -36.5,321.6 -36,322 0.4,288.3 0.7,287.9 -6.6,284.9 11.6,258.5 11.6,258.4 11.6,253.4    -18.9,287.4  "
   id="polyline945" />

	<polyline
   class="st2"
   points="55,209.4 30.7,232.1 35.6,232.1 55.9,210.3  "
   id="polyline947" />

	<polyline
   points="-117.2,352 -129.4,352 -129.4,335.6 -117.3,335.6 -117.3,337.5 -127.2,337.5 -127.2,342.5 -118.1,342.5    -118.1,344.5 -127.2,344.5 -127.2,350 -117.1,350  "
   id="polyline949" />

	<polyline
   points="-103.6,335.6 -101.4,335.6 -101.4,352 -103.9,352 -112.4,338.7 -112.4,338.7 -112.4,352 -114.6,352 -114.6,335.6    -111.9,335.6 -103.6,348.8 -103.6,348.8  "
   id="polyline951" />

	<polyline
   points="-85.8,352 -98.1,352 -98.1,335.6 -86,335.6 -86,337.5 -95.8,337.5 -95.8,342.5 -86.7,342.5 -86.7,344.5    -95.8,344.5 -95.8,350 -85.8,350  "
   id="polyline953" />

	<path
   d="M -80.7,352 H -83 v -16.4 h 7.7 c 2.7,0 5.5,0.9 5.5,4.4 0,2.4 -1.3,3.3 -2.3,3.9 1,0.4 1.9,0.8 2,3.1 l 0.1,3 c 0,0.9 0.1,1.3 0.8,1.6 V 352 H -72 c -0.3,-1 -0.4,-3.5 -0.4,-4.1 0,-1.3 -0.3,-2.9 -3,-2.9 h -5.4 m 0.1,-2 h 5.2 c 1.6,0 3.4,-0.4 3.4,-2.8 0,-2.5 -1.9,-2.7 -3,-2.7 h -5.6 z"
   id="path955" />

	<path
   d="m -59.7,343.2 h 7.3 v 8.8 h -1.5 l -0.5,-2.1 c -1.1,1.6 -3.2,2.6 -5.5,2.6 -2.8,0 -4.2,-1 -5.1,-1.8 -2.5,-2.4 -2.6,-5.2 -2.6,-6.9 0,-4 2.5,-8.5 7.9,-8.5 3.1,0 6.6,1.7 7,5.4 h -2.2 c -0.7,-2.9 -3.1,-3.4 -5,-3.4 -3,0 -5.4,2.3 -5.4,6.6 0,3.3 1.1,6.8 5.5,6.8 0.8,0 2.2,-0.1 3.4,-1 1.5,-1.1 1.8,-2.6 1.8,-4.4 h -5.2"
   id="path957" />

	<rect
   x="-49"
   y="335.60001"
   width="2.2"
   height="16.4"
   id="rect959" />

	<polyline
   points="-31.4,352 -44.5,352 -44.5,350.1 -34.3,337.5 -43.7,337.5 -43.7,335.6 -31.4,335.6 -31.4,337.5 -41.7,350    -31.4,350  "
   id="polyline961" />

	<rect
   x="-29.200001"
   y="335.60001"
   width="2.2"
   height="16.4"
   id="rect963" />

	<polyline
   points="-12.5,335.6 -10.3,335.6 -10.3,352 -12.8,352 -21.3,338.7 -21.3,338.7 -21.3,352 -23.5,352 -23.5,335.6    -20.8,335.6 -12.5,348.8 -12.5,348.8  "
   id="polyline965" />

	<path
   d="M 0.1,343.2 H 7.4 V 352 H 5.9 l -0.5,-2.1 c -1.1,1.6 -3.2,2.6 -5.5,2.6 -2.8,0 -4.2,-1 -5.1,-1.8 -2.5,-2.4 -2.6,-5.2 -2.6,-6.9 0,-4 2.5,-8.5 7.9,-8.5 3.1,0 6.6,1.7 7,5.4 H 4.9 c -0.7,-2.9 -3.1,-3.4 -5,-3.4 -3,0 -5.4,2.3 -5.4,6.6 0,3.3 1.1,6.8 5.5,6.8 0.8,0 2.2,-0.1 3.4,-1 1.5,-1.1 1.8,-2.6 1.8,-4.4 H 0.1"
   id="path967" />

	<rect
   x="16.799999"
   y="335.60001"
   width="2.2"
   height="16.4"
   id="rect969" />

	<path
   d="m 22.6,335.6 h 6.7 c 4.3,0 7,3.2 7,8 0,3.7 -1.6,8.4 -7.1,8.4 h -6.6 m 2.3,-1.9 h 4.3 c 2.9,0 4.8,-2.3 4.8,-6.4 0,-4.1 -1.9,-6.2 -5,-6.2 h -4.2 v 12.6 z"
   id="path971" />

	<polyline
   points="51.3,352 39.1,352 39.1,335.6 51.2,335.6 51.2,337.5 41.3,337.5 41.3,342.5 50.4,342.5 50.4,344.5 41.3,344.5    41.3,350 51.3,350  "
   id="polyline973" />

	<path
   d="m 56.5,347.2 -1.7,4.8 h -2.3 l 6.3,-16.4 h 2.5 l 6,16.4 h -2.5 l -1.6,-4.8 m -0.9,-2 -2.5,-7.2 v 0 l -2.7,7.2 z"
   id="path975" />

	<path
   d="m 78.9,340.4 c -0.1,-2.5 -2.2,-3.3 -4.1,-3.3 -1.4,0 -3.8,0.4 -3.8,2.9 0,1.4 1,1.8 2,2.1 l 4.7,1.1 c 2.2,0.5 3.8,1.8 3.8,4.4 0,3.9 -3.7,5 -6.5,5 -3.1,0 -4.3,-0.9 -5,-1.6 -1.4,-1.3 -1.7,-2.6 -1.7,-4.2 h 2.1 c 0,3 2.5,3.8 4.6,3.8 1.6,0 4.3,-0.4 4.3,-2.8 0,-1.7 -0.8,-2.3 -3.5,-2.9 l -3.4,-0.8 c -1.1,-0.3 -3.5,-1 -3.5,-3.9 0,-2.6 1.7,-5.1 5.7,-5.1 5.8,0 6.4,3.4 6.5,5.2"
   id="path977" />

	<path
   d="m 136.8,226.4 c -0.8,-2 -2.4,-5.7 -11,-5.7 -5,0 -12.4,2.2 -12.4,11.5 0,5.9 3.5,11.2 12.4,11.2 5.8,0 9.8,-2.1 11,-6.2 h 10.4 c -2.1,7.1 -9.2,12.1 -21.7,12.1 -13.3,0 -22.8,-5.9 -22.8,-17.2 0,-11.5 10.1,-17.3 22.9,-17.3 14.9,0 21,6.8 21.5,11.6"
   id="path979" />

	<path
   d="m 182.7,214.8 c 6.6,0 23.9,1.9 23.9,17.3 0,15.4 -17.4,17.3 -23.9,17.3 -6.6,0 -23.9,-1.9 -23.9,-17.3 0,-15.4 17.3,-17.3 23.9,-17.3 m 0,28.7 c 5.6,0 13.5,-2.3 13.5,-11.5 0,-9.2 -7.9,-11.5 -13.5,-11.5 -5.6,0 -13.5,2.3 -13.5,11.5 0,9.2 7.9,11.5 13.5,11.5"
   id="path981" />

	<path
   d="m 220.9,215.7 h 25.2 c 13.3,0 15.7,6.4 15.7,9.3 0,3.6 -2.8,6.7 -7.7,7.8 4.1,1.2 6.3,2.2 6.3,8.3 0,4.8 0,6 2.2,6.5 v 0.9 h -11.5 c -0.7,-1.6 -1.1,-3.2 -1.1,-6.6 0,-4.5 -0.4,-6.2 -8.1,-6.2 h -10.8 v 12.8 h -10.2 m 22.4,-18.4 c 5.4,0 8,-1.2 8,-4.5 0,-1.7 -1.2,-4.3 -7.3,-4.3 h -13 v 8.8 z"
   id="path983" />

	<polyline
   points="307.2,215.7 316.9,215.7 316.9,248.5 306.5,248.5 286.2,225.1 286.1,225.1 286.1,248.5 276.3,248.5 276.3,215.7    287.3,215.7 307.1,238.5 307.2,238.5  "
   id="polyline985" />

	<polyline
   points="369.4,221.5 343,221.5 343,228.4 367.3,228.4 367.3,234.2 343,234.2 343,242.7 370.6,242.7 370.6,248.5    332.8,248.5 332.8,215.7 369.4,215.7  "
   id="polyline987" />

	<polyline
   points="395.3,242.5 420.1,242.5 420.1,248.5 384.9,248.5 384.9,215.7 395.3,215.7  "
   id="polyline989" />

	<polyline
   points="443.6,242.5 468.4,242.5 468.4,248.5 433.2,248.5 433.2,215.7 443.6,215.7  "
   id="polyline991" />

	<path
   d="m 105,273.9 h 22 c 16.8,0 20.3,9.4 20.3,15.6 0,7 -4.2,17.2 -20.7,17.2 H 105 m 10.3,-5.7 h 10.1 c 8.5,0 11.3,-5.6 11.3,-11 0,-9.7 -7,-10.5 -11.5,-10.5 h -10 V 301 Z"
   id="path993" />

	<path
   d="m 201.2,295.2 c 0,8.6 -7.9,12.3 -20.5,12.3 -4.6,0 -11.4,-0.7 -15.8,-4 -2.7,-2 -3.7,-4.7 -3.9,-7.9 v -21.7 h 10.6 v 21.3 c 0,4.6 4,6.6 8.9,6.6 7.2,0 10.1,-2.3 10.1,-6.3 v -21.6 h 10.6"
   id="path995" />

	<path
   d="m 217.5,273.9 h 24.2 c 12.2,0 15.3,5 15.3,8.4 0,4.7 -4,6 -6.1,6.7 6.1,1.5 7.7,4.7 7.7,7.9 0,2.6 -1.7,5.1 -4.3,6.8 -2.8,1.8 -5.6,3 -15.8,3 h -21.1 m 10.1,-20 h 12.2 c 4.1,0 7.4,-1 7.4,-3.7 0,-2.7 -2.9,-3.5 -7.6,-3.5 h -11.9 v 7.2 z m 0,14.3 h 12.8 c 5.1,0 8,-1.5 8,-4.8 0,-2.9 -3.7,-4 -7.5,-4 h -13.3 z"
   id="path997" />

	<rect
   x="272.89999"
   y="273.89999"
   width="10.4"
   height="32.799999"
   id="rect999" />

	<polyline
   points="309.6,300.8 334.4,300.8 334.4,306.7 299.2,306.7 299.2,273.9 309.6,273.9  "
   id="polyline1001" />

	<rect
   x="346.89999"
   y="273.89999"
   width="10.4"
   height="32.799999"
   id="rect1003" />

	<polyline
   points="409.8,279.7 383.3,279.7 383.3,286.6 407.6,286.6 407.6,292.4 383.3,292.4 383.3,300.9 410.9,300.9 410.9,306.7    373.1,306.7 373.1,273.9 409.8,273.9  "
   id="polyline1005" />

	<path
   d="m 425.5,273.9 h 25.2 c 13.3,0 15.7,6.4 15.7,9.3 0,3.6 -2.8,6.7 -7.7,7.8 4.1,1.2 6.3,2.2 6.3,8.3 0,4.8 0,6 2.2,6.5 v 0.9 h -11.5 c -0.7,-1.6 -1.1,-3.2 -1.1,-6.6 0,-4.5 -0.4,-6.2 -8.1,-6.2 h -10.8 v 12.8 H 425.5 M 448,288.3 c 5.4,0 8,-1.2 8,-4.5 0,-1.7 -1.2,-4.3 -7.3,-4.3 h -13 v 8.8 z"
   id="path1007" />

</g>
    </g>
  </g>
  <style
     type="text/css"
     id="style935">
	.st0{fill:#931714;}
	.st1{fill:#F9F9FA;}
	.st2{fill:#FFFFFF;}
</style>
</svg>
