<?xml version="1.0" encoding="UTF-8" standalone="no"?>
<!-- Created with Inkscape (http://www.inkscape.org/) -->

<svg
   width="259"
   height="35"
   viewBox="0 0 68.527082 9.2604167"
   version="1.1"
   id="svg5"
   inkscape:version="1.1 (c68e22c387, 2021-05-23)"
   sodipodi:docname="1_distributor.svg"
   xmlns:inkscape="http://www.inkscape.org/namespaces/inkscape"
   xmlns:sodipodi="http://sodipodi.sourceforge.net/DTD/sodipodi-0.dtd"
   xmlns="http://www.w3.org/2000/svg"
   xmlns:svg="http://www.w3.org/2000/svg">
  <sodipodi:namedview
     id="namedview7"
     pagecolor="#505050"
     bordercolor="#eeeeee"
     borderopacity="1"
     inkscape:pageshadow="0"
     inkscape:pageopacity="0"
     inkscape:pagecheckerboard="0"
     inkscape:document-units="mm"
     showgrid="false"
     units="px"
     width="259px"
     inkscape:zoom="4.2835118"
     inkscape:cx="131.31749"
     inkscape:cy="7.8206858"
     inkscape:window-width="1920"
     inkscape:window-height="1013"
     inkscape:window-x="-9"
     inkscape:window-y="-9"
     inkscape:window-maximized="1"
     inkscape:current-layer="layer1"
     showguides="true"
     inkscape:guide-bbox="true" />
  <defs
     id="defs2">
    <clipPath
       id="_clipPath_54YrGfEr6ejH1v37yrWMlYAZN0XkJKpK">
      <rect
         width="174"
         height="35"
         id="rect22" />
    </clipPath>
  </defs>
  <g
     inkscape:label="Camada 1"
     inkscape:groupmode="layer"
     id="layer1">
    <rect
       style="fill:#f9f9f9;stroke:none;stroke-width:0.886805;stroke-linecap:round;stroke-linejoin:round;paint-order:stroke markers fill"
       id="rect31"
       width="68.527084"
       height="9.260417"
       x="-5.0862633e-07"
       y="-1.5894572e-07"
       ry="0" />
    <g
       id="g34340"
       transform="matrix(1.240825,0,0,1.240825,-8.2545288,-0.86005333)">
      <g
         id="g4306"
         transform="matrix(0.01485561,0,0,0.01485561,35.47892,-1.2804753)">
        <rect
           x="187.7"
           y="332.5"
           class="st0"
           width="438.29999"
           height="8.3000002"
           id="rect4054" />
        <path
           d="M 187.8,357.8 H 221 v 6.3 h -23.6 v 6.8 h 22.4 v 6 h -22.4 v 7.5 h 23.8 v 6.3 h -33.4 z m 39.7,32.8 h 31.3 V 384 h -21.7 v -26.3 h -9.7 v 32.9 z m 37,0 h 33.4 v -6.3 h -23.8 v -7.5 h 22.4 v -6 H 274.1 V 364 h 23.6 v -6.3 h -33.2 z m 80.2,-20.4 c -1.4,-11.3 -12.4,-13.3 -20.9,-13.3 -12.9,0 -21,5.1 -21,17.3 0,12.2 8.1,17.3 21,17.3 11.3,0 19.8,-4 21,-13.5 h -10.5 c -0.9,5.2 -5.5,7.3 -10.2,7.3 -9.2,0 -11.1,-6.6 -11.1,-11.1 0,-4.5 1.9,-11.1 11.1,-11.1 5,0 9.3,2.3 10.2,7.1 z m 15.5,20.4 h 9.7 V 364 h 13.2 v -6.2 H 347 v 6.2 h 13.2 z m 27.2,0 h 9.7 v -12 h 12 c 3,0 5.1,1.2 5.1,5.7 0,3.4 0,4.8 0.9,6.3 h 10.6 c -1.7,-1.7 -1.8,-5.5 -1.8,-7.1 0,-3.2 -0.6,-8.2 -4.9,-8.8 v -0.1 c 4,-1.3 5.8,-3.9 5.8,-7.9 0,-3.4 -1.6,-8.9 -11.5,-8.9 h -25.9 z m 9.7,-26.6 h 12.3 c 2.3,0 5.1,0.8 5.1,4.1 0,3.1 -2.5,4.2 -4.6,4.2 h -12.8 z m 53.9,-7.2 c -19.1,0 -22.1,10.5 -22.1,17.3 0,6.8 3,17.3 22.1,17.3 19.1,0 22.1,-10.5 22.1,-17.3 0,-6.8 -3,-17.3 -22.1,-17.3 m 0,28.4 c -8.8,0 -11.8,-6 -11.8,-11.1 0,-5.1 3.1,-11.1 11.8,-11.1 8.8,0 11.9,6 11.9,11.1 0,5.2 -3.1,11.1 -11.9,11.1 m 57.9,-4.6 v 0 l -18.8,-22.9 h -11.2 v 32.8 h 9.4 v -22.9 h 0.1 l 19.4,22.9 h 10.5 v -32.8 h -9.4 z m 17.2,10 h 9.7 v -32.8 h -9.7 z M 584,370.2 c -1.4,-11.3 -12.4,-13.3 -20.9,-13.3 -13,0 -21,5.1 -21,17.3 0,12.2 8.1,17.3 21,17.3 11.3,0 19.8,-4 21,-13.5 h -10.5 c -1,5.2 -5.5,7.3 -10.2,7.3 -9.2,0 -11.1,-6.6 -11.1,-11.1 0,-4.5 1.9,-11.1 11.1,-11.1 5,0 9.3,2.3 10.2,7.1 z m 40.5,-2.9 c -0.6,-9.3 -11.5,-10.4 -18.8,-10.4 -11.1,0 -17.6,3 -17.6,10.3 0,6.7 6,8.4 12.1,9.3 l 8.8,1.2 c 3.8,0.5 6,1.2 6,3.8 0,2.8 -3.1,4.1 -7.6,4.1 -4.2,0 -9.1,-0.8 -9.2,-5.3 h -10.9 c 0.1,10.3 11.4,11.3 20,11.3 14,0 18.5,-4.9 18.5,-11 0,-6 -4.9,-8.2 -11.4,-9.2 l -12.1,-1.8 c -2.5,-0.4 -4.1,-1.3 -4.1,-3.1 0,-2.2 2.6,-3.9 6.6,-3.9 3.9,0 8.3,0.5 8.9,4.7 z M 204.8,292 H 240 v -9 H 204.8 V 271.5 H 245 v -9 h -57.3 v 50.8 h 17 V 292 Z M 320.3,262.6 H 303.2 V 296 c 0,6.2 -4.7,9.7 -16.2,9.7 -7.8,0 -14.3,-3.1 -14.3,-10.2 v -33 h -17.1 v 33.7 c 0.2,5.1 1.9,9.2 6.2,12.3 7.1,5 18.1,6.2 25.4,6.2 20.2,0 32.9,-5.7 32.9,-19.1 v -33 z m 50.4,9 h 24.2 v -9 h -65.1 v 9 H 354 v 41.8 h 16.7 z m 98.2,-9 H 451.8 V 296 c 0,6.2 -4.7,9.7 -16.2,9.7 -7.8,0 -14.3,-3.1 -14.3,-10.2 v -33 h -17.1 v 33.7 c 0.2,5.1 1.9,9.2 6.2,12.3 7.1,5 18.1,6.2 25.4,6.2 20.2,0 32.9,-5.7 32.9,-19.1 v -33 z m 16.4,50.8 h 16.4 V 293.5 H 519 c 12.4,0 13,2.7 13,9.6 0,5.2 0.7,7.9 1.8,10.2 h 18.5 V 312 c -3.6,-0.9 -3.6,-2.7 -3.6,-10.1 0,-9.5 -3.6,-11 -10.1,-12.9 7.9,-1.7 12.4,-6.5 12.4,-12.1 0,-4.4 -3.9,-14.4 -25.2,-14.4 H 485.3 Z M 501.7,285 v -13.6 h 20.9 c 9.8,0 11.7,4 11.7,6.6 0,5 -4.2,6.9 -12.9,6.9 h -19.7 z m 123,-22.4 h -58.9 v 50.8 H 626 v -9 h -43.8 v -13.1 h 39.1 v -9 h -39.1 v -10.7 h 42.5 z"
           id="path4056" />
        <g
           id="g4259">
          <path
             class="st2"
             d="M 161.9,257.3 H 28.8 26 v 2.7 133.1 2.7 h 2.7 133.1 2.7 V 393.1 260 257.3 Z m 0,135.8 H 28.8 V 260 h 133.1 z"
             id="path4060" />
          <path
             class="st0"
             d="M 159.3,389.3 V 266.8 262.6 H 109.5 31.3 v 87.2 13.8 27 h 128 z m -1.1,0.2 h -10.7 l 10.7,-10.8 z m 0,-12.8 -12.6,12.7 H 134 L 158.2,365 Z m 0,-13.6 -26.1,26.3 h -11.6 l 37.7,-38 z m 0,-13.6 -39.6,40 H 107 l 51.2,-51.6 z m 0,-13.6 -53.1,53.6 H 93.5 l 64.7,-65.2 z m 0,-54.4 -39.9,40.3 0.8,0.8 0.2,0.2 39,-39.3 v 11.7 l -34.8,35 v 0.2 1.5 0.2 l 34.8,-35 v 11.7 l -34.8,35 v 0.4 1.5 l 34.8,-35 v 11.7 L 91.7,389.6 H 80 l 32.5,-32.8 H 111 110.6 L 78.1,389.6 H 75.9 70 v -3.6 -0.1 -1.5 -0.4 -11.7 -0.3 -1.6 -11.7 -1.9 0 -5.9 h 5.8 1.9 11.6 1.6 0.3 11.6 0.2 1.5 0.1 v 0 h 11.6 0.4 0.6 v -0.6 -0.4 0 -11.7 -0.2 -1.5 -0.2 -11.7 0 -0.4 -1.6 0 -1.8 h -9.8 L 158,269.7 v 11.8 z m -34.4,-17.8 h 11.6 l -12,12.1 v 1.9 l 13.9,-14 h 11.6 l -25.5,25.7 v 1.9 l 27.4,-27.7 h 7.4 v 4.2 l -52.6,53 H 94.1 l 21.7,-21.9 h -1.9 L 92.2,320.8 H 80.6 l 21.7,-21.9 h -1.9 L 78.7,320.8 H 70 v -2.9 -1.9 -11.7 0 -1.9 -9.2 h 9.1 v 0 H 81 92.6 v 0 h 1.9 11.6 v 0 h 1.9 9.4 v -9.5 -1.9 0 -11.7 -1.9 -3.7 -0.8 h 6 z"
             id="path4062"
             sodipodi:insensitive="true" />
          <path
             class="st0"
             d="m 88.8,299 -13,13.1 v -1.9 L 86.9,299 Z m -3.6,57.7 h -1.6 l -7.7,7.8 v 1.6 0.3 l 9.7,-9.7 z m 13.7,0 H 97.4 97.2 L 76,378.1 v 0.3 1.5 0.1 l 23,-23.3 z"
             id="path4064" />
          <polygon
             class="st2"
             points="75.9,366.1 75.9,356.7 85.2,356.7 86.7,356.7 97.3,356.7 98.9,356.7 109.5,356.7 111,356.7 121.6,356.7 123.2,356.7 123.5,356.7 123.5,356.4 123.5,354.9 123.5,344.2 123.5,342.6 123.5,331.9 123.5,330.3 123.5,326.9 119.8,323.3 119.1,322.5 117.4,320.8 117.4,324.2 117.4,325.8 117.4,336.5 117.4,338 117.4,348.7 117.4,350.3 117.4,350.9 116.7,350.9 115.2,350.9 104.6,350.9 103.1,350.9 92.4,350.9 90.9,350.9 80.3,350.9 78.8,350.9 70,350.9 70,359.8 70,361.3 70,372 70,373.6 70,384.3 70,385.9 70,389.5 75.9,389.5 75.9,379.9 75.9,378.4 75.9,367.7 "
             id="polygon4066" />
          <polygon
             class="st2"
             points="75.8,318.7 75.8,317.2 75.8,306.5 75.8,304.9 75.8,299 81.7,299 83.2,299 93.8,299 95.4,299 106,299 107.5,299 118.1,299 119.7,299 123.4,299 123.4,295.2 123.4,293.7 123.4,283 123.4,281.4 123.4,270.7 123.4,269.1 123.4,263.7 117.4,263.7 117.4,264.5 117.4,275.2 117.4,276.8 117.4,287.5 117.4,289 117.4,293.2 113.2,293.2 111.7,293.2 101.1,293.2 99.5,293.2 88.9,293.2 87.4,293.2 70,293.2 70,310.8 70,312.3 70,320.9 72.1,320.9 73.7,320.9 75.8,320.9 "
             id="polygon4068" />
        </g>
      </g>
      <g
         style="isolation:isolate"
         id="g42"
         transform="matrix(0.05869731,0,0,0.05869731,23.64794,2.5490765)">
        <g
           clip-path="url(#_clipPath_54YrGfEr6ejH1v37yrWMlYAZN0XkJKpK)"
           id="g31">
          <path
             d="m 116.482,9.092 c -1.662,0 -3.031,1.271 -3.031,2.835 V 28.645 H 92.92 L 90.378,24.05 85.979,16.425 V 3.422 c 0,-1.564 -1.369,-2.835 -3.031,-2.835 h -14.86 c -1.662,0 -3.031,1.271 -3.031,2.835 V 28.743 H 62.222 L 55.281,16.522 v -13.1 c 0,-1.564 -1.369,-2.835 -3.031,-2.835 H 37.39 c -1.662,0 -3.031,1.271 -3.031,2.835 V 28.743 H 29.666 L 23.116,2.737 C 22.822,1.466 21.552,0.587 20.183,0.587 h -8.115 c -1.368,0 -2.542,0.879 -2.933,2.15 L 1.998,31.383 c -0.391,1.564 0.587,3.128 2.249,3.421 0.098,0 0.196,0 0.293,0 0.098,0 0.294,0 0.391,0 0.196,0 0.391,0 0.489,0 1.173,-0.195 2.151,-0.977 2.444,-2.15 L 14.512,6.159 h 3.422 l 6.453,26.104 c 0.293,1.271 1.564,2.248 2.933,2.248 h 10.07 c 1.662,0 3.03,-1.271 3.03,-2.835 V 6.257 h 8.995 v 10.95 c 0,0.489 0.097,0.977 0.391,1.368 l 8.114,14.372 c 0.489,0.88 1.564,1.466 2.64,1.466 h 7.626 c 1.662,0 3.03,-1.271 3.03,-2.835 V 6.257 h 8.995 v 10.95 c 0,0.489 0.098,0.977 0.391,1.368 l 8.114,14.372 c 0.391,0.684 1.076,1.173 1.858,1.369 0.293,0.097 0.489,0.097 0.782,0.097 h 25.321 c 1.662,0 3.031,-1.271 3.031,-2.835 V 12.025 c -0.196,-1.662 -1.564,-2.933 -3.226,-2.933 z"
             fill="#000000"
             id="path27" />
          <path
             d="m 169.079,0.098 c -1.662,-0.294 -3.226,0.684 -3.519,2.248 l -5.377,26.397 h -1.564 L 153.437,2.835 c -0.293,-1.369 -1.466,-2.346 -2.933,-2.346 h -5.67 c -1.467,0 -2.64,0.977 -2.933,2.346 l -5.28,25.81 h -1.564 l -5.279,-25.81 c -0.294,-1.369 -1.467,-2.346 -2.933,-2.346 h -2.444 -26.104 c -1.662,0 -3.03,1.271 -3.03,2.835 v 19.553 c 0,1.564 1.368,2.835 3.03,2.835 1.662,0 3.031,-1.271 3.031,-2.835 V 6.257 h 23.073 v 0.098 l 5.181,25.81 c 0.294,1.369 1.467,2.346 2.933,2.346 h 6.55 c 1.467,0 2.64,-0.977 2.933,-2.346 l 5.28,-25.81 h 0.782 l 5.279,25.81 c 0.294,1.369 1.467,2.346 2.933,2.346 h 6.55 c 1.467,0 2.64,-0.977 2.933,-2.346 l 5.28,-26.788 V 1.369 c -0.391,-0.685 -1.076,-1.173 -1.956,-1.271 z"
             fill="#000000"
             id="path29" />
        </g>
      </g>
    </g>
  </g>
  <style
     type="text/css"
     id="style126">
	.st0{fill:#00A05D;}
	.st1{fill:#FFFFFF;}
	.st2{fill:#007F43;}
</style>
  <style
     type="text/css"
     id="style4052">
	.st0{fill:#00A05D;}
	.st1{fill:#FFFFFF;}
	.st2{fill:#007F43;}
</style>
</svg>
