<?xml version="1.0" encoding="UTF-8" standalone="no"?>
<!-- Created with Inkscape (http://www.inkscape.org/) -->

<svg
   width="259"
   height="60"
   viewBox="0 0 68.527082 15.875"
   version="1.1"
   id="svg5"
   inkscape:version="1.1 (c68e22c387, 2021-05-23)"
   sodipodi:docname="2.svg"
   xmlns:inkscape="http://www.inkscape.org/namespaces/inkscape"
   xmlns:sodipodi="http://sodipodi.sourceforge.net/DTD/sodipodi-0.dtd"
   xmlns="http://www.w3.org/2000/svg"
   xmlns:svg="http://www.w3.org/2000/svg">
  <sodipodi:namedview
     id="namedview7"
     pagecolor="#505050"
     bordercolor="#eeeeee"
     borderopacity="1"
     inkscape:pageshadow="0"
     inkscape:pageopacity="0"
     inkscape:pagecheckerboard="0"
     inkscape:document-units="mm"
     showgrid="false"
     units="px"
     width="259px"
     inkscape:zoom="1.5144501"
     inkscape:cx="217.57072"
     inkscape:cy="80.887446"
     inkscape:window-width="1920"
     inkscape:window-height="1013"
     inkscape:window-x="-9"
     inkscape:window-y="-9"
     inkscape:window-maximized="1"
     inkscape:current-layer="layer1" />
  <defs
     id="defs2">
	
	
	
	
	
	
	
	
	
	
	
	
	
	
	
	
	
	
	
	
	
	
	
	
	
	
	
	
	
	
	
	
	
	
	
	
</defs>
  <g
     inkscape:label="Camada 1"
     inkscape:groupmode="layer"
     id="layer1">
    <rect
       style="fill:#f9f9f9;stroke:none;stroke-width:1.1611;stroke-linecap:round;stroke-linejoin:round;paint-order:stroke markers fill"
       id="rect31"
       width="68.527084"
       height="15.875"
       x="-5.0862633e-07"
       y="-1.7763568e-15"
       ry="0.74232328" />
    <g
       id="g703"
       transform="matrix(0.86113473,0,0,0.86113473,4.4753727,1.1130832)">
      <polygon
         class="st0"
         points="99.4,203.6 99.4,291.9 150.2,291.9 150.2,313.1 71.1,313.1 71.1,203.6 "
         id="polygon418"
         transform="matrix(0.07708312,0,0,0.07708312,9.8690567,-13.666569)" />
      <path
         class="st0"
         d="m 25.956304,9.7898244 c -0.254374,0.2158326 -0.531874,0.4085406 -0.770831,0.5318736 -0.238958,0.123333 -0.439374,0.192708 -0.655207,0.238958 -0.208124,0.04625 -0.431665,0.08479 -0.655206,0.08479 -0.223541,0 -0.439374,-0.02313 -0.647499,-0.06938 -0.200416,-0.04625 -0.385415,-0.107916 -0.54729,-0.184999 C 22.518397,10.31399 22.379647,10.213782 22.256314,10.105865 22.132981,9.9979488 22.025065,9.8669075 21.940273,9.7281579 21.755274,9.4352421 21.655066,9.0575348 21.631941,8.6952441 c -0.0077,-0.1927078 0,-0.3777073 0.03854,-0.5472901 0.03083,-0.1695829 0.08479,-0.3314575 0.161875,-0.4702071 0.07708,-0.1464579 0.169583,-0.2774992 0.285207,-0.4008322 0.115625,-0.123333 0.254375,-0.2312494 0.423958,-0.3391657 0.169582,-0.1002081 0.369999,-0.2004161 0.624373,-0.2852076 0.246666,-0.084791 0.54729,-0.1541662 1.017497,-0.223541 0.470207,-0.069375 1.125414,-0.1310413 1.78062,-0.1618746 0,-0.1079163 -0.0077,-0.2312493 -0.03854,-0.3314574 -0.02313,-0.0925 -0.06167,-0.1695828 -0.115625,-0.2312493 -0.04625,-0.069375 -0.115625,-0.123333 -0.192708,-0.1772912 -0.08479,-0.053958 -0.184999,-0.1002081 -0.323749,-0.1387496 -0.292916,-0.084792 -0.763123,-0.1310413 -1.18708,-0.1079164 -0.215833,0.00771 -0.416249,0.038542 -0.701456,0.1156247 -0.285208,0.077083 -0.655207,0.1927078 -1.017498,0.3314574 H 22.202356 V 4.2012982 c 0.585832,-0.1464579 1.18708,-0.2389577 1.73437,-0.2852075 0.54729,-0.04625 1.048331,-0.038542 1.479996,0 0.431665,0.038542 0.801664,0.100208 1.09458,0.1772911 0.292916,0.084791 0.508749,0.1849995 0.68604,0.3083325 0.185,0.123333 0.331457,0.2620826 0.447082,0.4239572 0.115625,0.1618745 0.200416,0.3391657 0.262083,0.5549985 0.06167,0.2158327 0.0925,0.470207 0.0925,0.7245813 V 10.460448 H 25.948596 V 9.7898244 m 0.0077,-0.9789556 v -1.333538 c -0.377707,0.030833 -0.755415,0.077083 -1.017497,0.1079164 -0.262083,0.038542 -0.416249,0.069375 -0.531874,0.100208 -0.115625,0.030833 -0.208124,0.069375 -0.277499,0.1002081 -0.07708,0.038542 -0.13875,0.077083 -0.185,0.1156247 -0.123333,0.100208 -0.169582,0.1772912 -0.208124,0.2774992 -0.03854,0.1156247 -0.06167,0.2774992 -0.04625,0.4316655 0.0077,0.077083 0.01542,0.1464579 0.03083,0.2004161 0.03083,0.0925 0.07708,0.1618745 0.169583,0.2389577 0.06938,0.069375 0.161875,0.1156246 0.269791,0.1541662 0.339166,0.1002081 0.909581,0.123333 1.379788,-0.1156247 0.13875,-0.077083 0.285208,-0.1695828 0.416249,-0.2774992"
         id="path420"
         style="stroke-width:0.0770831" />
      <rect
         x="29.347961"
         y="4.0933814"
         class="st0"
         width="2.050411"
         height="6.374774"
         id="rect422"
         style="stroke-width:0.0770831" />
      <rect
         x="29.278587"
         y="1.6421391"
         class="st0"
         width="2.1814523"
         height="1.5416625"
         id="rect424"
         style="stroke-width:0.0770831" />
      <path
         class="st0"
         d="M 37.426272,6.0667097 H 37.241273 C 36.84044,6.0127515 36.439608,5.9587934 36.038776,5.9819183 35.637944,6.0050432 35.237111,6.1129596 34.828571,6.220876 v 4.24728 H 32.77816 V 4.0933818 h 2.050411 v 0.9327058 c 0.423957,-0.369999 0.863331,-0.6552065 1.271871,-0.7862478 0.208125,-0.069375 0.423958,-0.1079164 0.59354,-0.1310413 0.169583,-0.023125 0.292916,-0.015417 0.377708,-0.015417 0.08479,0 0.115624,0 0.169583,0.00771 0.05396,0 0.115624,0.00771 0.184999,0.015417 v 1.9502029"
         id="path426"
         style="stroke-width:0.0770831" />
      <path
         class="st0"
         d="M 44.232712,10.468156 H 42.182301 V 9.805241 c -0.2775,0.238958 -0.585832,0.439374 -0.87104,0.585832 -0.554998,0.292916 -1.056038,0.331457 -1.587912,0.238957 C 39.453558,10.58378 39.191476,10.498989 38.967934,10.383364 38.744393,10.26774 38.551686,10.121282 38.382103,9.928574 38.21252,9.7435745 38.058354,9.5123252 37.935021,9.234826 37.811688,8.9573267 37.71148,8.6258693 37.649813,8.248162 c -0.06167,-0.3777073 -0.0925,-0.7939561 -0.07708,-1.1716634 0.01542,-0.3777073 0.07708,-0.7091647 0.185,-1.0252055 0.100208,-0.3160408 0.238957,-0.6012483 0.400832,-0.8556226 0.161874,-0.2543743 0.354582,-0.4702071 0.570415,-0.6474982 0.215833,-0.1772912 0.462499,-0.3237491 0.724581,-0.4239572 0.262083,-0.1079164 0.54729,-0.1695829 0.840206,-0.2004161 0.292916,-0.030833 0.59354,-0.015417 0.909581,0.053958 0.323749,0.069375 0.662915,0.2004161 0.978956,0.3699989 v -2.697909 h 2.050411 V 10.468156 M 42.190009,8.741494 V 5.5810861 C 41.897093,5.4654614 41.573344,5.4037949 41.249595,5.4115032 c -0.169583,0.00771 -0.339166,0.038542 -0.477915,0.077083 -0.146458,0.038542 -0.262083,0.084792 -0.362291,0.1464579 -0.100208,0.061666 -0.192708,0.1310414 -0.269791,0.2235411 -0.07708,0.0925 -0.154166,0.1927078 -0.215833,0.3237491 -0.06167,0.123333 -0.115624,0.2697909 -0.154166,0.4470821 -0.03854,0.1695829 -0.06938,0.369999 -0.07708,0.5858317 -0.0077,0.2081244 0,0.4316655 0.02313,0.6243733 0.02313,0.1927078 0.06167,0.3622906 0.107916,0.5010403 0.04625,0.1387496 0.107916,0.2466659 0.169583,0.3391657 0.06167,0.0925 0.13875,0.1618745 0.215833,0.223541 0.177291,0.1310413 0.439374,0.2004161 0.693748,0.2235411 0.269791,0.030833 0.570415,-0.023125 0.878747,-0.1541663 0.146458,-0.061666 0.2775,-0.1387496 0.408541,-0.2312493"
         id="path428"
         style="stroke-width:0.0770831" />
      <path
         class="st1"
         d="m 51.987273,9.1731595 c 0.03083,0.3237491 -0.07708,0.6397899 -0.385415,0.9635385 -0.300624,0.32375 -0.793956,0.662915 -1.626454,1.002081 -0.824789,0.339166 -1.996453,0.678331 -3.646032,1.002081 -1.649578,0.323749 -3.777072,0.624373 -6.274566,0.871039 -2.497493,0.246666 -5.357276,0.431665 -8.563934,0.516457 -3.206658,0.08479 -6.767898,0.06937 -9.388724,0.01542 -2.620826,-0.06167 -4.308947,-0.161874 -5.927692,-0.277499 -1.618746,-0.115625 -3.168116,-0.238958 -4.709779,-0.393124 l 0.524165,0.339166 c 0.894165,0.131041 1.788329,0.231249 3.414783,0.385416 1.634162,0.146457 4.000614,0.346874 6.891231,0.470207 2.898325,0.123333 6.320815,0.177291 9.735598,0.131041 3.414782,-0.04625 6.814148,-0.192708 9.858931,-0.431666 3.044783,-0.238957 5.734984,-0.570415 7.85477,-0.917289 2.119785,-0.346874 3.661448,-0.709164 4.802278,-1.040622 1.133122,-0.331457 1.865412,-0.63979 2.343327,-0.924997 0.477915,-0.285208 0.709165,-0.562707 0.793956,-0.847915 0.08479,-0.2852071 0.02313,-0.5858313 -0.262083,-0.8941638 C 57.128718,8.8339937 56.612261,8.5102446 55.694972,8.1710789 54.777682,7.8319132 53.474978,7.4696225 52.041232,7.1767066 50.607486,6.8760825 49.058115,6.6448331 47.84791,6.4983752 46.645413,6.344209 45.797499,6.2825425 44.941876,6.2517092 c 0.524166,0.053958 1.048331,0.1464579 1.880828,0.3391657 0.832498,0.1927078 1.973328,0.4779154 2.813534,0.7631229 0.847915,0.2852076 1.395205,0.5549985 1.765204,0.863331 0.369999,0.2929158 0.54729,0.6320816 0.585831,0.9558307"
         id="path430"
         style="stroke-width:0.0770831" />
      <polygon
         class="st0"
         points="450.9,198.5 458,198.5 458,199.6 455.1,199.6 455.1,207.5 453.9,207.5 453.9,199.6 450.9,199.6 "
         id="polygon432"
         transform="matrix(0.07708312,0,0,0.07708312,9.8690567,-13.666569)" />
      <path
         class="st0"
         d="M 45.265625,2.3281784 V 1.6344303 h 0.13875 l 0.161875,0.493332 c 0.01542,0.04625 0.02313,0.077083 0.03083,0.100208 0.0077,-0.023125 0.02313,-0.061666 0.03854,-0.1079163 l 0.169583,-0.4856237 h 0.123333 v 0.6937481 h -0.0925 V 1.750055 L 45.63562,2.3358867 h -0.07708 l -0.200416,-0.59354 v 0.59354 h -0.0925 z"
         id="path434"
         style="stroke-width:0.0770831" />
    </g>
  </g>
  <style
     type="text/css"
     id="style416">
	.st0{fill:#010F42;}
	.st1{fill:#1099D7;}
</style>
</svg>
