<?xml version="1.0" encoding="UTF-8" standalone="no"?>
<!-- Created with Inkscape (http://www.inkscape.org/) -->

<svg
   width="259"
   height="35"
   viewBox="0 0 68.527082 9.2604167"
   version="1.1"
   id="svg5"
   inkscape:version="1.1 (c68e22c387, 2021-05-23)"
   sodipodi:docname="2_distributor.svg"
   xmlns:inkscape="http://www.inkscape.org/namespaces/inkscape"
   xmlns:sodipodi="http://sodipodi.sourceforge.net/DTD/sodipodi-0.dtd"
   xmlns="http://www.w3.org/2000/svg"
   xmlns:svg="http://www.w3.org/2000/svg">
  <sodipodi:namedview
     id="namedview7"
     pagecolor="#505050"
     bordercolor="#eeeeee"
     borderopacity="1"
     inkscape:pageshadow="0"
     inkscape:pageopacity="0"
     inkscape:pagecheckerboard="0"
     inkscape:document-units="mm"
     showgrid="false"
     units="px"
     width="259px"
     inkscape:zoom="2.1417559"
     inkscape:cx="176.72415"
     inkscape:cy="62.79894"
     inkscape:window-width="1920"
     inkscape:window-height="1013"
     inkscape:window-x="-9"
     inkscape:window-y="-9"
     inkscape:window-maximized="1"
     inkscape:current-layer="layer1" />
  <defs
     id="defs2">
    <clipPath
       id="_clipPath_54YrGfEr6ejH1v37yrWMlYAZN0XkJKpK">
      <rect
         width="174"
         height="35"
         id="rect22"
         x="0"
         y="0" />
    </clipPath>
  </defs>
  <g
     inkscape:label="Camada 1"
     inkscape:groupmode="layer"
     id="layer1">
    <rect
       style="fill:#f9f9f9;stroke:none;stroke-width:0.886805;stroke-linecap:round;stroke-linejoin:round;paint-order:stroke markers fill"
       id="rect31"
       width="68.527084"
       height="9.260417"
       x="-5.0862633e-07"
       y="-1.5894572e-07"
       ry="0" />
    <g
       style="clip-rule:evenodd;fill-rule:evenodd;stroke-linejoin:round;stroke-miterlimit:1.41421"
       id="g101"
       transform="matrix(0.06162201,0,0,0.06162201,27.485121,2.5413047)">
      <g
         id="g84">
        <path
           d="M 30.49,38.19 H 15.63 l -1.58,4.87 h 18.02 z"
           style="fill:#41c363;fill-rule:nonzero"
           id="path68" />
        <path
           d="m 24.32,1.63 h 7.13 l 12.67,39 h -7.13 z"
           style="fill-rule:nonzero"
           id="path70" />
        <path
           d="M 21.8,1.63 H 14.67 L 2,40.63 h 7.13 z"
           style="fill-rule:nonzero"
           id="path72" />
        <path
           d="M 208.75,1.63 H 181.2 v 5.73 h 10.56 v 33.27 h 6.43 V 7.36 h 10.56 z"
           style="fill-rule:nonzero"
           id="path74" />
        <path
           d="m 142.65,1.63 v 39 h 25.04 V 34.9 h -18.6 V 23.81 h 15.94 V 18.09 H 149.09 V 7.36 h 18.6 V 1.63 Z"
           style="fill-rule:nonzero"
           id="path76" />
        <path
           d="M 75.78,1.63 66.66,30.78 57.55,1.64 57.54,1.63 h -7.13 l 12.67,39 h 7.16 l 12.67,-39 z"
           style="fill-rule:nonzero"
           id="path78" />
        <path
           d="m 101.77,1.63 h -5.49 v 39 h 6.44 V 14.56 l 17.58,26.07 h 5.49 v -39 h -6.43 V 27.7 Z"
           style="fill-rule:nonzero"
           id="path80" />
        <path
           d="m 215.14,7.35 c -1.58,0 -2.86,-1.28 -2.86,-2.86 0,-1.58 1.28,-2.86 2.86,-2.86 1.58,0 2.86,1.28 2.86,2.86 0,0.759 -0.301,1.486 -0.838,2.022 -0.536,0.537 -1.263,0.838 -2.022,0.838 z m 0,-5.19 c -0.614,0 -1.203,0.247 -1.634,0.685 -0.43,0.438 -0.667,1.031 -0.656,1.645 -0.056,0.852 0.366,1.665 1.097,2.109 0.73,0.443 1.646,0.443 2.376,0 0.731,-0.444 1.153,-1.257 1.097,-2.109 0.013,-0.613 -0.221,-1.206 -0.65,-1.645 -0.429,-0.438 -1.017,-0.685 -1.63,-0.685 z m 0.6,3.87 -0.63,-1.22 h -0.4 V 6 h -0.57 V 2.94 h 1.16 c 0.533,-10e-4 0.973,0.417 1,0.95 0.008,0.385 -0.242,0.728 -0.61,0.84 l 0.69,1.3 z m -0.51,-2.61 h -0.52 v 0.93 h 0.52 c 0.182,0.027 0.364,-0.055 0.463,-0.21 0.1,-0.155 0.1,-0.355 0,-0.51 -0.099,-0.155 -0.281,-0.237 -0.463,-0.21 z"
           style="fill-rule:nonzero"
           id="path82" />
      </g>
    </g>
  </g>
</svg>
