<?xml version="1.0" encoding="UTF-8" standalone="no"?>
<!-- Created with Inkscape (http://www.inkscape.org/) -->

<svg
   width="259"
   height="60"
   viewBox="0 0 68.527082 15.875"
   version="1.1"
   id="svg5"
   inkscape:version="1.1 (c68e22c387, 2021-05-23)"
   sodipodi:docname="3.svg"
   xmlns:inkscape="http://www.inkscape.org/namespaces/inkscape"
   xmlns:sodipodi="http://sodipodi.sourceforge.net/DTD/sodipodi-0.dtd"
   xmlns="http://www.w3.org/2000/svg"
   xmlns:svg="http://www.w3.org/2000/svg">
  <sodipodi:namedview
     id="namedview7"
     pagecolor="#505050"
     bordercolor="#eeeeee"
     borderopacity="1"
     inkscape:pageshadow="0"
     inkscape:pageopacity="0"
     inkscape:pagecheckerboard="0"
     inkscape:document-units="mm"
     showgrid="false"
     units="px"
     width="259px"
     inkscape:zoom="1.5144501"
     inkscape:cx="217.57072"
     inkscape:cy="80.887446"
     inkscape:window-width="1920"
     inkscape:window-height="1013"
     inkscape:window-x="-9"
     inkscape:window-y="-9"
     inkscape:window-maximized="1"
     inkscape:current-layer="layer1" />
  <defs
     id="defs2">
    <clipPath
       id="clipPath4200"
       clipPathUnits="userSpaceOnUse">
      <path
         id="path4202"
         d="m 46.636,45.958 140.564,0 0,41.043 -140.564,0 0,-41.043 z" />
    </clipPath>
  </defs>
  <g
     inkscape:label="Camada 1"
     inkscape:groupmode="layer"
     id="layer1">
    <rect
       style="fill:#f9f9f9;stroke:none;stroke-width:1.1611;stroke-linecap:round;stroke-linejoin:round;paint-order:stroke markers fill"
       id="rect31"
       width="68.527084"
       height="15.875"
       x="-5.0862633e-07"
       y="-1.7763568e-15"
       ry="0.74232328" />
    <g
       transform="matrix(0.05779884,0,0,0.05779884,14.920324,-18.547852)"
       id="layer1-8">
      <path
         id="path4208"
         style="fill:#1c4eff;fill-opacity:1;fill-rule:nonzero;stroke:none"
         d="m 492.64317,421.15757 v 14.51077 c 0,3.64947 2.80235,6.6354 6.22605,6.6354 h 62.82594 c 8.2398,0 15.70021,3.56569 21.09334,9.32141 5.07868,5.42059 8.34183,12.79578 8.7031,20.97694 0.0234,0.51189 0.0393,1.02379 0.0393,1.54407 v 27.18589 c 0,17.61149 -13.38876,31.90107 -29.89095,31.90107 H 361.28876 v -34.93894 h 179.1943 c 3.42454,0 6.22605,-2.98593 6.22605,-6.6354 v -10.86716 c 0,-3.65534 -2.80569,-6.64546 -6.23609,-6.64546 h -62.0022 c -16.36086,0 -29.74961,-14.28959 -29.74961,-31.75026 v -27.40373 c 0,-17.46905 13.38875,-31.75864 29.74961,-31.75864 h 83.92345 c 15.62997,0 27.46324,12.69358 27.46324,28.35129 v 2.93735 h -90.98829 c -3.42371,0 -6.22606,2.98593 -6.22606,6.6354" />
      <path
         id="path4214"
         style="fill:#1c4eff;fill-opacity:1;fill-rule:nonzero;stroke:none"
         d="M 284.62117,411.82754 V 533.15831 H 238.48225 V 424.40298 H 204.06372 V 533.15831 H 157.93318 V 424.40298 H 122.29536 V 533.15831 H 77.798049 V 415.18127 c 0,-15.72558 12.491426,-31.94798 27.755941,-31.94798 h 151.3104 c 15.26451,0 27.75678,12.86867 27.75678,28.59425" />
      <path
         id="path4220"
         style="fill:#1c4eff;fill-opacity:1;fill-rule:nonzero;stroke:none"
         d="m 392.97628,435.84696 c 0,3.64948 -2.97964,6.63541 -6.62329,6.63541 h -42.72525 v -4.38339 -23.40238 h 42.72525 c 3.64365,0 6.62329,2.98593 6.62329,6.63541 z m 20.60328,-52.61325 h -96.74854 c -10.5312,0 -19.06789,8.55231 -19.06789,19.10193 v 35.76334 34.68593 60.44838 h 45.86461 v -59.10706 h 69.95182 c 17.55172,0 24.3799,-14.40856 24.3799,-32.0192 v -26.85497 c 0,-17.60979 -6.82818,-32.01835 -24.3799,-32.01835" />
    </g>
  </g>
</svg>
