<?xml version="1.0" encoding="UTF-8" standalone="no"?>
<!-- Created with Inkscape (http://www.inkscape.org/) -->

<svg
   width="259"
   height="35"
   viewBox="0 0 68.527082 9.2604167"
   version="1.1"
   id="svg5"
   inkscape:version="1.1 (c68e22c387, 2021-05-23)"
   sodipodi:docname="3_distributor.svg"
   xmlns:inkscape="http://www.inkscape.org/namespaces/inkscape"
   xmlns:sodipodi="http://sodipodi.sourceforge.net/DTD/sodipodi-0.dtd"
   xmlns="http://www.w3.org/2000/svg"
   xmlns:svg="http://www.w3.org/2000/svg">
  <sodipodi:namedview
     id="namedview7"
     pagecolor="#505050"
     bordercolor="#eeeeee"
     borderopacity="1"
     inkscape:pageshadow="0"
     inkscape:pageopacity="0"
     inkscape:pagecheckerboard="0"
     inkscape:document-units="mm"
     showgrid="false"
     units="px"
     width="259px"
     inkscape:zoom="4.2835118"
     inkscape:cx="165.86857"
     inkscape:cy="25.096231"
     inkscape:window-width="1920"
     inkscape:window-height="1013"
     inkscape:window-x="-9"
     inkscape:window-y="-9"
     inkscape:window-maximized="1"
     inkscape:current-layer="layer1"
     showguides="true"
     inkscape:guide-bbox="true">
    <sodipodi:guide
       position="32.268014,6.6200429"
       orientation="0,-1"
       id="guide18018" />
    <sodipodi:guide
       position="33.718233,4.1939463"
       orientation="0,-1"
       id="guide18020" />
  </sodipodi:namedview>
  <defs
     id="defs2">
    <clipPath
       id="_clipPath_54YrGfEr6ejH1v37yrWMlYAZN0XkJKpK">
      <rect
         width="174"
         height="35"
         id="rect22"
         x="0"
         y="0" />
    </clipPath>
  </defs>
  <g
     inkscape:label="Camada 1"
     inkscape:groupmode="layer"
     id="layer1">
    <rect
       style="fill:#f9f9f9;stroke:none;stroke-width:0.886805;stroke-linecap:round;stroke-linejoin:round;paint-order:stroke markers fill"
       id="rect31"
       width="68.527084"
       height="9.260417"
       x="-5.0862633e-07"
       y="-1.5894572e-07"
       ry="0" />
    <g
       id="g18573"
       transform="translate(-0.58500472)">
      <g
         id="g34621"
         transform="matrix(1.2406721,0,0,1.2406721,-15.001237,-0.61190419)">
        <g
           id="g11636">
          <rect
             x="26.16147"
             y="3.6597912"
             class="st0"
             width="6.5112138"
             height="0.12330157"
             id="rect4054"
             style="stroke-width:0.0148556" />
          <path
             d="m 26.162957,4.0356381 h 0.493206 v 0.09359 H 26.30557 v 0.1010181 h 0.332766 v 0.089134 H 26.30557 v 0.1114171 h 0.353564 v 0.09359 h -0.496177 z m 0.589767,0.487264 h 0.464981 V 4.424855 H 26.895338 V 4.0341525 h -0.144099 v 0.4887496 z m 0.549658,0 h 0.496177 v -0.09359 H 27.444996 V 4.3178946 h 0.332765 V 4.228761 H 27.444996 V 4.1277428 h 0.350592 v -0.09359 h -0.493206 z m 1.19142,-0.3030545 C 28.473004,4.0519792 28.309592,4.022268 28.18332,4.022268 c -0.191638,0 -0.311968,0.075764 -0.311968,0.2570021 0,0.1812384 0.12033,0.257002 0.311968,0.257002 0.167868,0 0.294141,-0.059422 0.311967,-0.2005507 h -0.155984 c -0.01337,0.077249 -0.0817,0.1084459 -0.151527,0.1084459 -0.136671,0 -0.164897,-0.098047 -0.164897,-0.1648972 0,-0.06685 0.02823,-0.1648973 0.164897,-0.1648973 0.07428,0 0.138157,0.034168 0.151527,0.1054748 z m 0.230262,0.3030545 h 0.144099 V 4.1277428 h 0.196094 V 4.0356381 H 28.52797 v 0.092105 h 0.196094 z m 0.404072,0 h 0.1441 V 4.3446347 h 0.178267 c 0.04457,0 0.07576,0.017827 0.07576,0.084677 0,0.050509 0,0.071307 0.01337,0.09359 h 0.157469 c -0.02525,-0.025255 -0.02674,-0.081706 -0.02674,-0.1054749 0,-0.047538 -0.0089,-0.121816 -0.07279,-0.1307293 v -0.00149 c 0.05942,-0.019312 0.08616,-0.057937 0.08616,-0.1173593 0,-0.050509 -0.02377,-0.1322149 -0.170839,-0.1322149 h -0.384761 z m 0.1441,-0.3951593 h 0.182724 c 0.03417,0 0.07576,0.011884 0.07576,0.060908 0,0.046052 -0.03714,0.062394 -0.06833,0.062394 h -0.190152 z m 0.800717,-0.1069604 c -0.283742,0 -0.328309,0.155984 -0.328309,0.2570021 0,0.1010181 0.04457,0.2570021 0.328309,0.2570021 0.283742,0 0.328309,-0.155984 0.328309,-0.2570021 0,-0.1010181 -0.04457,-0.2570021 -0.328309,-0.2570021 m 0,0.4218994 c -0.130729,0 -0.175296,-0.089134 -0.175296,-0.1648973 0,-0.075764 0.04605,-0.1648973 0.175296,-0.1648973 0.130729,0 0.176782,0.089134 0.176782,0.1648973 0,0.077249 -0.04605,0.1648973 -0.176782,0.1648973 m 0.86014,-0.068336 v 0 L 30.653807,4.0341525 h -0.166382 v 0.487264 h 0.139642 V 4.181223 h 0.0015 l 0.288199,0.3401935 h 0.155984 v -0.487264 h -0.139643 z m 0.255516,0.1485561 h 0.1441 v -0.487264 h -0.1441 z m 0.86014,-0.3030545 C 32.027951,4.0519792 31.86454,4.022268 31.738267,4.022268 c -0.193123,0 -0.311968,0.075764 -0.311968,0.2570021 0,0.1812384 0.120331,0.257002 0.311968,0.257002 0.167868,0 0.294141,-0.059422 0.311968,-0.2005507 h -0.155984 c -0.01486,0.077249 -0.08171,0.1084459 -0.151527,0.1084459 -0.136672,0 -0.164898,-0.098047 -0.164898,-0.1648972 0,-0.06685 0.02823,-0.1648973 0.164898,-0.1648973 0.07428,0 0.138157,0.034168 0.151527,0.1054748 z m 0.601652,-0.043081 C 32.641488,4.0386092 32.479562,4.022268 32.371116,4.022268 c -0.164897,0 -0.261459,0.044567 -0.261459,0.1530128 0,0.099533 0.08913,0.1247871 0.179753,0.1381572 l 0.130729,0.017827 c 0.05645,0.00743 0.08913,0.017827 0.08913,0.056451 0,0.041596 -0.04605,0.060908 -0.112902,0.060908 -0.06239,0 -0.135187,-0.011884 -0.136672,-0.078735 h -0.161926 c 0.0015,0.1530128 0.169354,0.1678684 0.297112,0.1678684 0.207978,0 0.274829,-0.072793 0.274829,-0.1634117 0,-0.089134 -0.07279,-0.121816 -0.169354,-0.1366716 l -0.179753,-0.02674 c -0.03714,-0.00594 -0.06091,-0.019312 -0.06091,-0.046052 0,-0.032682 0.03862,-0.057937 0.09805,-0.057937 0.05794,0 0.123301,0.00743 0.132215,0.069821 z M 26.415502,3.0581389 h 0.522917 V 2.9244384 H 26.415502 V 2.7535989 h 0.597195 V 2.6198984 h -0.851226 v 0.754665 h 0.252545 V 3.0581389 Z M 28.131325,2.621384 h -0.254031 v 0.4961774 c 0,0.092105 -0.06982,0.1440994 -0.240661,0.1440994 -0.115874,0 -0.212435,-0.046052 -0.212435,-0.1515272 V 2.6198984 h -0.254031 v 0.5006341 c 0.003,0.075764 0.02823,0.1366716 0.09211,0.182724 0.105475,0.074278 0.268886,0.092105 0.377332,0.092105 0.300084,0 0.48875,-0.084677 0.48875,-0.2837422 V 2.621384 Z m 0.748723,0.1337005 h 0.359505 V 2.621384 h -0.9671 v 0.1337005 h 0.359506 V 3.376049 h 0.248089 z M 30.338869,2.621384 h -0.254031 v 0.4961774 c 0,0.092105 -0.06982,0.1440994 -0.240661,0.1440994 -0.115874,0 -0.212436,-0.046052 -0.212436,-0.1515272 V 2.6198984 h -0.25403 v 0.5006341 c 0.003,0.075764 0.02822,0.1366716 0.0921,0.182724 0.105475,0.074278 0.268887,0.092105 0.377333,0.092105 0.300083,0 0.488749,-0.084677 0.488749,-0.2837422 V 2.621384 Z m 0.243632,0.754665 h 0.243632 V 3.0804223 h 0.257002 c 0.184209,0 0.193123,0.04011 0.193123,0.1426139 0,0.077249 0.0104,0.1173593 0.02674,0.1515272 h 0.274828 v -0.019312 c -0.05348,-0.01337 -0.05348,-0.04011 -0.05348,-0.1500416 0,-0.1411283 -0.05348,-0.1634118 -0.150041,-0.1916374 0.117359,-0.025255 0.184209,-0.096562 0.184209,-0.1797529 0,-0.065365 -0.05794,-0.2139208 -0.374361,-0.2139208 H 30.582501 Z M 30.826133,2.9541497 V 2.7521134 h 0.310482 c 0.145585,0 0.17381,0.059422 0.17381,0.098047 0,0.074278 -0.06239,0.1025037 -0.191637,0.1025037 h -0.292655 z m 1.82724,-0.3327657 h -0.874996 v 0.754665 h 0.894308 V 3.2423485 H 32.022009 V 3.04774 h 0.580854 V 2.9140395 h -0.580854 v -0.158955 h 0.631364 z"
             id="path4056"
             style="stroke-width:0.0148556" />
          <g
             id="g11603">
            <path
               id="path4062"
               style="fill:#00b100;fill-opacity:1;stroke-width:0.0561472"
               class="st0"
               d="m 89.789062,9.609375 v 0.1523438 7.4726562 0.152344 h 0.150391 7.472656 0.152344 V 17.234375 9.7617188 9.609375 h -0.146484 -7.472657 z m 0.15625,0.1523438 h 7.472657 v 7.4726562 h -7.472657 z m 0.150391,0.1464843 v 4.8945309 0.775391 1.515625 h 7.1875 V 17.02148 10.142574 9.9081991 h -2.796875 z m 6.710938,0.054687 h 0.414062 v 0.2363289 l -2.953125,2.976562 h -0.644531 l 1.21875,-1.230469 h -0.107422 l -1.21875,1.230469 h -0.650391 l 1.21875,-1.230469 h -0.107422 l -1.21875,1.230469 H 92.269531 V 13.011719 12.90625 12.248047 12.142578 11.625 h 0.511719 0.105469 0.652343 0.105469 0.652344 0.105469 0.529297 V 11.091797 10.986328 10.328125 10.222656 10.013672 9.96875 h 0.335937 0.02344 0.65039 l -0.673828,0.679688 v 0.107421 L 96.04883,9.96875 h 0.650391 l -1.431641,1.443359 v 0.107422 z m 0.404297,0.3437509 v 0.662109 h 0.0098 l -2.240234,2.263671 0.04492,0.04492 0.01172,0.0098 2.189453,-2.205078 v 0.65625 l -1.953124,1.964844 v 0.01172 0.08398 0.01172 l 1.953124,-1.966797 v 0.658204 l -1.953124,1.964843 v 0.02148 0.08594 l 1.953124,-1.966797 v 0.658203 l -3.738281,3.773436 h -0.658203 l 1.826172,-1.841795 h -0.08398 -0.02344 l -1.824219,1.841795 h -0.123047 -0.332031 v -0.203123 -0.0059 -0.08398 -0.02148 -0.658203 -0.01563 -0.08984 -0.658204 -0.105468 -0.332032 h 0.326172 0.105469 0.652344 0.08984 0.01758 0.65039 0.01172 0.08398 0.0059 0.65039 0.02344 0.0332 v -0.0332 -0.02344 -0.65625 -0.01172 -0.08398 -0.01172 -0.65625 -0.02148 -0.08984 -0.101563 h -0.550781 z m 0.0098,3.064453 v 0.652344 l -2.980469,3.009765 h -0.65039 z m 0,0.763672 v 0.652343 l -2.222656,2.246094 h -0.650391 z m 0,0.757812 v 0.658203 l -1.464844,1.476562 h -0.65039 z m 0,0.763672 v 0.658202 l -0.707031,0.712891 h -0.650391 z m 0,0.76953 v 0.607422 h -0.599609 z"
               transform="scale(0.26458333)" />
            <path
               class="st0"
               d="m 24.689382,3.1621161 -0.193123,0.1946085 v -0.028226 l 0.164898,-0.1663828 z m -0.05348,0.8571687 h -0.02377 l -0.114388,0.1158737 v 0.023769 0.00446 l 0.144099,-0.1440994 z m 0.203522,0 h -0.02228 -0.003 l -0.314939,0.31791 v 0.00446 0.022283 0.00149 l 0.341679,-0.3461357 z"
               id="path4064"
               style="fill:#008000;fill-opacity:1;stroke-width:0.0148556" />
            <polygon
               class="st2"
               points="117.4,348.7 117.4,350.3 117.4,350.9 116.7,350.9 115.2,350.9 104.6,350.9 103.1,350.9 92.4,350.9 90.9,350.9 80.3,350.9 78.8,350.9 70,350.9 70,359.8 70,361.3 70,372 70,373.6 70,384.3 70,385.9 70,389.5 75.9,389.5 75.9,379.9 75.9,378.4 75.9,367.7 75.9,366.1 75.9,356.7 85.2,356.7 86.7,356.7 97.3,356.7 98.9,356.7 109.5,356.7 111,356.7 121.6,356.7 123.2,356.7 123.5,356.7 123.5,356.4 123.5,354.9 123.5,344.2 123.5,342.6 123.5,331.9 123.5,330.3 123.5,326.9 119.8,323.3 119.1,322.5 117.4,320.8 117.4,324.2 117.4,325.8 117.4,336.5 117.4,338 "
               id="polygon4066"
               style="fill:#008000;fill-opacity:1"
               transform="matrix(0.01485561,0,0,0.01485561,23.370204,-1.2797113)" />
            <polygon
               class="st2"
               points="117.4,287.5 117.4,289 117.4,293.2 113.2,293.2 111.7,293.2 101.1,293.2 99.5,293.2 88.9,293.2 87.4,293.2 70,293.2 70,310.8 70,312.3 70,320.9 72.1,320.9 73.7,320.9 75.8,320.9 75.8,318.7 75.8,317.2 75.8,306.5 75.8,304.9 75.8,299 81.7,299 83.2,299 93.8,299 95.4,299 106,299 107.5,299 118.1,299 119.7,299 123.4,299 123.4,295.2 123.4,293.7 123.4,283 123.4,281.4 123.4,270.7 123.4,269.1 123.4,263.7 117.4,263.7 117.4,264.5 117.4,275.2 117.4,276.8 "
               id="polygon4068"
               style="fill:#008000;fill-opacity:1"
               transform="matrix(0.01485561,0,0,0.01485561,23.370204,-1.2797113)" />
          </g>
        </g>
        <g
           style="clip-rule:evenodd;fill-rule:evenodd;stroke-linejoin:round;stroke-miterlimit:1.41421"
           id="g101"
           transform="matrix(0.0449011,0,0,0.0449011,34.978465,2.5685598)">
          <g
             id="g84">
            <path
               d="M 30.49,38.19 H 15.63 l -1.58,4.87 h 18.02 z"
               style="fill:#41c363;fill-rule:nonzero"
               id="path68" />
            <path
               d="m 24.32,1.63 h 7.13 l 12.67,39 h -7.13 z"
               style="fill-rule:nonzero"
               id="path70" />
            <path
               d="M 21.8,1.63 H 14.67 L 2,40.63 h 7.13 z"
               style="fill-rule:nonzero"
               id="path72" />
            <path
               d="M 208.75,1.63 H 181.2 v 5.73 h 10.56 v 33.27 h 6.43 V 7.36 h 10.56 z"
               style="fill-rule:nonzero"
               id="path74" />
            <path
               d="m 142.65,1.63 v 39 h 25.04 V 34.9 h -18.6 V 23.81 h 15.94 V 18.09 H 149.09 V 7.36 h 18.6 V 1.63 Z"
               style="fill-rule:nonzero"
               id="path76" />
            <path
               d="M 75.78,1.63 66.66,30.78 57.55,1.64 57.54,1.63 h -7.13 l 12.67,39 h 7.16 l 12.67,-39 z"
               style="fill-rule:nonzero"
               id="path78" />
            <path
               d="m 101.77,1.63 h -5.49 v 39 h 6.44 V 14.56 l 17.58,26.07 h 5.49 v -39 h -6.43 V 27.7 Z"
               style="fill-rule:nonzero"
               id="path80" />
            <path
               d="m 215.14,7.35 c -1.58,0 -2.86,-1.28 -2.86,-2.86 0,-1.58 1.28,-2.86 2.86,-2.86 1.58,0 2.86,1.28 2.86,2.86 0,0.759 -0.301,1.486 -0.838,2.022 -0.536,0.537 -1.263,0.838 -2.022,0.838 z m 0,-5.19 c -0.614,0 -1.203,0.247 -1.634,0.685 -0.43,0.438 -0.667,1.031 -0.656,1.645 -0.056,0.852 0.366,1.665 1.097,2.109 0.73,0.443 1.646,0.443 2.376,0 0.731,-0.444 1.153,-1.257 1.097,-2.109 0.013,-0.613 -0.221,-1.206 -0.65,-1.645 -0.429,-0.438 -1.017,-0.685 -1.63,-0.685 z m 0.6,3.87 -0.63,-1.22 h -0.4 V 6 h -0.57 V 2.94 h 1.16 c 0.533,-10e-4 0.973,0.417 1,0.95 0.008,0.385 -0.242,0.728 -0.61,0.84 l 0.69,1.3 z m -0.51,-2.61 h -0.52 v 0.93 h 0.52 c 0.182,0.027 0.364,-0.055 0.463,-0.21 0.1,-0.155 0.1,-0.355 0,-0.51 -0.099,-0.155 -0.281,-0.237 -0.463,-0.21 z"
               style="fill-rule:nonzero"
               id="path82" />
          </g>
        </g>
      </g>
      <g
         aria-label="ELECTRONICS"
         id="text31546"
         style="font-size:6.69488px;line-height:1.25;font-family:Dominik;-inkscape-font-specification:Dominik;letter-spacing:0.902411px;stroke-width:0.167373"
         transform="matrix(0.10112716,0,0,0.10112716,37.98348,-15.671007)">
        <g
           id="g15470"
           transform="translate(4.3648348,44.152926)"
           style="fill:#1d398d;fill-opacity:1">
          <path
             id="path874"
             style="opacity:1;fill:#1d398d;fill-opacity:1;stroke:none;stroke-width:0.264583px;stroke-linecap:butt;stroke-linejoin:miter;stroke-opacity:1"
             d="m 62.719169,132.47098 -4.364593,7.55613 h 4.359426 v 4.06228 h -6.705534 l -2.440162,4.22455 h 9.145696 v 4.06229 H 51.221679 l -2.427758,4.20388 h 13.920081 v 4.06176 H 46.44781 l -2.422075,4.19303 h 18.693434 z" />
          <path
             style="opacity:1;fill:#1d398d;fill-opacity:1;stroke:none;stroke-width:0.264583px;stroke-linecap:butt;stroke-linejoin:miter;stroke-opacity:1"
             d="M 62.719412,132.47073 V 164.835 h 18.693529 z"
             id="path956" />
          <g
             id="g25568"
             style="fill:#1d398d;fill-opacity:1">
            <path
               id="rect1221"
               style="opacity:1;fill:#1d398d;fill-opacity:1;stroke:none;stroke-width:3.80793;stroke-linecap:round;stroke-linejoin:round;paint-order:stroke markers fill"
               d="m 336.11523,539.74414 16.04493,28.625 -13.65235,26.35352 h 10.03711 l 28.48242,-54.97852 h -10.03906 l -10.00781,19.31836 -10.82813,-19.31836 z"
               transform="scale(0.26458333)" />
            <path
               id="rect1343"
               style="opacity:1;fill:#1d398d;fill-opacity:1;stroke:none;stroke-width:2.83828;stroke-linecap:round;stroke-linejoin:round;paint-order:stroke markers fill"
               d="m 398.61914,538.85156 c -4.51828,-0.006 -7.05055,2.00989 -8.45117,4.00977 l 0.004,-3.11524 h -8.58594 l -0.0449,35.7168 h 8.58398 l 0.0293,-21.93359 c 0.17114,-2.14689 1.10815,-6.66154 5.94726,-7.00196 4.98395,-0.35074 5.44768,4.95126 5.69532,7.79883 0.005,0.0579 0.0138,0.11237 0.0234,0.16406 l -0.0312,20.97852 h 8.58399 l 0.0312,-20.9043 0.0469,0.0859 c 0,0 -0.71471,-7.67529 5.65039,-8.12305 4.98395,-0.35074 5.44768,4.95126 5.69532,7.79883 0.006,0.0697 0.0176,0.13429 0.0332,0.19531 l -0.041,20.94727 h 8.58399 l 0.0449,-22.8418 c 1e-5,0 0.002,-0.002 0.002,-0.002 -4.6e-4,-0.026 -10e-4,-0.0503 -0.002,-0.0762 v -0.0742 h -0.002 c -0.14935,-6.90991 -1.95795,-8.96201 -4.75586,-11.28516 -1.5255,-1.23265 -3.79569,-2.33381 -7.04102,-2.33789 -5.30343,-0.007 -8.72593,2.7571 -10.63476,5.01367 -0.88468,-1.49992 -3.57073,-5.00639 -9.36524,-5.01367 z"
               transform="scale(0.26458333)" />
            <path
               id="rect1483"
               style="opacity:1;fill:#1d398d;fill-opacity:1;stroke:none;stroke-width:3.30484;stroke-linecap:round;stroke-linejoin:round;paint-order:stroke markers fill"
               d="m 541.07422,527.04883 -0.0117,12.69531 h -3.50781 v 8.14258 h 3.5 l -0.0254,27.58594 h 8.58593 l 0.0254,-27.58594 h 6.44532 v -8.14258 h -6.4375 l 0.0117,-12.69531 z"
               transform="scale(0.26458333)" />
            <path
               id="rect3048"
               style="opacity:1;fill:#1d398d;fill-opacity:1;stroke:none;stroke-width:2.83884;stroke-linecap:round;stroke-linejoin:round;paint-order:stroke markers fill"
               d="m 577.83984,539.1543 c -0.45437,2.2e-4 -0.93167,0.0198 -1.43359,0.0644 -3.00834,0.26773 -5.26158,2.06398 -6.75,3.76172 l 0.004,-3.23633 h -8.58594 l -0.0449,35.73047 h 8.58398 l 0.0273,-21.13281 c 0.42739,-3.0705 1.61718,-5.7357 4.62696,-6.92383 0.78436,-0.19276 1.86384,-0.37901 2.57617,-0.26563 2.23846,0.3563 3.9375,1.81641 3.9375,1.81641 l 3.625,-7.9375 c 0,0 -2.17411,-1.87911 -6.56641,-1.87695 z"
               transform="scale(0.26458333)" />
            <path
               id="path3344"
               style="opacity:1;fill:#1d398d;fill-opacity:1;stroke:none;stroke-width:1.00751;stroke-linecap:round;stroke-linejoin:round;paint-order:stroke markers fill"
               d="m 155.29475,142.8073 4.24522,7.5737 -3.61218,6.9727 h 2.65565 l 7.53598,-14.5464 h -2.65617 l -2.64791,5.11132 -2.86494,-5.11132 z" />
            <path
               id="path5169"
               style="opacity:1;fill:#1d398d;fill-opacity:1;stroke:none;stroke-width:0.750962;stroke-linecap:round;stroke-linejoin:round;paint-order:stroke markers fill"
               d="m 120.98922,142.57114 c -1.19547,-0.002 -1.86546,0.53178 -2.23604,1.06092 l 0.001,-0.82424 h -2.27169 l -0.0119,9.45007 h 2.27118 l 0.008,-5.80326 c 0.0453,-0.56804 0.2932,-1.76254 1.57355,-1.85261 1.31867,-0.0928 1.44136,1.31002 1.50688,2.06344 10e-4,0.0153 0.004,0.0297 0.006,0.0434 l -0.008,5.55057 h 2.27118 l 0.008,-5.53093 0.0124,0.0227 c 0,0 -0.1891,-2.03076 1.495,-2.14923 1.31867,-0.0928 1.44137,1.31002 1.50689,2.06344 0.002,0.0185 0.005,0.0355 0.009,0.0517 l -0.0108,5.5423 h 2.27118 l 0.0119,-6.04356 c 0,0 5.1e-4,-5.2e-4 5.1e-4,-5.2e-4 -1.2e-4,-0.007 -3.8e-4,-0.0133 -5.1e-4,-0.0202 v -0.0196 h -5.2e-4 c -0.0395,-1.82824 -0.51804,-2.3712 -1.25832,-2.98586 -0.40362,-0.32614 -1.00428,-0.61749 -1.86294,-0.61857 -1.4032,-0.002 -2.30873,0.72948 -2.81378,1.32653 -0.23407,-0.39685 -0.94475,-1.3246 -2.47788,-1.32653 z" />
            <path
               id="path5223"
               style="opacity:1;fill:#1d398d;fill-opacity:1;stroke:none;stroke-width:0.245669;stroke-linecap:butt;stroke-linejoin:miter;stroke-miterlimit:4;stroke-dasharray:none;stroke-opacity:1"
               d="m 316.07422,518.05469 c -1.19827,0.0162 -2.40657,0.14709 -3.5957,0.38672 -0.77693,0.15658 -1.54613,0.3603 -2.29883,0.60937 -0.68047,0.22534 -1.34598,0.48777 -1.99414,0.78711 -1.20723,0.55759 -2.34853,1.24228 -3.38477,2.04883 -0.76674,0.59679 -1.47668,1.26012 -2.11328,1.98828 -0.57155,0.76173 -1.03499,1.49083 -1.41211,2.19141 -0.3821,0.70983 -0.67605,1.39085 -0.9043,2.04882 -0.53144,1.53219 -0.70749,2.93879 -0.82031,4.28907 -0.17783,2.12844 0.0833,4.01211 0.71875,5.6875 0.6845,1.80457 1.8026,3.36584 3.27344,4.72851 1.69999,1.54972 3.80408,2.74861 6.00976,3.83008 1.01349,0.49693 2.04839,0.96924 3.07618,1.43945 0.83542,0.38219 1.66459,0.76451 2.47461,1.15625 l 0.002,-0.002 c 0.78479,0.30458 1.5365,0.62512 2.24414,0.95898 0.91617,0.43216 1.76081,0.88841 2.51562,1.36524 1.28117,0.80935 2.26989,1.79002 2.94336,2.7168 0.37409,0.51481 0.65213,1.01339 0.82618,1.45703 0.441,1.20809 0.65398,2.42382 0.65429,3.60156 6.4e-4,2.34221 -0.84425,4.53216 -2.43164,6.20313 -0.31548,0.3321 -0.65986,0.64364 -1.0332,0.93164 -0.61995,0.46869 -1.30006,0.86031 -2.01953,1.16796 -0.80994,0.3464 -1.66982,0.58722 -2.55469,0.70704 -1.26701,0.17162 -2.58365,0.0983 -3.86914,-0.25391 -0.46634,-0.12843 -0.90907,-0.28708 -1.33008,-0.47266 -1.41771,-0.62456 -2.57545,-1.5673 -3.44336,-2.79297 -0.66392,-0.93758 -1.15858,-2.04039 -1.47265,-3.29296 -0.28197,-1.12441 -0.41891,-2.36887 -0.40039,-3.72266 l -2.65235,0.61719 -2.46875,0.57226 -1.58984,0.36914 -2.03906,0.47461 c 0.0496,0.56387 0.111,1.11195 0.1875,1.64649 0.14432,1.0086 0.34333,1.96901 0.61523,2.89843 0.27965,0.95585 0.63628,1.87946 1.0957,2.78711 0.5336,1.05419 1.2045,2.08727 2.04688,3.12891 0.51177,0.63281 1.08751,1.26916 1.73437,1.91406 0.67074,0.57891 1.26694,1.02278 1.88867,1.42383 0.51925,0.3349 1.0565,0.63911 1.66797,0.9668 1.17769,0.63095 2.48953,1.15586 3.9668,1.44726 0.99998,0.19748 2.04089,0.32493 3.10156,0.38086 1.52002,0.0805 3.07965,0.0119 4.61133,-0.21484 2.46971,-0.36559 4.86789,-1.143 6.91602,-2.37305 0.90134,-0.5373 1.76803,-1.21516 2.57617,-1.99023 0.79384,-0.76135 1.53108,-1.61555 2.18554,-2.52539 0.34785,-0.51402 0.69546,-1.04818 1.02344,-1.60547 0.41934,-0.71248 0.80573,-1.46325 1.11524,-2.26367 0.21763,-0.5503 0.40527,-1.10894 0.5625,-1.67383 0.44841,-1.61129 0.65516,-3.27301 0.65234,-4.92383 -0.002,-1.3547 -0.1465,-2.70249 -0.41602,-4.01172 -0.26505,-1.28765 -0.64866,-2.44712 -1.13867,-3.49609 -0.46105,-0.98699 -1.01668,-1.87628 -1.65429,-2.68555 -1.07478,-1.36414 -2.38408,-2.49895 -3.87696,-3.48242 -0.89954,-0.59259 -1.86591,-1.12918 -2.88672,-1.62891 -0.68005,-0.33294 -1.38398,-0.65082 -2.10937,-0.95508 v 0.002 c -5.1e-4,-2.6e-4 -10e-4,2.6e-4 -0.002,0 -0.73012,-0.37793 -1.62638,-0.76285 -2.60547,-1.17578 -0.92118,-0.38854 -1.91546,-0.80386 -2.91016,-1.26368 -1.56315,-0.72264 -3.19569,-1.23708 -4.52148,-2.09961 -0.70572,-0.45913 -1.32331,-1.01643 -1.79883,-1.75585 -0.42051,-0.6539 -0.72964,-1.45102 -0.88672,-2.44727 -0.0616,-0.8965 0.0143,-1.69842 0.19727,-2.41211 0.18958,-0.73973 0.49441,-1.38477 0.87695,-1.94531 1.09186,-1.59991 2.82421,-2.50505 4.37305,-2.91992 1.5785,-0.42293 3.21443,-0.46686 4.74414,-0.10743 1.25318,0.29435 2.43487,0.85938 3.45703,1.70508 0.76501,0.63296 1.44013,1.42346 1.98828,2.37696 0.25349,0.44092 0.48038,0.9167 0.67578,1.42773 l 1.41992,-0.92188 2.15039,-1.39257 1.9961,-1.29493 L 331.375,527.5 c -0.21123,-0.40203 -0.43117,-0.78989 -0.6582,-1.16406 -0.68146,-1.12313 -1.4316,-2.12144 -2.23828,-3.00196 -0.55532,-0.60616 -1.13796,-1.15639 -1.74219,-1.65234 -0.59783,-0.49066 -1.21609,-0.92792 -1.85352,-1.31445 -0.97524,-0.59135 -1.99354,-1.0632 -3.03711,-1.42188 -1.04057,-0.35765 -2.10631,-0.60467 -3.18554,-0.74414 -0.84914,-0.10885 -1.71538,-0.15782 -2.58594,-0.14648 z"
               transform="scale(0.26458333)" />
            <path
               id="rect7327"
               style="opacity:1;fill:#1d398d;fill-opacity:1;stroke:#00ff00;stroke-width:0.146526;stroke-linecap:round;stroke-linejoin:round;stroke-miterlimit:4;stroke-dasharray:none;paint-order:stroke markers fill"
               d="m 515.19336,538.92578 c -1.49831,-0.006 -3.00052,0.14564 -4.41406,0.42774 -1.7119,0.34159 -3.33901,0.89561 -4.78321,1.63867 -0.97579,0.54119 -1.87074,1.17913 -2.68164,1.90234 -4.75872,4.24407 -6.66713,11.39093 -5.59961,18.72461 1.59447,8.87615 7.03857,15.10337 17.63282,14.98242 4.59125,-0.007 8.00371,-1.17113 10.64843,-3.11914 1.24642,-0.91808 2.46508,-2.23714 3.49024,-3.58594 0.7629,-1.00372 1.41828,-2.02331 1.89844,-2.90625 0.19445,-0.3575 0.3599,-0.69373 0.49218,-0.99609 l -6.84961,-3.80078 c -0.15027,0.2739 -0.32198,0.5693 -0.51172,0.87695 -0.2246,0.36427 -0.47453,0.74601 -0.75195,1.13477 -0.43434,0.60899 -0.93295,1.23276 -1.48828,1.82422 -0.34515,0.36763 -0.71288,0.7236 -1.10156,1.05468 -0.42633,0.36322 -0.87786,0.69764 -1.35352,0.98829 -0.49273,0.29631 -1.0235,0.53298 -1.58008,0.71289 -0.52577,0.17007 -1.07327,0.29014 -1.63476,0.35742 -0.85448,0.10242 -1.74026,0.0842 -2.61719,-0.0488 -0.76025,-0.12896 -1.48237,-0.34967 -2.16016,-0.6543 -0.44257,-0.19899 -0.86539,-0.43244 -1.26757,-0.70117 -0.92357,-0.61682 -1.73593,-1.41207 -2.41016,-2.35937 -0.32164,-0.45188 -0.61093,-0.93853 -0.86719,-1.45703 -0.30066,-0.60798 -0.55485,-1.2599 -0.75781,-1.95118 -0.13644,-0.46427 -0.24907,-0.94687 -0.33789,-1.44531 -0.0707,-0.39171 -0.0587,-0.27832 -0.0977,-0.68945 l 25.38868,-0.0176 c 0.54251,-7.28859 -1.54025,-13.85786 -6.26368,-17.5957 -0.74781,-0.59173 -1.56115,-1.11125 -2.4414,-1.55274 -0.6915,-0.38566 -1.43746,-0.70298 -2.22266,-0.95508 -1.47594,-0.47372 -3.08793,-0.7214 -4.7168,-0.77734 -0.21367,-0.007 -0.42658,-0.0109 -0.64062,-0.0117 z m -0.0762,7.64453 c 0.54735,0.002 1.09161,0.0545 1.61914,0.15821 0.68867,0.1353 1.34929,0.3583 1.95508,0.66992 0.37606,0.18255 0.73072,0.39053 1.06445,0.62304 0.48771,0.33978 0.9283,0.72955 1.31445,1.15625 0.55385,0.61199 0.99686,1.3016 1.3086,2.03321 0.1731,0.40618 0.30548,0.82566 0.39453,1.25195 0.0429,0.20575 0.0753,0.41295 0.0976,0.62109 h -15.98828 c 0.055,-0.21021 0.11446,-0.4171 0.18164,-0.61914 0.21052,-0.63473 0.47959,-1.2283 0.79688,-1.77539 0.2056,-0.35489 0.43189,-0.68964 0.67578,-1.0039 0.22828,-0.29405 0.4714,-0.57001 0.72851,-0.82617 0.27175,-0.271 0.56,-0.5202 0.85938,-0.7461 0.59134,-0.42675 1.24813,-0.76684 1.94141,-1.01758 0.66398,-0.24 1.36123,-0.39695 2.06445,-0.47265 0.32834,-0.0353 0.65792,-0.0537 0.98633,-0.0527 z"
               transform="scale(0.26458333)" />
          </g>
          <path
             id="path15052"
             style="color:#000000;-inkscape-font-specification:Dominik;fill:#1d398d;fill-opacity:1;stroke:none;stroke-width:0.632591;-inkscape-stroke:none"
             d="m 431.44141,584.15039 c -1.80099,0 -3.443,0.40077 -4.90821,1.20313 -1.46419,0.80178 -2.62557,1.92893 -3.46289,3.35937 -0.82148,1.41574 -1.23242,3.00889 -1.23242,4.76172 0,1.75283 0.41174,3.35914 1.23242,4.79101 0.83709,1.41257 1.98725,2.52653 3.4336,3.32813 1.46524,0.80239 3.10718,1.20313 4.9082,1.20313 1.35092,0 2.60494,-0.22352 3.75781,-0.67774 h 0.008 c 1.16973,-0.47138 2.16606,-1.1524 2.97461,-2.03125 l 0.19922,-0.2207 -1.63086,-1.63086 -0.22265,0.23633 c -1.30946,1.35802 -2.95649,2.02148 -5.01172,2.02148 -1.35183,0 -2.56284,-0.29993 -3.66211,-0.91406 -1.10147,-0.61554 -1.95942,-1.45066 -2.58984,-2.51758 -0.61278,-1.06431 -0.91602,-2.25349 -0.91602,-3.58789 0,-1.33183 0.30566,-2.51739 0.91602,-3.58008 0.63042,-1.06692 1.48837,-1.90204 2.58984,-2.51758 1.09927,-0.61428 2.31028,-0.92187 3.66211,-0.92187 2.03864,0 3.69273,0.66483 5.01953,2.00781 l 0.2207,0.2207 1.625,-1.62304 -0.19922,-0.22266 c -0.80847,-0.87882 -1.79874,-1.55306 -2.95312,-2.00781 -1.15287,-0.45415 -2.4069,-0.67969 -3.75781,-0.67969 z m 61.04101,0 c -1.802,0 -3.45581,0.41513 -4.9375,1.23438 v -0.008 c -1.46332,0.80134 -2.6175,1.92251 -3.45508,3.33594 h -0.008 c -0.82148,1.41574 -1.23242,3.00889 -1.23242,4.76172 0,1.75283 0.41094,3.35184 1.23242,4.76758 h 0.008 c 0.83728,1.4129 1.99293,2.53348 3.45508,3.35156 v 0.008 c 1.48139,0.80164 3.13652,1.19531 4.9375,1.19532 1.80102,0 3.4298,-0.39998 4.87891,-1.20313 1.46332,-0.80134 2.62531,-1.91473 3.46289,-3.32813 0.8383,-1.43213 1.26172,-3.03712 1.26172,-4.79101 0,-1.75389 -0.42263,-3.34572 -1.26172,-4.76172 -0.83732,-1.43044 -1.9987,-2.55759 -3.46289,-3.35937 -1.44911,-0.80312 -3.07789,-1.20313 -4.87891,-1.20313 z m 59.64649,0 c -1.80099,0 -3.44495,0.40077 -4.91016,1.20313 -1.46419,0.80178 -2.62358,1.92893 -3.46094,3.35937 -0.82148,1.41574 -1.23242,3.00889 -1.23242,4.76172 0,1.75283 0.41174,3.35914 1.23242,4.79101 0.83709,1.41257 1.99311,2.52653 3.43946,3.32813 1.46521,0.80239 3.10722,1.20313 4.9082,1.20313 1.35095,0 2.6049,-0.22352 3.75781,-0.67774 1.16973,-0.47138 2.16606,-1.1524 2.97461,-2.03125 l 0.20703,-0.2207 -1.63086,-1.63086 -0.2207,0.23633 c -1.30949,1.35802 -2.95848,2.02148 -5.01367,2.02148 -1.35186,0 -2.5687,-0.29993 -3.66797,-0.91406 -1.10147,-0.61554 -1.95352,-1.45066 -2.58399,-2.51758 -0.61277,-1.06431 -0.92187,-2.25349 -0.92187,-3.58789 0,-1.33183 0.31133,-2.51739 0.92187,-3.58008 0.63047,-1.06692 1.48252,-1.90204 2.58399,-2.51758 1.09927,-0.61428 2.31611,-0.92187 3.66797,-0.92187 2.0386,0 3.68687,0.66483 5.01367,2.00781 l 0.2207,0.2207 1.63086,-1.62304 -0.20703,-0.22266 c -0.80848,-0.87882 -1.79097,-1.55306 -2.94531,-2.00781 -1.15291,-0.45415 -2.41272,-0.67969 -3.76367,-0.67969 z m 19.05273,0 c -1.48259,0 -2.74767,0.22511 -3.7793,0.6875 -1.02183,0.45808 -1.80023,1.08681 -2.31054,1.88867 -0.50476,0.77518 -0.76172,1.64985 -0.76172,2.59961 0,1.15004 0.30074,2.10407 0.91601,2.8125 v 0.008 c 0.60439,0.67548 1.33371,1.18149 2.16993,1.51954 l 0.008,0.008 c 0.81158,0.31068 1.87872,0.62754 3.21875,0.96679 h 0.008 c 1.10604,0.26835 1.96511,0.5257 2.56836,0.75391 h 0.008 c 0.58534,0.20561 1.06134,0.49884 1.44727,0.88477 h 0.008 v 0.008 c 0.37493,0.36019 0.56055,0.82551 0.56055,1.46875 0,0.83531 -0.33778,1.4736 -1.0625,2.01562 -0.71173,0.51485 -1.83333,0.80469 -3.38086,0.80469 -1.09406,0 -2.15282,-0.19271 -3.18164,-0.56836 -1.02539,-0.39197 -1.83686,-0.88959 -2.4375,-1.49023 l -0.3086,-0.31055 -1.0332,2.0293 0.1543,0.16211 c 0.70182,0.7378 1.67649,1.3163 2.9082,1.75 1.248,0.43332 2.54884,0.65039 3.89844,0.65039 1.48138,0 2.74687,-0.21479 3.79297,-0.65821 h 0.008 c 1.03722,-0.45713 1.82017,-1.0733 2.33203,-1.85937 0.52131,-0.79094 0.79102,-1.67523 0.79102,-2.62695 0,-1.13125 -0.30188,-2.07045 -0.91602,-2.76172 -0.58889,-0.67812 -1.31654,-1.18479 -2.16992,-1.50586 h -0.008 c -0.81381,-0.32844 -1.86842,-0.65252 -3.17383,-0.97461 -1.09145,-0.26873 -1.96061,-0.5156 -2.60547,-0.73047 -0.60095,-0.22299 -1.09602,-0.52941 -1.49805,-0.91602 -0.35527,-0.3753 -0.53906,-0.85107 -0.53906,-1.49023 0,-0.85807 0.32975,-1.51154 1.04102,-2.05273 0.71376,-0.54671 1.81744,-0.8418 3.32812,-0.8418 0.77677,0 1.56801,0.11641 2.38477,0.36133 h 0.008 v 0.008 c 0.81203,0.22753 1.5713,0.56922 2.28711,1.04102 l 0.31836,0.21484 0.88476,-2.08203 -0.21289,-0.14844 c -0.74037,-0.51122 -1.61729,-0.90403 -2.62109,-1.18164 h -0.008 c -0.98846,-0.29405 -2.0015,-0.44141 -3.04102,-0.44141 z m -206.66406,0.15625 v 18.34375 h 13.1543 v -2.25195 h -0.31641 -10.33594 v -5.94922 h 9.16211 v -2.22266 h -9.16211 v -5.66992 h 10.27539 v -2.25 z m 20.33789,0 v 0.31641 18.02734 h 12.42383 v -2.25195 h -9.92188 v -16.0918 z m 18.31445,0 v 18.34375 h 13.1543 v -2.25195 h -0.31836 -10.33398 v -5.94922 h 9.16015 v -2.22266 h -9.16015 v -5.66992 h 10.27539 v -2.25 z m 38.82813,0 v 2.25 h 6.22265 v 16.09375 h 2.50977 v -16.09375 h 6.22265 v -2.25 z m 20.7207,0 v 18.34375 h 2.50195 v -5.61719 h 4.44532 c 0.43381,0 0.84431,-0.0345 1.2539,-0.0742 l 4.04492,5.69141 h 0.16407 2.66406 l -4.50391,-6.31836 c 1.14837,-0.44557 2.14361,-1.04055 2.79883,-1.93555 0.75148,-1.01983 1.12891,-2.26783 1.12891,-3.70507 0,-1.9609 -0.68555,-3.55715 -2.03711,-4.69532 -1.35209,-1.13858 -3.20287,-1.68945 -5.51367,-1.68945 z m 46.34375,0 v 18.34375 h 2.50195 v -13.7832 l 10.91797,13.7832 h 2.01563 v -18.34375 h -0.31836 -2.16211 v 13.78125 l -10.93946,-13.78125 z m 23.98438,0 v 0.31641 18.02734 h 2.50195 v -18.34375 z m -40.56446,2.14844 c 1.3519,0 2.5572,0.30868 3.63867,0.92187 1.08167,0.59732 1.91918,1.4272 2.53321,2.50977 h 0.008 c 0.61274,1.06424 0.91406,2.25349 0.91406,3.58789 0,1.3344 -0.3083,2.53511 -0.92187,3.61719 -0.6138,1.06416 -1.44865,1.89574 -2.53125,2.50976 -1.08182,0.59743 -2.28748,0.89258 -3.64063,0.89258 -1.35311,0 -2.56835,-0.29416 -3.66797,-0.89258 -1.08476,-0.61527 -1.93147,-1.44967 -2.5625,-2.51758 -0.61137,-1.08045 -0.92187,-2.27754 -0.92187,-3.60937 0,-1.3344 0.30906,-2.52365 0.92187,-3.58789 0.631,-1.08405 1.48027,-1.91215 2.5625,-2.50977 1.09924,-0.61428 2.31615,-0.92187 3.66797,-0.92187 z m -27.26172,0.10156 h 4.39258 c 1.70774,0 2.96386,0.37308 3.81641,1.08594 v 0.008 h 0.008 c 0.85225,0.69732 1.26953,1.67536 1.26953,3.04102 0,1.33024 -0.42136,2.31142 -1.27734,3.02734 -0.85255,0.71301 -2.10867,1.08398 -3.81641,1.08398 h -4.39258 z"
             transform="scale(0.26458333)" />
        </g>
      </g>
    </g>
  </g>
</svg>
