<?xml version="1.0" encoding="UTF-8" standalone="no"?>
<!-- Created with Inkscape (http://www.inkscape.org/) -->

<svg
   width="259"
   height="60"
   viewBox="0 0 68.527082 15.875"
   version="1.1"
   id="svg5"
   inkscape:version="1.1 (c68e22c387, 2021-05-23)"
   sodipodi:docname="5.svg"
   xmlns:inkscape="http://www.inkscape.org/namespaces/inkscape"
   xmlns:sodipodi="http://sodipodi.sourceforge.net/DTD/sodipodi-0.dtd"
   xmlns="http://www.w3.org/2000/svg"
   xmlns:svg="http://www.w3.org/2000/svg">
  <sodipodi:namedview
     id="namedview7"
     pagecolor="#505050"
     bordercolor="#eeeeee"
     borderopacity="1"
     inkscape:pageshadow="0"
     inkscape:pageopacity="0"
     inkscape:pagecheckerboard="0"
     inkscape:document-units="mm"
     showgrid="false"
     units="px"
     width="259px"
     inkscape:zoom="1.5144501"
     inkscape:cx="217.57072"
     inkscape:cy="80.887446"
     inkscape:window-width="1920"
     inkscape:window-height="1013"
     inkscape:window-x="-9"
     inkscape:window-y="-9"
     inkscape:window-maximized="1"
     inkscape:current-layer="layer1" />
  <defs
     id="defs2" />
  <g
     inkscape:label="Camada 1"
     inkscape:groupmode="layer"
     id="layer1">
    <rect
       style="fill:#f9f9f9;stroke:none;stroke-width:1.1611;stroke-linecap:round;stroke-linejoin:round;paint-order:stroke markers fill"
       id="rect31"
       width="68.527084"
       height="15.875"
       x="-5.0862633e-07"
       y="-1.7763568e-15"
       ry="0" />
    <g
       id="g1153"
       transform="matrix(0.2273802,0,0,0.2273802,8.1148181,1.5308354)">
      <path
         fill="#00717d"
         d="m 21.904,41.223 h 4.681 V 19.117 a 9.136,9.136 0 0 0 -9.16,-9.16 H 4.083 C 1.792,9.957 0,11.75 0,14.038 v 27.185 h 4.679 c 0.4,0 0.797,-0.301 0.797,-0.8 v -25.39 h 11.949 a 3.677,3.677 0 0 1 3.684,3.686 v 21.704 c 0,0.499 0.397,0.8 0.795,0.8 z M 118.486,9.957 H 103.05 c -1.094,0 -1.99,0.896 -1.99,1.891 v 44.504 h 4.679 c 0.4,0 0.797,-0.297 0.797,-0.796 V 41.124 h 11.95 a 9.14,9.14 0 0 0 9.159,-9.164 V 19.117 c -0.103,-5.079 -4.082,-9.16 -9.159,-9.16 z m 3.684,22.501 a 3.678,3.678 0 0 1 -3.684,3.684 h -11.95 V 15.134 h 11.95 a 3.676,3.676 0 0 1 3.684,3.684 z m 56.255,-17.324 a 3.68,3.68 0 0 0 -3.688,3.684 v 21.704 c 0,0.4 -0.297,0.8 -0.791,0.8 h -4.681 V 19.117 a 9.133,9.133 0 0 1 9.159,-9.16 h 6.271 v 4.38 a 0.788,0.788 0 0 1 -0.795,0.797 z m 19.114,-4.382 a 0.783,0.783 0 0 0 -0.795,-0.795 h -4.676 v 30.466 c 0,0.399 0.296,0.8 0.79,0.8 h 4.681 z m 23.302,-0.795 h -13.145 v 4.479 c 0,0.4 0.301,0.699 0.696,0.699 h 12.448 a 3.676,3.676 0 0 1 3.684,3.684 v 2.289 H 213.37 a 9.134,9.134 0 0 0 -9.155,9.164 v 1.985 a 9.134,9.134 0 0 0 9.155,9.164 h 14.636 c 1.096,0 1.994,-0.898 1.994,-1.896 V 19.316 c 0,-5.278 -4.083,-9.359 -9.159,-9.359 z m -7.471,26.185 a 3.677,3.677 0 0 1 -3.684,-3.684 v -2.592 a 3.679,3.679 0 0 1 3.684,-3.682 h 11.154 v 9.957 H 213.37 Z"
         id="path1135" />
      <circle
         fill="#f05128"
         cx="194.854"
         cy="2.688"
         r="2.688"
         id="circle1137" />
      <path
         fill="#00717d"
         d="M 55.261,22.8 H 39.628 v -4.082 a 3.676,3.676 0 0 1 3.684,-3.686 h 8.263 a 3.678,3.678 0 0 1 3.686,3.686 V 22.8 Z M 43.312,41.223 H 59.44 V 36.838 A 0.681,0.681 0 0 0 58.744,36.142 H 43.312 a 3.676,3.676 0 0 1 -3.684,-3.684 v -4.479 h 19.514 c 1.494,0 1.595,-0.898 1.595,-1.894 v -6.969 a 9.136,9.136 0 0 0 -9.162,-9.16 h -8.263 a 9.134,9.134 0 0 0 -9.16,9.16 v 13.04 c 0,4.983 4.081,9.067 9.16,9.067 M 156.319,22.8 h -15.633 v -4.082 a 3.678,3.678 0 0 1 3.684,-3.686 h 8.266 a 3.675,3.675 0 0 1 3.684,3.686 V 22.8 Z m -12.048,18.423 h 16.131 v -4.385 a 0.683,0.683 0 0 0 -0.696,-0.696 h -15.435 a 3.677,3.677 0 0 1 -3.684,-3.684 v -4.479 h 19.514 c 1.496,0 1.595,-0.898 1.595,-1.894 v -6.969 a 9.135,9.135 0 0 0 -9.159,-9.16 h -8.266 a 9.136,9.136 0 0 0 -9.16,9.16 v 13.04 c 0.104,4.983 4.183,9.067 9.16,9.067"
         id="path1139" />
      <path
         fill="#f05128"
         d="M 79.456,23.696 C 79.056,22.899 73.38,11.749 73.084,11.25 72.783,10.653 72.585,10.055 71.39,10.055 h -4.281 c -0.4,0 -0.896,0.299 -0.598,0.896 0,0.099 7.567,14.736 7.567,14.736 0,0 -7.468,14.636 -7.567,14.734 -0.299,0.598 0.198,0.898 0.598,0.898 h 4.281 c 1.195,0 1.393,-0.7 1.694,-1.194 0.296,-0.499 5.972,-11.752 6.372,-12.448 0.198,-0.301 0.595,-1.195 0.595,-1.891 0,-0.895 -0.398,-1.791 -0.595,-2.09 z m 8.263,1.891 c 0,0 7.466,-14.635 7.567,-14.734 0.299,-0.597 -0.2,-0.896 -0.598,-0.896 h -4.281 c -1.195,0 -1.395,0.696 -1.694,1.195 -0.299,0.497 -5.975,11.747 -6.372,12.446 -0.2,0.397 -0.696,1.293 -0.696,1.99 0,0.699 0.397,1.592 0.598,1.893 0.397,0.796 6.073,11.945 6.372,12.448 0.299,0.593 0.496,1.195 1.691,1.195 h 4.283 c 0.397,0 0.896,-0.302 0.595,-0.898 0.001,0.098 -7.465,-14.639 -7.465,-14.639 z"
         id="path1141" />
    </g>
  </g>
</svg>
