<?xml version="1.0" encoding="UTF-8" standalone="no"?>
<!-- Created with Inkscape (http://www.inkscape.org/) -->

<svg
   width="259"
   height="60"
   viewBox="0 0 68.527082 15.875"
   version="1.1"
   id="svg5"
   inkscape:version="1.1 (c68e22c387, 2021-05-23)"
   sodipodi:docname="6.svg"
   xmlns:inkscape="http://www.inkscape.org/namespaces/inkscape"
   xmlns:sodipodi="http://sodipodi.sourceforge.net/DTD/sodipodi-0.dtd"
   xmlns="http://www.w3.org/2000/svg"
   xmlns:svg="http://www.w3.org/2000/svg">
  <sodipodi:namedview
     id="namedview7"
     pagecolor="#505050"
     bordercolor="#eeeeee"
     borderopacity="1"
     inkscape:pageshadow="0"
     inkscape:pageopacity="0"
     inkscape:pagecheckerboard="0"
     inkscape:document-units="mm"
     showgrid="false"
     units="px"
     width="259px"
     inkscape:zoom="1.5144501"
     inkscape:cx="217.57072"
     inkscape:cy="80.887446"
     inkscape:window-width="1920"
     inkscape:window-height="1013"
     inkscape:window-x="-9"
     inkscape:window-y="-9"
     inkscape:window-maximized="1"
     inkscape:current-layer="layer1" />
  <defs
     id="defs2" />
  <g
     inkscape:label="Camada 1"
     inkscape:groupmode="layer"
     id="layer1">
    <rect
       style="fill:#f9f9f9;stroke:none;stroke-width:1.1611;stroke-linecap:round;stroke-linejoin:round;paint-order:stroke markers fill"
       id="rect31"
       width="68.527084"
       height="15.875"
       x="-5.0862633e-07"
       y="-1.7763568e-15"
       ry="0" />
    <g
       inkscape:label="Ebene 1"
       id="layer1-8"
       transform="matrix(0.06793153,0,0,0.06793153,10.778642,-40.284095)"
       style="fill:#0c3cdc;fill-opacity:1">
      <path
         id="path5480"
         class="ps01"
         d="m 277.48415,720.91344 c 0,3.01508 3.48441,6.52085 6.54214,6.52085 l 44.58604,-0.0214 -9.9554,-16.078 -25.8841,-0.007 v -61.83021 h -15.28868 v 71.41585"
         style="fill:#0c3cdc;fill-rule:nonzero;stroke:none;fill-opacity:1" />
      <path
         id="path5482"
         class="ps01"
         d="m 76.811456,728.6858 v -21.6886 l -18.91527,5.41858 v 26.87251 c -3.62659,0.98847 -7.46655,1.59998 -11.37759,1.59998 -24.10632,0 -43.6615903,-19.53392 -43.6615903,-43.63316 0,-24.09204 19.5552703,-43.62602 43.6615903,-43.62602 24.10632,0 43.66159,19.53398 43.66159,43.62602 0,12.33762 -5.11996,23.48767 -13.36873,31.43069 z m 37.048364,-31.43069 c 0,-37.19768 -30.150684,-67.35544 -67.341224,-67.35544 -37.1906003,0 -67.34128,30.15776 -67.34128,67.35544 0,37.20481 30.1506797,67.36263 67.34128,67.36263 3.98213,0 7.67986,-0.36976 11.44873,-1.03111 l -0.07114,26.22542 h 18.91527 v -32.6182 c 21.90191,-11.12161 37.048364,-33.71332 37.048364,-59.93874"
         style="fill:#0c3cdc;fill-rule:nonzero;stroke:none;fill-opacity:1" />
      <path
         id="path5484"
         class="ps01"
         d="m 176.01005,727.44137 h -44.01713 c -2.98664,0 -6.54214,-3.4915 -6.54214,-6.50657 l -0.0711,-71.43721 h 15.28863 v 61.83021 h 26.5241 v -61.83021 h 15.28869 v 71.43721 c 0,3.01507 -3.48442,6.50657 -6.47106,6.50657"
         style="fill:#0c3cdc;fill-rule:nonzero;stroke:none;fill-opacity:1" />
      <path
         id="path5486"
         class="ps01"
         d="m 381.30487,652.37044 c -6.11545,-3.58393 -13.22645,-5.64611 -20.83522,-5.64611 -22.82637,0 -41.38609,18.5028 -41.38609,41.32917 0,22.83345 18.55972,41.34339 41.38609,41.34339 7.111,0 13.93754,-1.86308 19.76859,-5.04168 l -7.46654,-13.41847 c -3.62664,1.99817 -7.82214,3.15016 -12.30205,3.15016 -14.43537,0 -26.02632,-11.66204 -26.02632,-26.0334 0,-14.37136 11.59095,-26.01919 26.02632,-26.01919 4.83545,0 9.38649,1.37245 13.2976,3.69059 l 7.53762,-13.35446"
         style="fill:#0c3cdc;fill-rule:nonzero;stroke:none;fill-opacity:1" />
      <path
         id="path5488"
         class="ps01"
         d="m 416.71775,714.30022 c -14.36428,0 -25.95518,-11.54825 -25.95518,-25.91961 0,-14.37136 11.5909,-26.13299 25.95518,-26.13299 14.36422,0 26.02627,11.65497 26.02627,26.02633 0,14.37131 -11.66205,26.02627 -26.02627,26.02627 z m 0,-67.3555 c -22.82637,0 -41.31501,18.60952 -41.31501,41.43589 0,22.82631 18.48864,41.22251 41.31501,41.22251 22.82631,0 41.31495,-18.50286 41.31495,-41.32917 0,-22.82637 -18.48864,-41.32923 -41.31495,-41.32923"
         style="fill:#0c3cdc;fill-rule:nonzero;stroke:none;fill-opacity:1" />
      <path
         id="path5490"
         class="ps01"
         d="m 217.68055,697.2836 12.30205,-27.96763 12.30204,27.96763 z m 19.91088,-47.65091 h -15.14646 l -34.13287,77.39626 h 16.21309 l 8.03546,-17.05224 h 35.34173 l 0.71109,1.64268 6.82654,15.40956 h 16.21314 l -34.06172,-77.39626"
         style="fill:#0c3cdc;fill-rule:nonzero;stroke:none;fill-opacity:1" />
      <path
         id="path5492"
         class="ps01"
         d="m 704.00248,717.85572 -28.01736,-64.60353 c -1.70663,-3.11459 -4.55105,-4.55104 -8.60432,-4.55104 -4.05327,0 -6.96877,1.43645 -8.60432,4.55104 l -20.6219,47.37354 -20.55082,-47.37354 c -1.70663,-3.11459 -4.55105,-4.55104 -8.60432,-4.55104 -4.12441,0 -6.96882,1.43645 -8.60432,4.55104 l -20.62196,47.48733 -20.55082,-47.48733 c -1.70663,-3.11459 -4.55104,-4.55104 -8.60432,-4.55104 -4.12435,0 -6.96876,1.43645 -8.6754,4.55104 l -20.55082,47.37354 -20.55082,-47.37354 c -1.70664,-3.11459 -4.55105,-4.55104 -8.67546,-4.55104 -4.05328,0 -6.89769,1.43645 -8.60432,4.55104 l -28.01736,64.60353 c -3.83996,10.11899 10.09763,15.31712 14.64868,7.18922 l 21.973,-51.45524 22.04414,51.45524 c 2.84441,5.26219 11.73319,5.02752 14.36422,0 l 22.04414,-51.45524 21.97306,51.45524 c 1.49326,2.58131 3.8399,3.69065 6.32876,3.85417 0.28446,0.0427 0.56892,0.0569 0.85332,0.0712 0.28446,-0.0142 0.56892,-0.0284 0.92446,-0.0712 2.41773,-0.16352 4.83545,-1.27286 6.25768,-3.85417 l 22.04414,-51.45524 21.973,51.45524 c 2.63109,5.02752 11.51981,5.26219 14.36422,0 l 22.04414,-51.45524 21.97306,51.45524 c 4.55104,8.1279 18.48858,2.92977 14.64862,-7.18922"
         style="fill:#0c3cdc;fill-rule:nonzero;stroke:none;fill-opacity:1" />
      <path
         id="path5494"
         class="ps01"
         d="m 701.15813,658.5499 v -3.22839 h 2.20441 c 1.06663,0 2.27549,0.2418 2.27549,1.53597 0,1.59998 -1.20886,1.69242 -2.55995,1.69242 z m 6.11545,-1.59998 c 0,-2.05504 -1.20886,-2.96529 -3.69773,-2.96529 h -3.98218 v 10.42475 h 1.56446 v -4.52261 h 1.84886 l 2.77327,4.52261 h 1.77778 l -2.98664,-4.5937 c 1.49332,-0.19201 2.70218,-1.00268 2.70218,-2.86576 z m -4.1955,9.77766 c -4.12442,0 -7.32431,-3.19995 -7.32431,-7.5519 0,-4.2808 3.19989,-7.50925 7.32431,-7.50925 4.12436,0 7.32431,3.22845 7.32431,7.50925 0,4.35195 -3.19995,7.5519 -7.32431,7.5519 z m 0,-16.56869 c -4.97773,0 -9.17318,3.82574 -9.17318,9.01679 0,5.2337 4.19545,9.05944 9.17318,9.05944 4.97773,0 9.17318,-3.82574 9.17318,-9.05944 0,-5.19105 -4.19545,-9.01679 -9.17318,-9.01679"
         style="fill:#0c3cdc;fill-rule:nonzero;stroke:none;fill-opacity:1" />
    </g>
  </g>
</svg>
