<?xml version="1.0" encoding="UTF-8" standalone="no"?>
<!-- Created with Inkscape (http://www.inkscape.org/) -->

<svg
   width="259"
   height="35"
   viewBox="0 0 68.527082 9.2604167"
   version="1.1"
   id="svg5"
   inkscape:version="1.1 (c68e22c387, 2021-05-23)"
   sodipodi:docname="6_distributor.svg"
   xmlns:inkscape="http://www.inkscape.org/namespaces/inkscape"
   xmlns:sodipodi="http://sodipodi.sourceforge.net/DTD/sodipodi-0.dtd"
   xmlns="http://www.w3.org/2000/svg"
   xmlns:svg="http://www.w3.org/2000/svg">
  <sodipodi:namedview
     id="namedview7"
     pagecolor="#505050"
     bordercolor="#eeeeee"
     borderopacity="1"
     inkscape:pageshadow="0"
     inkscape:pageopacity="0"
     inkscape:pagecheckerboard="0"
     inkscape:document-units="mm"
     showgrid="false"
     units="px"
     width="259px"
     inkscape:zoom="2.1417559"
     inkscape:cx="176.72415"
     inkscape:cy="62.79894"
     inkscape:window-width="1920"
     inkscape:window-height="1013"
     inkscape:window-x="-9"
     inkscape:window-y="-9"
     inkscape:window-maximized="1"
     inkscape:current-layer="layer1" />
  <defs
     id="defs2">
    <clipPath
       id="_clipPath_54YrGfEr6ejH1v37yrWMlYAZN0XkJKpK">
      <rect
         width="174"
         height="35"
         id="rect22"
         x="0"
         y="0" />
    </clipPath>
  </defs>
  <g
     inkscape:label="Camada 1"
     inkscape:groupmode="layer"
     id="layer1">
    <rect
       style="fill:#f9f9f9;stroke:none;stroke-width:0.886805;stroke-linecap:round;stroke-linejoin:round;paint-order:stroke markers fill"
       id="rect31"
       width="68.527084"
       height="9.260417"
       x="-5.0862633e-07"
       y="-1.5894572e-07"
       ry="0" />
    <g
       style="isolation:isolate"
       id="g42"
       transform="matrix(0.07345056,0,0,0.07345056,27.91201,2.548399)">
      <g
         clip-path="url(#_clipPath_54YrGfEr6ejH1v37yrWMlYAZN0XkJKpK)"
         id="g31">
        <path
           d="m 116.482,9.092 c -1.662,0 -3.031,1.271 -3.031,2.835 V 28.645 H 92.92 L 90.378,24.05 85.979,16.425 V 3.422 c 0,-1.564 -1.369,-2.835 -3.031,-2.835 h -14.86 c -1.662,0 -3.031,1.271 -3.031,2.835 V 28.743 H 62.222 L 55.281,16.522 v -13.1 c 0,-1.564 -1.369,-2.835 -3.031,-2.835 H 37.39 c -1.662,0 -3.031,1.271 -3.031,2.835 V 28.743 H 29.666 L 23.116,2.737 C 22.822,1.466 21.552,0.587 20.183,0.587 h -8.115 c -1.368,0 -2.542,0.879 -2.933,2.15 L 1.998,31.383 c -0.391,1.564 0.587,3.128 2.249,3.421 0.098,0 0.196,0 0.293,0 0.098,0 0.294,0 0.391,0 0.196,0 0.391,0 0.489,0 1.173,-0.195 2.151,-0.977 2.444,-2.15 L 14.512,6.159 h 3.422 l 6.453,26.104 c 0.293,1.271 1.564,2.248 2.933,2.248 h 10.07 c 1.662,0 3.03,-1.271 3.03,-2.835 V 6.257 h 8.995 v 10.95 c 0,0.489 0.097,0.977 0.391,1.368 l 8.114,14.372 c 0.489,0.88 1.564,1.466 2.64,1.466 h 7.626 c 1.662,0 3.03,-1.271 3.03,-2.835 V 6.257 h 8.995 v 10.95 c 0,0.489 0.098,0.977 0.391,1.368 l 8.114,14.372 c 0.391,0.684 1.076,1.173 1.858,1.369 0.293,0.097 0.489,0.097 0.782,0.097 h 25.321 c 1.662,0 3.031,-1.271 3.031,-2.835 V 12.025 c -0.196,-1.662 -1.564,-2.933 -3.226,-2.933 z"
           fill="#000000"
           id="path27" />
        <path
           d="m 169.079,0.098 c -1.662,-0.294 -3.226,0.684 -3.519,2.248 l -5.377,26.397 h -1.564 L 153.437,2.835 c -0.293,-1.369 -1.466,-2.346 -2.933,-2.346 h -5.67 c -1.467,0 -2.64,0.977 -2.933,2.346 l -5.28,25.81 h -1.564 l -5.279,-25.81 c -0.294,-1.369 -1.467,-2.346 -2.933,-2.346 h -2.444 -26.104 c -1.662,0 -3.03,1.271 -3.03,2.835 v 19.553 c 0,1.564 1.368,2.835 3.03,2.835 1.662,0 3.031,-1.271 3.031,-2.835 V 6.257 h 23.073 v 0.098 l 5.181,25.81 c 0.294,1.369 1.467,2.346 2.933,2.346 h 6.55 c 1.467,0 2.64,-0.977 2.933,-2.346 l 5.28,-25.81 h 0.782 l 5.279,25.81 c 0.294,1.369 1.467,2.346 2.933,2.346 h 6.55 c 1.467,0 2.64,-0.977 2.933,-2.346 l 5.28,-26.788 V 1.369 c -0.391,-0.685 -1.076,-1.173 -1.956,-1.271 z"
           fill="#000000"
           id="path29" />
      </g>
    </g>
  </g>
</svg>
