<?xml version="1.0" encoding="UTF-8" standalone="no"?>
<!-- Created with Inkscape (http://www.inkscape.org/) -->

<svg
   width="259"
   height="60"
   viewBox="0 0 68.527082 15.875"
   version="1.1"
   id="svg5"
   inkscape:version="1.1 (c68e22c387, 2021-05-23)"
   sodipodi:docname="7.svg"
   xmlns:inkscape="http://www.inkscape.org/namespaces/inkscape"
   xmlns:sodipodi="http://sodipodi.sourceforge.net/DTD/sodipodi-0.dtd"
   xmlns="http://www.w3.org/2000/svg"
   xmlns:svg="http://www.w3.org/2000/svg">
  <sodipodi:namedview
     id="namedview7"
     pagecolor="#505050"
     bordercolor="#eeeeee"
     borderopacity="1"
     inkscape:pageshadow="0"
     inkscape:pageopacity="0"
     inkscape:pagecheckerboard="0"
     inkscape:document-units="mm"
     showgrid="false"
     units="px"
     width="259px"
     inkscape:zoom="1.5144501"
     inkscape:cx="217.57072"
     inkscape:cy="80.887446"
     inkscape:window-width="1920"
     inkscape:window-height="1013"
     inkscape:window-x="-9"
     inkscape:window-y="-9"
     inkscape:window-maximized="1"
     inkscape:current-layer="layer1" />
  <defs
     id="defs2" />
  <g
     inkscape:label="Camada 1"
     inkscape:groupmode="layer"
     id="layer1">
    <rect
       style="fill:#f9f9f9;stroke:none;stroke-width:1.1611;stroke-linecap:round;stroke-linejoin:round;paint-order:stroke markers fill"
       id="rect31"
       width="68.527084"
       height="15.875"
       x="-5.0862633e-07"
       y="-1.7763568e-15"
       ry="0" />
    <g
       transform="matrix(0.05231844,0,0,0.05231844,-65.789116,50.4266)"
       id="g7654">
      <path
         d="m 1745.3116,-787.56904 c -1.3749,15.25066 14.2506,23.62601 28.2514,23.376 10.3752,-0.25002 23.1259,-2.0001 24.751,-15.62568 3.2501,-27.25117 -85.1288,-7.62531 -85.7537,-64.37775 -0.2502,-30.12628 30.0012,-47.50203 59.3776,-46.62697 41.7516,1.25004 58.6276,24.62603 58.6276,51.12715 h -34.1268 c 0,0 3.1253,-20.25086 -25.126,-21.12588 -10.6255,-0.25002 -22.001,4.00018 -23.3758,13.75059 -3.5004,25.6261 83.6284,6.62528 84.2536,64.62776 0.2499,28.75123 -26.3764,48.25205 -59.5026,47.75205 -65.7527,-0.87506 -61.8777,-48.87712 -62.1276,-52.87727 h 34.7513"
         style="fill:#f0461c;fill-rule:evenodd;stroke:none"
         id="path115" />
      <path
         d="m 2230.9574,-822.32054 v 82.12853 h 35.7515 l -0.1251,-146.7563 h -36.0014 l -36.7517,60.2526 -34.5014,-60.2526 h -37.8767 v 146.63129 h 36.8768 v -79.6284 l 36.0014,58.12749 36.6266,-60.50261"
         style="fill:#f0461c;fill-rule:evenodd;stroke:none"
         id="path119" />
      <path
         d="m 2061.9503,-886.94831 53.377,146.63129 h -36.6266 l -8.625,-25.6261 h -57.7525 l -8.8757,25.6261 h -36.8764 l 53.5024,-146.63129 z m -20.6261,37.00162 -18.7509,53.25225 H 2059.7 l -18.3758,-53.62728 v 0.37503"
         style="fill:#f0461c;fill-rule:evenodd;stroke:none"
         id="path123" />
      <path
         d="m 1903.8183,-787.19401 h -22.2509 v 46.87699 h -34.2515 V -886.8233 h 75.0033 c 27.0013,0 48.0021,23.12601 46.377,51.50222 -1.1249,21.25089 -10.3756,37.00157 -29.8764,45.87696 l 24.5011,49.1271 h -37.6264 z m -22.751,-68.62795 h 34.8768 c 10.2501,0 17.1254,9.1254 17.6255,19.37584 0.5001,9.00036 -6.5003,20.00085 -16.6257,20.00085 h -35.8766 v -39.37669"
         style="fill:#f0461c;fill-rule:evenodd;stroke:none"
         id="path132" />
      <path
         d="m 1630.0569,-733.44173 c 43.8768,0.25002 73.128,-34.7515 72.1278,-78.00333 2.0001,-46.37699 -29.7513,-78.25335 -72.1278,-78.12834 -41.2519,0 -72.2534,32.37639 -72.0031,78.12834 -0.5001,45.12692 28.7511,79.50339 72.0031,78.00333 z m 0,-125.25534 c 25.8759,-0.37503 36.7513,23.25098 36.6266,47.127 -1.5004,21.87593 -11.5006,46.00197 -36.7517,46.25199 -24.8762,0 -36.3768,-23.37603 -36.7517,-46.12698 0.3749,-22.87599 11.0004,-47.62704 36.8768,-47.25201"
         style="fill:#f0461c;fill-rule:evenodd;stroke:none"
         id="path141" />
    </g>
  </g>
</svg>
