<?xml version="1.0" encoding="UTF-8" standalone="no"?>
<!-- Created with Inkscape (http://www.inkscape.org/) -->

<svg
   width="259"
   height="60"
   viewBox="0 0 68.527082 15.875"
   version="1.1"
   id="svg5"
   inkscape:version="1.1 (c68e22c387, 2021-05-23)"
   sodipodi:docname="9.svg"
   xmlns:inkscape="http://www.inkscape.org/namespaces/inkscape"
   xmlns:sodipodi="http://sodipodi.sourceforge.net/DTD/sodipodi-0.dtd"
   xmlns="http://www.w3.org/2000/svg"
   xmlns:svg="http://www.w3.org/2000/svg">
  <sodipodi:namedview
     id="namedview7"
     pagecolor="#505050"
     bordercolor="#eeeeee"
     borderopacity="1"
     inkscape:pageshadow="0"
     inkscape:pageopacity="0"
     inkscape:pagecheckerboard="0"
     inkscape:document-units="mm"
     showgrid="false"
     units="px"
     width="259px"
     inkscape:zoom="1.5144501"
     inkscape:cx="217.57072"
     inkscape:cy="80.887446"
     inkscape:window-width="1920"
     inkscape:window-height="1013"
     inkscape:window-x="-9"
     inkscape:window-y="-9"
     inkscape:window-maximized="1"
     inkscape:current-layer="layer1" />
  <defs
     id="defs2" />
  <g
     inkscape:label="Camada 1"
     inkscape:groupmode="layer"
     id="layer1">
    <rect
       style="fill:#f9f9f9;stroke:none;stroke-width:1.1611;stroke-linecap:round;stroke-linejoin:round;paint-order:stroke markers fill"
       id="rect31"
       width="68.527084"
       height="15.875"
       x="-5.0862633e-07"
       y="-1.7763568e-15"
       ry="0" />
    <path
       id="path674-5"
       d="m 28.667755,5.2670619 0.768949,2.7665556 H 27.843878 Z M 27.269554,9.9715248 26.569858,12.266431 H 30.66058 L 30.002671,9.9715248 Z M 37.946505,3.6085697 h -7.853086 v 2.464468 h 2.477598 v 6.1933933 h 3.986841 c -0.24597,-0.151651 -1.937899,-1.494925 -1.937899,-4.0011756 0,-2.0835636 1.264469,-4.1217613 3.326546,-4.6566857 m 1.361188,6.4405563 c 0.926562,0 1.670436,-0.7689466 1.670436,-1.7408745 0,-0.9659759 -0.697308,-1.8399936 -1.63581,-1.8399936 -0.943278,0 -1.684768,0.8740177 -1.684768,1.8399936 0,0.9719279 0.696118,1.7408745 1.650142,1.7408745 m 8.23637,-0.9982009 -1.59402,-5.4423554 h -4.081169 v 8.6578613 h 2.549235 V 6.8396 h 0.01791 l 1.579691,5.426831 h 4.115799 V 3.6085697 H 47.559594 V 9.0509251 Z M 23.335248,12.266431 24.07196,9.8389782 H 21.34123 V 9.1046545 h 2.954013 L 24.997328,6.7775104 H 21.34123 V 6.0730377 h 3.859083 l 0.74507,-2.464468 h -7.549807 v 8.6578613 z m 0,0"
       style="fill:#1175c7;fill-opacity:1;fill-rule:nonzero;stroke:none;stroke-width:0.305669" />
  </g>
</svg>
