<?xml version="1.0" encoding="UTF-8" standalone="no"?>
<!-- Created with Inkscape (http://www.inkscape.org/) -->

<svg
   width="259"
   height="35"
   viewBox="0 0 68.527082 9.2604167"
   version="1.1"
   id="svg5"
   inkscape:version="1.1 (c68e22c387, 2021-05-23)"
   sodipodi:docname="9_distributor.svg"
   xmlns:inkscape="http://www.inkscape.org/namespaces/inkscape"
   xmlns:sodipodi="http://sodipodi.sourceforge.net/DTD/sodipodi-0.dtd"
   xmlns="http://www.w3.org/2000/svg"
   xmlns:svg="http://www.w3.org/2000/svg">
  <sodipodi:namedview
     id="namedview7"
     pagecolor="#505050"
     bordercolor="#eeeeee"
     borderopacity="1"
     inkscape:pageshadow="0"
     inkscape:pageopacity="0"
     inkscape:pagecheckerboard="0"
     inkscape:document-units="mm"
     showgrid="false"
     units="px"
     width="259px"
     inkscape:zoom="4.2835118"
     inkscape:cx="123.38007"
     inkscape:cy="-6.8868727"
     inkscape:window-width="1920"
     inkscape:window-height="1013"
     inkscape:window-x="-9"
     inkscape:window-y="-9"
     inkscape:window-maximized="1"
     inkscape:current-layer="layer1" />
  <defs
     id="defs2">
    <clipPath
       id="_clipPath_54YrGfEr6ejH1v37yrWMlYAZN0XkJKpK">
      <rect
         width="174"
         height="35"
         id="rect22"
         x="0"
         y="0" />
    </clipPath>
  </defs>
  <g
     inkscape:label="Camada 1"
     inkscape:groupmode="layer"
     id="layer1">
    <rect
       style="fill:#f9f9f9;stroke:none;stroke-width:0.886805;stroke-linecap:round;stroke-linejoin:round;paint-order:stroke markers fill"
       id="rect31"
       width="68.527084"
       height="9.260417"
       x="-5.0862633e-07"
       y="-1.5894572e-07"
       ry="0" />
    <g
       id="g35276"
       transform="matrix(1.2406721,0,0,1.2406721,-8.2462783,-0.61237604)">
      <g
         style="isolation:isolate"
         id="g42"
         transform="matrix(0.05869731,0,0,0.05869731,17.595395,2.5490765)">
        <g
           clip-path="url(#_clipPath_54YrGfEr6ejH1v37yrWMlYAZN0XkJKpK)"
           id="g31">
          <path
             d="m 116.482,9.092 c -1.662,0 -3.031,1.271 -3.031,2.835 V 28.645 H 92.92 L 90.378,24.05 85.979,16.425 V 3.422 c 0,-1.564 -1.369,-2.835 -3.031,-2.835 h -14.86 c -1.662,0 -3.031,1.271 -3.031,2.835 V 28.743 H 62.222 L 55.281,16.522 v -13.1 c 0,-1.564 -1.369,-2.835 -3.031,-2.835 H 37.39 c -1.662,0 -3.031,1.271 -3.031,2.835 V 28.743 H 29.666 L 23.116,2.737 C 22.822,1.466 21.552,0.587 20.183,0.587 h -8.115 c -1.368,0 -2.542,0.879 -2.933,2.15 L 1.998,31.383 c -0.391,1.564 0.587,3.128 2.249,3.421 0.098,0 0.196,0 0.293,0 0.098,0 0.294,0 0.391,0 0.196,0 0.391,0 0.489,0 1.173,-0.195 2.151,-0.977 2.444,-2.15 L 14.512,6.159 h 3.422 l 6.453,26.104 c 0.293,1.271 1.564,2.248 2.933,2.248 h 10.07 c 1.662,0 3.03,-1.271 3.03,-2.835 V 6.257 h 8.995 v 10.95 c 0,0.489 0.097,0.977 0.391,1.368 l 8.114,14.372 c 0.489,0.88 1.564,1.466 2.64,1.466 h 7.626 c 1.662,0 3.03,-1.271 3.03,-2.835 V 6.257 h 8.995 v 10.95 c 0,0.489 0.098,0.977 0.391,1.368 l 8.114,14.372 c 0.391,0.684 1.076,1.173 1.858,1.369 0.293,0.097 0.489,0.097 0.782,0.097 h 25.321 c 1.662,0 3.031,-1.271 3.031,-2.835 V 12.025 c -0.196,-1.662 -1.564,-2.933 -3.226,-2.933 z"
             fill="#000000"
             id="path27" />
          <path
             d="m 169.079,0.098 c -1.662,-0.294 -3.226,0.684 -3.519,2.248 l -5.377,26.397 h -1.564 L 153.437,2.835 c -0.293,-1.369 -1.466,-2.346 -2.933,-2.346 h -5.67 c -1.467,0 -2.64,0.977 -2.933,2.346 l -5.28,25.81 h -1.564 l -5.279,-25.81 c -0.294,-1.369 -1.467,-2.346 -2.933,-2.346 h -2.444 -26.104 c -1.662,0 -3.03,1.271 -3.03,2.835 v 19.553 c 0,1.564 1.368,2.835 3.03,2.835 1.662,0 3.031,-1.271 3.031,-2.835 V 6.257 h 23.073 v 0.098 l 5.181,25.81 c 0.294,1.369 1.467,2.346 2.933,2.346 h 6.55 c 1.467,0 2.64,-0.977 2.933,-2.346 l 5.28,-25.81 h 0.782 l 5.279,25.81 c 0.294,1.369 1.467,2.346 2.933,2.346 h 6.55 c 1.467,0 2.64,-0.977 2.933,-2.346 l 5.28,-26.788 V 1.369 c -0.391,-0.685 -1.076,-1.173 -1.956,-1.271 z"
             fill="#000000"
             id="path29" />
        </g>
      </g>
      <g
         style="clip-rule:evenodd;fill-rule:evenodd;stroke-linejoin:round;stroke-miterlimit:1.41421"
         id="g101"
         transform="matrix(0.0449011,0,0,0.0449011,41.031011,2.5685598)">
        <g
           id="g84">
          <path
             d="M 30.49,38.19 H 15.63 l -1.58,4.87 h 18.02 z"
             style="fill:#41c363;fill-rule:nonzero"
             id="path68" />
          <path
             d="m 24.32,1.63 h 7.13 l 12.67,39 h -7.13 z"
             style="fill-rule:nonzero"
             id="path70" />
          <path
             d="M 21.8,1.63 H 14.67 L 2,40.63 h 7.13 z"
             style="fill-rule:nonzero"
             id="path72" />
          <path
             d="M 208.75,1.63 H 181.2 v 5.73 h 10.56 v 33.27 h 6.43 V 7.36 h 10.56 z"
             style="fill-rule:nonzero"
             id="path74" />
          <path
             d="m 142.65,1.63 v 39 h 25.04 V 34.9 h -18.6 V 23.81 h 15.94 V 18.09 H 149.09 V 7.36 h 18.6 V 1.63 Z"
             style="fill-rule:nonzero"
             id="path76" />
          <path
             d="M 75.78,1.63 66.66,30.78 57.55,1.64 57.54,1.63 h -7.13 l 12.67,39 h 7.16 l 12.67,-39 z"
             style="fill-rule:nonzero"
             id="path78" />
          <path
             d="m 101.77,1.63 h -5.49 v 39 h 6.44 V 14.56 l 17.58,26.07 h 5.49 v -39 h -6.43 V 27.7 Z"
             style="fill-rule:nonzero"
             id="path80" />
          <path
             d="m 215.14,7.35 c -1.58,0 -2.86,-1.28 -2.86,-2.86 0,-1.58 1.28,-2.86 2.86,-2.86 1.58,0 2.86,1.28 2.86,2.86 0,0.759 -0.301,1.486 -0.838,2.022 -0.536,0.537 -1.263,0.838 -2.022,0.838 z m 0,-5.19 c -0.614,0 -1.203,0.247 -1.634,0.685 -0.43,0.438 -0.667,1.031 -0.656,1.645 -0.056,0.852 0.366,1.665 1.097,2.109 0.73,0.443 1.646,0.443 2.376,0 0.731,-0.444 1.153,-1.257 1.097,-2.109 0.013,-0.613 -0.221,-1.206 -0.65,-1.645 -0.429,-0.438 -1.017,-0.685 -1.63,-0.685 z m 0.6,3.87 -0.63,-1.22 h -0.4 V 6 h -0.57 V 2.94 h 1.16 c 0.533,-10e-4 0.973,0.417 1,0.95 0.008,0.385 -0.242,0.728 -0.61,0.84 l 0.69,1.3 z m -0.51,-2.61 h -0.52 v 0.93 h 0.52 c 0.182,0.027 0.364,-0.055 0.463,-0.21 0.1,-0.155 0.1,-0.355 0,-0.51 -0.099,-0.155 -0.281,-0.237 -0.463,-0.21 z"
             style="fill-rule:nonzero"
             id="path82" />
        </g>
      </g>
      <g
         id="g11636"
         transform="translate(6.0525314,0.00196054)">
        <rect
           x="26.16147"
           y="3.6597912"
           class="st0"
           width="6.5112138"
           height="0.12330157"
           id="rect4054"
           style="stroke-width:0.0148556" />
        <path
           d="m 26.162957,4.0356381 h 0.493206 v 0.09359 H 26.30557 v 0.1010181 h 0.332766 v 0.089134 H 26.30557 v 0.1114171 h 0.353564 v 0.09359 h -0.496177 z m 0.589767,0.487264 h 0.464981 V 4.424855 H 26.895338 V 4.0341525 h -0.144099 v 0.4887496 z m 0.549658,0 h 0.496177 v -0.09359 H 27.444996 V 4.3178946 h 0.332765 V 4.228761 H 27.444996 V 4.1277428 h 0.350592 v -0.09359 h -0.493206 z m 1.19142,-0.3030545 C 28.473004,4.0519792 28.309592,4.022268 28.18332,4.022268 c -0.191638,0 -0.311968,0.075764 -0.311968,0.2570021 0,0.1812384 0.12033,0.257002 0.311968,0.257002 0.167868,0 0.294141,-0.059422 0.311967,-0.2005507 h -0.155984 c -0.01337,0.077249 -0.0817,0.1084459 -0.151527,0.1084459 -0.136671,0 -0.164897,-0.098047 -0.164897,-0.1648972 0,-0.06685 0.02823,-0.1648973 0.164897,-0.1648973 0.07428,0 0.138157,0.034168 0.151527,0.1054748 z m 0.230262,0.3030545 h 0.144099 V 4.1277428 h 0.196094 V 4.0356381 H 28.52797 v 0.092105 h 0.196094 z m 0.404072,0 h 0.1441 V 4.3446347 h 0.178267 c 0.04457,0 0.07576,0.017827 0.07576,0.084677 0,0.050509 0,0.071307 0.01337,0.09359 h 0.157469 c -0.02525,-0.025255 -0.02674,-0.081706 -0.02674,-0.1054749 0,-0.047538 -0.0089,-0.121816 -0.07279,-0.1307293 v -0.00149 c 0.05942,-0.019312 0.08616,-0.057937 0.08616,-0.1173593 0,-0.050509 -0.02377,-0.1322149 -0.170839,-0.1322149 h -0.384761 z m 0.1441,-0.3951593 h 0.182724 c 0.03417,0 0.07576,0.011884 0.07576,0.060908 0,0.046052 -0.03714,0.062394 -0.06833,0.062394 h -0.190152 z m 0.800717,-0.1069604 c -0.283742,0 -0.328309,0.155984 -0.328309,0.2570021 0,0.1010181 0.04457,0.2570021 0.328309,0.2570021 0.283742,0 0.328309,-0.155984 0.328309,-0.2570021 0,-0.1010181 -0.04457,-0.2570021 -0.328309,-0.2570021 m 0,0.4218994 c -0.130729,0 -0.175296,-0.089134 -0.175296,-0.1648973 0,-0.075764 0.04605,-0.1648973 0.175296,-0.1648973 0.130729,0 0.176782,0.089134 0.176782,0.1648973 0,0.077249 -0.04605,0.1648973 -0.176782,0.1648973 m 0.86014,-0.068336 v 0 L 30.653807,4.0341525 h -0.166382 v 0.487264 h 0.139642 V 4.181223 h 0.0015 l 0.288199,0.3401935 h 0.155984 v -0.487264 h -0.139643 z m 0.255516,0.1485561 h 0.1441 v -0.487264 h -0.1441 z m 0.86014,-0.3030545 C 32.027951,4.0519792 31.86454,4.022268 31.738267,4.022268 c -0.193123,0 -0.311968,0.075764 -0.311968,0.2570021 0,0.1812384 0.120331,0.257002 0.311968,0.257002 0.167868,0 0.294141,-0.059422 0.311968,-0.2005507 h -0.155984 c -0.01486,0.077249 -0.08171,0.1084459 -0.151527,0.1084459 -0.136672,0 -0.164898,-0.098047 -0.164898,-0.1648972 0,-0.06685 0.02823,-0.1648973 0.164898,-0.1648973 0.07428,0 0.138157,0.034168 0.151527,0.1054748 z m 0.601652,-0.043081 C 32.641488,4.0386092 32.479562,4.022268 32.371116,4.022268 c -0.164897,0 -0.261459,0.044567 -0.261459,0.1530128 0,0.099533 0.08913,0.1247871 0.179753,0.1381572 l 0.130729,0.017827 c 0.05645,0.00743 0.08913,0.017827 0.08913,0.056451 0,0.041596 -0.04605,0.060908 -0.112902,0.060908 -0.06239,0 -0.135187,-0.011884 -0.136672,-0.078735 h -0.161926 c 0.0015,0.1530128 0.169354,0.1678684 0.297112,0.1678684 0.207978,0 0.274829,-0.072793 0.274829,-0.1634117 0,-0.089134 -0.07279,-0.121816 -0.169354,-0.1366716 l -0.179753,-0.02674 c -0.03714,-0.00594 -0.06091,-0.019312 -0.06091,-0.046052 0,-0.032682 0.03862,-0.057937 0.09805,-0.057937 0.05794,0 0.123301,0.00743 0.132215,0.069821 z M 26.415502,3.0581389 h 0.522917 V 2.9244384 H 26.415502 V 2.7535989 h 0.597195 V 2.6198984 h -0.851226 v 0.754665 h 0.252545 V 3.0581389 Z M 28.131325,2.621384 h -0.254031 v 0.4961774 c 0,0.092105 -0.06982,0.1440994 -0.240661,0.1440994 -0.115874,0 -0.212435,-0.046052 -0.212435,-0.1515272 V 2.6198984 h -0.254031 v 0.5006341 c 0.003,0.075764 0.02823,0.1366716 0.09211,0.182724 0.105475,0.074278 0.268886,0.092105 0.377332,0.092105 0.300084,0 0.48875,-0.084677 0.48875,-0.2837422 V 2.621384 Z m 0.748723,0.1337005 h 0.359505 V 2.621384 h -0.9671 v 0.1337005 h 0.359506 V 3.376049 h 0.248089 z M 30.338869,2.621384 h -0.254031 v 0.4961774 c 0,0.092105 -0.06982,0.1440994 -0.240661,0.1440994 -0.115874,0 -0.212436,-0.046052 -0.212436,-0.1515272 V 2.6198984 h -0.25403 v 0.5006341 c 0.003,0.075764 0.02822,0.1366716 0.0921,0.182724 0.105475,0.074278 0.268887,0.092105 0.377333,0.092105 0.300083,0 0.488749,-0.084677 0.488749,-0.2837422 V 2.621384 Z m 0.243632,0.754665 h 0.243632 V 3.0804223 h 0.257002 c 0.184209,0 0.193123,0.04011 0.193123,0.1426139 0,0.077249 0.0104,0.1173593 0.02674,0.1515272 h 0.274828 v -0.019312 c -0.05348,-0.01337 -0.05348,-0.04011 -0.05348,-0.1500416 0,-0.1411283 -0.05348,-0.1634118 -0.150041,-0.1916374 0.117359,-0.025255 0.184209,-0.096562 0.184209,-0.1797529 0,-0.065365 -0.05794,-0.2139208 -0.374361,-0.2139208 H 30.582501 Z M 30.826133,2.9541497 V 2.7521134 h 0.310482 c 0.145585,0 0.17381,0.059422 0.17381,0.098047 0,0.074278 -0.06239,0.1025037 -0.191637,0.1025037 h -0.292655 z m 1.82724,-0.3327657 h -0.874996 v 0.754665 h 0.894308 V 3.2423485 H 32.022009 V 3.04774 h 0.580854 V 2.9140395 h -0.580854 v -0.158955 h 0.631364 z"
           id="path4056"
           style="stroke-width:0.0148556" />
        <g
           id="g11603">
          <path
             id="path4062"
             style="fill:#00b100;fill-opacity:1;stroke-width:0.0561472"
             class="st0"
             d="m 89.789062,9.609375 v 0.1523438 7.4726562 0.152344 h 0.150391 7.472656 0.152344 V 17.234375 9.7617188 9.609375 h -0.146484 -7.472657 z m 0.15625,0.1523438 h 7.472657 v 7.4726562 h -7.472657 z m 0.150391,0.1464843 v 4.8945309 0.775391 1.515625 h 7.1875 V 17.02148 10.142574 9.9081991 h -2.796875 z m 6.710938,0.054687 h 0.414062 v 0.2363289 l -2.953125,2.976562 h -0.644531 l 1.21875,-1.230469 h -0.107422 l -1.21875,1.230469 h -0.650391 l 1.21875,-1.230469 h -0.107422 l -1.21875,1.230469 H 92.269531 V 13.011719 12.90625 12.248047 12.142578 11.625 h 0.511719 0.105469 0.652343 0.105469 0.652344 0.105469 0.529297 V 11.091797 10.986328 10.328125 10.222656 10.013672 9.96875 h 0.335937 0.02344 0.65039 l -0.673828,0.679688 v 0.107421 L 96.04883,9.96875 h 0.650391 l -1.431641,1.443359 v 0.107422 z m 0.404297,0.3437509 v 0.662109 h 0.0098 l -2.240234,2.263671 0.04492,0.04492 0.01172,0.0098 2.189453,-2.205078 v 0.65625 l -1.953124,1.964844 v 0.01172 0.08398 0.01172 l 1.953124,-1.966797 v 0.658204 l -1.953124,1.964843 v 0.02148 0.08594 l 1.953124,-1.966797 v 0.658203 l -3.738281,3.773436 h -0.658203 l 1.826172,-1.841795 h -0.08398 -0.02344 l -1.824219,1.841795 h -0.123047 -0.332031 v -0.203123 -0.0059 -0.08398 -0.02148 -0.658203 -0.01563 -0.08984 -0.658204 -0.105468 -0.332032 h 0.326172 0.105469 0.652344 0.08984 0.01758 0.65039 0.01172 0.08398 0.0059 0.65039 0.02344 0.0332 v -0.0332 -0.02344 -0.65625 -0.01172 -0.08398 -0.01172 -0.65625 -0.02148 -0.08984 -0.101563 h -0.550781 z m 0.0098,3.064453 v 0.652344 l -2.980469,3.009765 h -0.65039 z m 0,0.763672 v 0.652343 l -2.222656,2.246094 h -0.650391 z m 0,0.757812 v 0.658203 l -1.464844,1.476562 h -0.65039 z m 0,0.763672 v 0.658202 l -0.707031,0.712891 h -0.650391 z m 0,0.76953 v 0.607422 h -0.599609 z"
             transform="scale(0.26458333)" />
          <path
             class="st0"
             d="m 24.689382,3.1621161 -0.193123,0.1946085 v -0.028226 l 0.164898,-0.1663828 z m -0.05348,0.8571687 h -0.02377 l -0.114388,0.1158737 v 0.023769 0.00446 l 0.144099,-0.1440994 z m 0.203522,0 h -0.02228 -0.003 l -0.314939,0.31791 v 0.00446 0.022283 0.00149 l 0.341679,-0.3461357 z"
             id="path4064"
             style="fill:#008000;fill-opacity:1;stroke-width:0.0148556" />
          <polygon
             class="st2"
             points="116.7,350.9 115.2,350.9 104.6,350.9 103.1,350.9 92.4,350.9 90.9,350.9 80.3,350.9 78.8,350.9 70,350.9 70,359.8 70,361.3 70,372 70,373.6 70,384.3 70,385.9 70,389.5 75.9,389.5 75.9,379.9 75.9,378.4 75.9,367.7 75.9,366.1 75.9,356.7 85.2,356.7 86.7,356.7 97.3,356.7 98.9,356.7 109.5,356.7 111,356.7 121.6,356.7 123.2,356.7 123.5,356.7 123.5,356.4 123.5,354.9 123.5,344.2 123.5,342.6 123.5,331.9 123.5,330.3 123.5,326.9 119.8,323.3 119.1,322.5 117.4,320.8 117.4,324.2 117.4,325.8 117.4,336.5 117.4,338 117.4,348.7 117.4,350.3 117.4,350.9 "
             id="polygon4066"
             style="fill:#008000;fill-opacity:1"
             transform="matrix(0.01485561,0,0,0.01485561,23.370204,-1.2797113)" />
          <polygon
             class="st2"
             points="113.2,293.2 111.7,293.2 101.1,293.2 99.5,293.2 88.9,293.2 87.4,293.2 70,293.2 70,310.8 70,312.3 70,320.9 72.1,320.9 73.7,320.9 75.8,320.9 75.8,318.7 75.8,317.2 75.8,306.5 75.8,304.9 75.8,299 81.7,299 83.2,299 93.8,299 95.4,299 106,299 107.5,299 118.1,299 119.7,299 123.4,299 123.4,295.2 123.4,293.7 123.4,283 123.4,281.4 123.4,270.7 123.4,269.1 123.4,263.7 117.4,263.7 117.4,264.5 117.4,275.2 117.4,276.8 117.4,287.5 117.4,289 117.4,293.2 "
             id="polygon4068"
             style="fill:#008000;fill-opacity:1"
             transform="matrix(0.01485561,0,0,0.01485561,23.370204,-1.2797113)" />
        </g>
      </g>
    </g>
  </g>
</svg>
