<?xml version="1.0" encoding="UTF-8" standalone="no"?>
<!-- Generator: Adobe Illustrator 19.2.1, SVG Export Plug-In . SVG Version: 6.00 Build 0)  -->

<svg
   version="1.1"
   id="layer"
   x="0px"
   y="0px"
   viewBox="0 0 652 652"
   style="enable-background:new 0 0 652 652;"
   xml:space="preserve"
   sodipodi:docname="future-electronics-vector-logo.svg"
   inkscape:version="1.1 (c68e22c387, 2021-05-23)"
   xmlns:inkscape="http://www.inkscape.org/namespaces/inkscape"
   xmlns:sodipodi="http://sodipodi.sourceforge.net/DTD/sodipodi-0.dtd"
   xmlns="http://www.w3.org/2000/svg"
   xmlns:svg="http://www.w3.org/2000/svg"><defs
   id="defs4073" /><sodipodi:namedview
   id="namedview4071"
   pagecolor="#505050"
   bordercolor="#eeeeee"
   borderopacity="1"
   inkscape:pageshadow="0"
   inkscape:pageopacity="0"
   inkscape:pagecheckerboard="0"
   showgrid="false"
   inkscape:zoom="3.6873666"
   inkscape:cx="137.6321"
   inkscape:cy="311.74009"
   inkscape:window-width="1920"
   inkscape:window-height="1013"
   inkscape:window-x="-9"
   inkscape:window-y="-9"
   inkscape:window-maximized="1"
   inkscape:current-layer="layer" />
<style
   type="text/css"
   id="style4052">
	.st0{fill:#00A05D;}
	.st1{fill:#FFFFFF;}
	.st2{fill:#007F43;}
</style>
<rect
   x="187.7"
   y="332.5"
   class="st0"
   width="438.3"
   height="8.3"
   id="rect4054" />
<path
   d="M187.8,357.8H221v6.3h-23.6v6.8h22.4v6h-22.4v7.5h23.8v6.3h-33.4V357.8z M227.5,390.6h31.3V384h-21.7v-26.3h-9.7V390.6z   M264.5,390.6h33.4v-6.3h-23.8v-7.5h22.4v-6h-22.4V364h23.6v-6.3h-33.2V390.6z M344.7,370.2c-1.4-11.3-12.4-13.3-20.9-13.3  c-12.9,0-21,5.1-21,17.3c0,12.2,8.1,17.3,21,17.3c11.3,0,19.8-4,21-13.5h-10.5c-0.9,5.2-5.5,7.3-10.2,7.3c-9.2,0-11.1-6.6-11.1-11.1  c0-4.5,1.9-11.1,11.1-11.1c5,0,9.3,2.3,10.2,7.1H344.7z M360.2,390.6h9.7V364h13.2v-6.2H347v6.2h13.2V390.6z M387.4,390.6h9.7v-12  h12c3,0,5.1,1.2,5.1,5.7c0,3.4,0,4.8,0.9,6.3h10.6c-1.7-1.7-1.8-5.5-1.8-7.1c0-3.2-0.6-8.2-4.9-8.8v-0.1c4-1.3,5.8-3.9,5.8-7.9  c0-3.4-1.6-8.9-11.5-8.9h-25.9V390.6z M397.1,364h12.3c2.3,0,5.1,0.8,5.1,4.1c0,3.1-2.5,4.2-4.6,4.2h-12.8V364z M451,356.8  c-19.1,0-22.1,10.5-22.1,17.3c0,6.8,3,17.3,22.1,17.3c19.1,0,22.1-10.5,22.1-17.3C473.1,367.3,470.1,356.8,451,356.8 M451,385.2  c-8.8,0-11.8-6-11.8-11.1c0-5.1,3.1-11.1,11.8-11.1c8.8,0,11.9,6,11.9,11.1C462.9,379.3,459.8,385.2,451,385.2 M508.9,380.6  L508.9,380.6l-18.8-22.9h-11.2v32.8h9.4v-22.9h0.1l19.4,22.9h10.5v-32.8h-9.4V380.6z M526.1,390.6h9.7v-32.8h-9.7V390.6z M584,370.2  c-1.4-11.3-12.4-13.3-20.9-13.3c-13,0-21,5.1-21,17.3c0,12.2,8.1,17.3,21,17.3c11.3,0,19.8-4,21-13.5h-10.5c-1,5.2-5.5,7.3-10.2,7.3  c-9.2,0-11.1-6.6-11.1-11.1c0-4.5,1.9-11.1,11.1-11.1c5,0,9.3,2.3,10.2,7.1H584z M624.5,367.3c-0.6-9.3-11.5-10.4-18.8-10.4  c-11.1,0-17.6,3-17.6,10.3c0,6.7,6,8.4,12.1,9.3l8.8,1.2c3.8,0.5,6,1.2,6,3.8c0,2.8-3.1,4.1-7.6,4.1c-4.2,0-9.1-0.8-9.2-5.3h-10.9  c0.1,10.3,11.4,11.3,20,11.3c14,0,18.5-4.9,18.5-11c0-6-4.9-8.2-11.4-9.2l-12.1-1.8c-2.5-0.4-4.1-1.3-4.1-3.1c0-2.2,2.6-3.9,6.6-3.9  c3.9,0,8.3,0.5,8.9,4.7H624.5z M204.8,292H240v-9h-35.2v-11.5H245v-9h-57.3v50.8h17V292z M320.3,262.6h-17.1v33.4  c0,6.2-4.7,9.7-16.2,9.7c-7.8,0-14.3-3.1-14.3-10.2v-33h-17.1v33.7c0.2,5.1,1.9,9.2,6.2,12.3c7.1,5,18.1,6.2,25.4,6.2  c20.2,0,32.9-5.7,32.9-19.1V262.6z M370.7,271.6h24.2v-9h-65.1v9h24.2v41.8h16.7V271.6z M468.9,262.6h-17.1v33.4  c0,6.2-4.7,9.7-16.2,9.7c-7.8,0-14.3-3.1-14.3-10.2v-33h-17.1v33.7c0.2,5.1,1.9,9.2,6.2,12.3c7.1,5,18.1,6.2,25.4,6.2  c20.2,0,32.9-5.7,32.9-19.1V262.6z M485.3,313.4h16.4v-19.9H519c12.4,0,13,2.7,13,9.6c0,5.2,0.7,7.9,1.8,10.2h18.5v-1.3  c-3.6-0.9-3.6-2.7-3.6-10.1c0-9.5-3.6-11-10.1-12.9c7.9-1.7,12.4-6.5,12.4-12.1c0-4.4-3.9-14.4-25.2-14.4h-40.5V313.4z M501.7,285  v-13.6h20.9c9.8,0,11.7,4,11.7,6.6c0,5-4.2,6.9-12.9,6.9H501.7z M624.7,262.6h-58.9v50.8H626v-9h-43.8v-13.1h39.1v-9h-39.1v-10.7  h42.5V262.6z"
   id="path4056" />





<g
   id="g4259"><path
     class="st2"
     d="M161.9,257.3H28.8H26v2.7v133.1v2.7h2.7h133.1h2.7v-2.7V260v-2.7H161.9z M161.9,393.1H28.8V260h133.1V393.1z"
     id="path4060" /><path
     class="st0"
     d="M 159.3,389.3 V 266.8 262.6 H 109.5 31.3 v 87.2 13.8 27 h 128 z m -1.1,0.2 h -10.7 l 10.7,-10.8 z m 0,-12.8 -12.6,12.7 H 134 L 158.2,365 Z m 0,-13.6 -26.1,26.3 h -11.6 l 37.7,-38 z m 0,-13.6 -39.6,40 H 107 l 51.2,-51.6 z m 0,-13.6 -53.1,53.6 H 93.5 l 64.7,-65.2 z m 0,-54.4 -39.9,40.3 0.8,0.8 0.2,0.2 39,-39.3 v 11.7 l -34.8,35 v 0.2 1.5 0.2 l 34.8,-35 v 11.7 l -34.8,35 v 0.4 1.5 l 34.8,-35 v 11.7 L 91.7,389.6 H 80 l 32.5,-32.8 H 111 110.6 L 78.1,389.6 H 75.9 70 v -3.6 -0.1 -1.5 -0.4 -11.7 -0.3 -1.6 -11.7 -1.9 0 -5.9 h 5.8 1.9 11.6 1.6 0.3 11.6 0.2 1.5 0.1 v 0 h 11.6 0.4 0.6 v -0.6 -0.4 0 -11.7 -0.2 -1.5 -0.2 -11.7 0 -0.4 -1.6 0 -1.8 h -9.8 L 158,269.7 v 11.8 z m -34.4,-17.8 h 11.6 l -12,12.1 v 1.9 l 13.9,-14 h 11.6 l -25.5,25.7 v 1.9 l 27.4,-27.7 h 7.4 v 4.2 l -52.6,53 H 94.1 l 21.7,-21.9 h -1.9 L 92.2,320.8 H 80.6 l 21.7,-21.9 h -1.9 L 78.7,320.8 H 70 v -2.9 -1.9 -11.7 0 -1.9 -9.2 h 9.1 v 0 H 81 92.6 v 0 h 1.9 11.6 v 0 h 1.9 9.4 v -9.5 -1.9 0 -11.7 -1.9 -3.7 -0.8 h 6 0.4 z"
     id="path4062"
     sodipodi:insensitive="true" /><path
     class="st0"
     d="M88.8,299l-13,13.1v-1.9L86.9,299H88.8z M85.2,356.7h-1.6l-7.7,7.8v1.6v0.3l9.7-9.7H85.2z M98.9,356.7h-1.5  h-0.2l-21.2,21.4v0.3v1.5v0.1L99,356.7H98.9z"
     id="path4064" /><polygon
     class="st2"
     points="117.4,324.2 117.4,325.8 117.4,336.5 117.4,338 117.4,348.7 117.4,350.3 117.4,350.9 116.7,350.9   115.2,350.9 104.6,350.9 103.1,350.9 92.4,350.9 90.9,350.9 80.3,350.9 78.8,350.9 70,350.9 70,359.8 70,361.3 70,372 70,373.6   70,384.3 70,385.9 70,389.5 75.9,389.5 75.9,379.9 75.9,378.4 75.9,367.7 75.9,366.1 75.9,356.7 85.2,356.7 86.7,356.7 97.3,356.7   98.9,356.7 109.5,356.7 111,356.7 121.6,356.7 123.2,356.7 123.5,356.7 123.5,356.4 123.5,354.9 123.5,344.2 123.5,342.6   123.5,331.9 123.5,330.3 123.5,326.9 119.8,323.3 119.1,322.5 117.4,320.8 "
     id="polygon4066" /><polygon
     class="st2"
     points="123.4,295.2 123.4,293.7 123.4,283 123.4,281.4 123.4,270.7 123.4,269.1 123.4,263.7 117.4,263.7   117.4,264.5 117.4,275.2 117.4,276.8 117.4,287.5 117.4,289 117.4,293.2 113.2,293.2 111.7,293.2 101.1,293.2 99.5,293.2   88.9,293.2 87.4,293.2 70,293.2 70,310.8 70,312.3 70,320.9 72.1,320.9 73.7,320.9 75.8,320.9 75.8,318.7 75.8,317.2 75.8,306.5   75.8,304.9 75.8,299 81.7,299 83.2,299 93.8,299 95.4,299 106,299 107.5,299 118.1,299 119.7,299 123.4,299 "
     id="polygon4068" /></g>
</svg>
