<?xml version="1.0" encoding="UTF-8" standalone="no"?>
<!-- Created with Inkscape (http://www.inkscape.org/) -->

<svg
   version="1.1"
   id="svg247"
   width="365"
   height="340"
   viewBox="0 0 365 340"
   sodipodi:docname="issi.svg"
   inkscape:version="1.1 (c68e22c387, 2021-05-23)"
   xmlns:inkscape="http://www.inkscape.org/namespaces/inkscape"
   xmlns:sodipodi="http://sodipodi.sourceforge.net/DTD/sodipodi-0.dtd"
   xmlns="http://www.w3.org/2000/svg"
   xmlns:svg="http://www.w3.org/2000/svg">
  <defs
     id="defs251" />
  <sodipodi:namedview
     id="namedview249"
     pagecolor="#505050"
     bordercolor="#eeeeee"
     borderopacity="1"
     inkscape:pageshadow="0"
     inkscape:pageopacity="0"
     inkscape:pagecheckerboard="0"
     showgrid="false"
     inkscape:zoom="1.25"
     inkscape:cx="134"
     inkscape:cy="94.8"
     inkscape:window-width="1920"
     inkscape:window-height="1013"
     inkscape:window-x="-9"
     inkscape:window-y="-9"
     inkscape:window-maximized="1"
     inkscape:current-layer="g253"
     showguides="true"
     inkscape:guide-bbox="true">
    <sodipodi:guide
       position="179.8,223"
       orientation="0,-1"
       id="guide6687" />
    <sodipodi:guide
       position="163.6,106.2"
       orientation="0,-1"
       id="guide6689" />
  </sodipodi:namedview>
  <g
     inkscape:groupmode="layer"
     inkscape:label="Image"
     id="g253">
    <g
       id="g18449"
       transform="translate(-69.199997,82)">
      <rect
         style="fill:#bc002e;fill-opacity:1;stroke:none;stroke-width:3.4885;stroke-linecap:round;stroke-linejoin:round;paint-order:stroke markers fill"
         id="rect6847"
         width="294.39999"
         height="176.39999"
         x="104.5"
         y="-0.19999695" />
      <g
         id="g6974"
         transform="translate(61.500002,-87.400002)"
         style="fill:#ffffff;fill-opacity:1">
        <path
           style="fill:#ffffff;fill-opacity:1;stroke:none;stroke-width:1px;stroke-linecap:butt;stroke-linejoin:miter;stroke-opacity:1"
           d="m 124.2,233.6 c 3.49699,-2.00702 6.55037,-3.92434 9.20461,-5.76894 2.62196,-1.82218 4.85443,-3.5734 6.74026,-5.27004 1.63947,-1.47501 3.01697,-2.90876 4.16064,-4.31203 2.0958,-2.57152 3.40639,-5.04065 4.1051,-7.47364 0.71624,-2.49405 0.7895,-4.95011 0.40646,-7.43952 -0.0777,-0.50509 -0.17422,-1.01155 -0.28794,-1.51998 -0.57031,-2.54968 -1.74692,-4.67483 -3.4672,-6.79131 -0.92172,-1.134 -1.99951,-2.26551 -3.22374,-3.45849 -1.06482,-1.03763 -2.24043,-2.12178 -3.52049,-3.29452 -1.10217,-1.00977 -2.28177,-2.08522 -3.53476,-3.25322 -1.15921,-1.13985 -2.35308,-2.29382 -3.54497,-3.45721 -1.3906,-1.35732 -2.77851,-2.72747 -4.10555,-4.10294 -2.69677,-2.79516 -5.1422,-5.61231 -6.84804,-8.38858 -1.52126,-2.52772 -2.93151,-5.55606 -4.02096,-9.23865 -0.74353,-2.51325 -0.96341,-5.3064 -0.60039,-8.27218 0.28873,-2.35878 0.94618,-4.82676 2.00218,-7.34997 0.85315,-2.03851 1.96642,-4.11307 3.35556,-6.19522 1.37838,-2.06603 3.02837,-4.13954 4.96532,-6.19272 1.58619,-1.68138 3.36484,-3.34913 5.34436,-4.98799 1.7859,-1.47855 3.7353,-2.93357 5.85439,-4.35386 1.63715,-1.09728 3.37559,-2.17382 5.21817,-3.22447 1.34328,-0.76594 2.74191,-1.51811 4.19699,-2.25452 h 6.6 8 6.8 6.4 5.4 l 0.8,3.4 c -1.70173,0.97367 -3.39134,1.96379 -5.05346,2.97155 -1.37888,0.83603 -2.73884,1.6842 -4.07109,2.5452 -2.35847,1.52421 -4.63013,3.08861 -6.76627,4.697 -1.42022,1.06934 -2.78053,2.15811 -4.06663,3.26745 -1.46818,1.26639 -2.83965,2.55956 -4.0931,3.88118 -1.36228,1.43637 -2.58517,2.90633 -3.64132,4.41202 -1.66918,2.37964 -2.9219,4.84851 -3.65025,7.41499 -0.62341,2.1967 -0.86266,4.46491 -0.6501,6.8099 0.19869,2.19192 0.79214,4.45091 1.8356,6.78128 0.49822,1.11268 1.09904,2.24164 1.80846,3.38733 0.80352,1.29766 1.99443,2.75854 3.35997,4.25675 1.25187,1.3735 2.65049,2.77836 4.03195,4.1176 2.17434,2.1079 4.30615,4.05322 5.75624,5.45775 3.10846,2.78336 5.71182,5.26164 7.86429,7.53924 0.97152,1.028 1.85119,2.01512 2.64398,2.97096 2.22275,2.67985 3.76263,5.11381 4.72948,7.51342 1.0231,2.53923 1.40455,5.04001 1.27449,7.753 -0.0774,1.6143 -0.33588,3.20341 -0.74806,4.76097 -0.46773,1.76749 -1.13337,3.49437 -1.95684,5.1714 -0.68262,1.39018 -1.47371,2.7461 -2.35044,4.06251 -0.97905,1.47006 -2.06491,2.89083 -3.22579,4.25498 -0.49094,0.57691 -0.9953,1.14369 -1.51067,1.69979 -1.19055,1.28463 -2.43987,2.51227 -3.71832,3.67606 -1.57496,1.4337 -3.19414,2.77052 -4.80212,3.99767 l -6.59881,-0.0335 -4.60192,-0.0234 -7.99878,-0.0406 -8.99976,-0.0457 z"
           id="path290"
           sodipodi:nodetypes="cssssssssscsscsssssssscccccccsssssssssssscsssssssssscccccc" />
        <path
           style="fill:#ffffff;fill-opacity:1;stroke:none;stroke-width:1px;stroke-linecap:butt;stroke-linejoin:miter;stroke-opacity:1"
           d="m 198.2,233.6 c 3.49699,-2.00702 6.55037,-3.92434 9.20461,-5.76894 2.62196,-1.82218 4.85443,-3.5734 6.74026,-5.27004 1.63947,-1.47501 3.01697,-2.90876 4.16064,-4.31203 2.0958,-2.57152 3.40639,-5.04065 4.1051,-7.47364 0.71624,-2.49405 0.7895,-4.95011 0.40646,-7.43952 -0.0777,-0.50509 -0.17422,-1.01155 -0.28794,-1.51998 -0.57031,-2.54968 -1.74692,-4.67483 -3.4672,-6.79131 -0.92172,-1.134 -1.99951,-2.26551 -3.22374,-3.45849 -1.06482,-1.03763 -2.24043,-2.12178 -3.52049,-3.29452 -1.10217,-1.00977 -2.28177,-2.08522 -3.53476,-3.25322 -1.15921,-1.13985 -2.35308,-2.29382 -3.54497,-3.45721 -1.3906,-1.35732 -2.77851,-2.72747 -4.10555,-4.10294 -2.69677,-2.79516 -5.1422,-5.61231 -6.84804,-8.38858 -1.52126,-2.52772 -2.93151,-5.55606 -4.02096,-9.23865 -0.74353,-2.51325 -0.96341,-5.3064 -0.60039,-8.27218 0.28873,-2.35878 0.94618,-4.82676 2.00218,-7.34997 0.85315,-2.03851 1.96642,-4.11307 3.35556,-6.19522 1.37838,-2.06603 3.02837,-4.13954 4.96532,-6.19272 1.58619,-1.68138 3.36484,-3.34913 5.34436,-4.98799 1.7859,-1.47855 3.7353,-2.93357 5.85439,-4.35386 1.63715,-1.09728 3.37559,-2.17382 5.21817,-3.22447 1.34328,-0.76594 2.74191,-1.51811 4.19699,-2.25452 h 6.6 8 6.8 6.4 5.4 l 0.8,3.4 c -1.70173,0.97367 -3.39134,1.96379 -5.05346,2.97155 -1.37888,0.83603 -2.73884,1.6842 -4.07109,2.5452 -2.35847,1.52421 -4.63013,3.08861 -6.76627,4.697 -1.42022,1.06934 -2.78053,2.15811 -4.06663,3.26745 -1.46818,1.26639 -2.83965,2.55956 -4.0931,3.88118 -1.36228,1.43637 -2.58517,2.90633 -3.64132,4.41202 -1.66918,2.37964 -2.9219,4.84851 -3.65025,7.41499 -0.62341,2.1967 -0.86266,4.46491 -0.6501,6.8099 0.19869,2.19192 0.79214,4.45091 1.8356,6.78128 0.49822,1.11268 1.09904,2.24164 1.80846,3.38733 0.80352,1.29766 1.99443,2.75854 3.35997,4.25675 1.25187,1.3735 2.65049,2.77836 4.03195,4.1176 2.17434,2.1079 4.30615,4.05322 5.75624,5.45775 3.10846,2.78336 5.71182,5.26164 7.86429,7.53924 0.97152,1.028 1.85119,2.01512 2.64398,2.97096 2.22275,2.67985 3.76263,5.11381 4.72948,7.51342 1.0231,2.53923 1.40455,5.04001 1.27449,7.753 -0.0774,1.6143 -0.33588,3.20341 -0.74806,4.76097 -0.46773,1.76749 -1.13337,3.49437 -1.95684,5.1714 -0.68262,1.39018 -1.47371,2.7461 -2.35044,4.06251 -0.97905,1.47006 -2.06491,2.89083 -3.22579,4.25498 -0.49094,0.57691 -0.9953,1.14369 -1.51067,1.69979 -1.19055,1.28463 -2.43987,2.51227 -3.71832,3.67606 -1.57496,1.4337 -3.19414,2.77052 -4.80212,3.99767 l -6.59881,-0.0335 -4.60192,-0.0234 -7.99878,-0.0406 -8.99976,-0.0457 z"
           id="path6685"
           sodipodi:nodetypes="cssssssssscsscsssssssscccccccsssssssssssscsssssssssscccccc" />
        <rect
           style="fill:#ffffff;fill-opacity:1;stroke:none;stroke-width:3.4885;stroke-linecap:round;stroke-linejoin:round;paint-order:stroke markers fill"
           id="rect6722"
           width="31.6"
           height="116.8"
           x="70.400002"
           y="117"
           ry="0" />
        <rect
           style="fill:#ffffff;fill-opacity:1;stroke:none;stroke-width:3.4885;stroke-linecap:round;stroke-linejoin:round;paint-order:stroke markers fill"
           id="rect6823"
           width="31.6"
           height="116.8"
           x="278.39999"
           y="117"
           ry="0" />
      </g>
    </g>
  </g>
</svg>
