<?xml version="1.0" encoding="utf-8"?>
<!-- Generator: Adobe Illustrator 19.2.1, SVG Export Plug-In . SVG Version: 6.00 Build 0)  -->
<svg version="1.1" id="layer" xmlns="http://www.w3.org/2000/svg" xmlns:xlink="http://www.w3.org/1999/xlink" x="0px" y="0px"
	 viewBox="0 0 652 652" style="enable-background:new 0 0 652 652;" xml:space="preserve">
<style type="text/css">
	.st0{fill:#010F42;}
	.st1{fill:#1099D7;}
</style>
<polygon class="st0" points="150.2,313.1 71.1,313.1 71.1,203.6 99.4,203.6 99.4,291.9 150.2,291.9 "/>
<g>
	<path class="st0" d="M208.7,304.3c-3.3,2.8-6.9,5.3-10,6.9c-3.1,1.6-5.7,2.5-8.5,3.1c-2.7,0.6-5.6,1.1-8.5,1.1
		c-2.9,0-5.7-0.3-8.4-0.9c-2.6-0.6-5-1.4-7.1-2.4c-2.1-1-3.9-2.3-5.5-3.7c-1.6-1.4-3-3.1-4.1-4.9c-2.4-3.8-3.7-8.7-4-13.4
		c-0.1-2.5,0-4.9,0.5-7.1c0.4-2.2,1.1-4.3,2.1-6.1c1-1.9,2.2-3.6,3.7-5.2c1.5-1.6,3.3-3,5.5-4.4c2.2-1.3,4.8-2.6,8.1-3.7
		c3.2-1.1,7.1-2,13.2-2.9c6.1-0.9,14.6-1.7,23.1-2.1c0-1.4-0.1-3-0.5-4.3c-0.3-1.2-0.8-2.2-1.5-3c-0.6-0.9-1.5-1.6-2.5-2.3
		c-1.1-0.7-2.4-1.3-4.2-1.8c-3.8-1.1-9.9-1.7-15.4-1.4c-2.8,0.1-5.4,0.5-9.1,1.5c-3.7,1-8.5,2.5-13.2,4.3H160v-19.8
		c7.6-1.9,15.4-3.1,22.5-3.7c7.1-0.6,13.6-0.5,19.2,0c5.6,0.5,10.4,1.3,14.2,2.3c3.8,1.1,6.6,2.4,8.9,4c2.4,1.6,4.3,3.4,5.8,5.5
		c1.5,2.1,2.6,4.4,3.4,7.2c0.8,2.8,1.2,6.1,1.2,9.4v56.5h-26.6V304.3 M208.7,291.6v-17.3c-4.9,0.4-9.8,1-13.2,1.4
		c-3.4,0.5-5.4,0.9-6.9,1.3c-1.5,0.4-2.7,0.9-3.6,1.3c-1,0.5-1.8,1-2.4,1.5c-1.6,1.3-2.2,2.3-2.7,3.6c-0.5,1.5-0.8,3.6-0.6,5.6
		c0.1,1,0.2,1.9,0.4,2.6c0.4,1.2,1,2.1,2.2,3.1c0.9,0.9,2.1,1.5,3.5,2c4.4,1.3,11.8,1.6,17.9-1.5C205.1,294.2,207,293,208.7,291.6"
		/>
	<rect x="252.7" y="230.4" class="st0" width="26.6" height="82.7"/>
	<rect x="251.8" y="198.6" class="st0" width="28.3" height="20"/>
	<path class="st0" d="M357.5,256h-2.4c-5.2-0.7-10.4-1.4-15.6-1.1c-5.2,0.3-10.4,1.7-15.7,3.1v55.1h-26.6v-82.7h26.6v12.1
		c5.5-4.8,11.2-8.5,16.5-10.2c2.7-0.9,5.5-1.4,7.7-1.7c2.2-0.3,3.8-0.2,4.9-0.2c1.1,0,1.5,0,2.2,0.1c0.7,0,1.5,0.1,2.4,0.2V256"/>
	<path class="st0" d="M445.8,313.1h-26.6v-8.6c-3.6,3.1-7.6,5.7-11.3,7.6c-7.2,3.8-13.7,4.3-20.6,3.1c-3.5-0.6-6.9-1.7-9.8-3.2
		c-2.9-1.5-5.4-3.4-7.6-5.9c-2.2-2.4-4.2-5.4-5.8-9c-1.6-3.6-2.9-7.9-3.7-12.8c-0.8-4.9-1.2-10.3-1-15.2c0.2-4.9,1-9.2,2.4-13.3
		c1.3-4.1,3.1-7.8,5.2-11.1c2.1-3.3,4.6-6.1,7.4-8.4c2.8-2.3,6-4.2,9.4-5.5c3.4-1.4,7.1-2.2,10.9-2.6c3.8-0.4,7.7-0.2,11.8,0.7
		c4.2,0.9,8.6,2.6,12.7,4.8v-35h26.6V313.1 M419.3,290.7v-41c-3.8-1.5-8-2.3-12.2-2.2c-2.2,0.1-4.4,0.5-6.2,1
		c-1.9,0.5-3.4,1.1-4.7,1.9c-1.3,0.8-2.5,1.7-3.5,2.9c-1,1.2-2,2.5-2.8,4.2c-0.8,1.6-1.5,3.5-2,5.8c-0.5,2.2-0.9,4.8-1,7.6
		c-0.1,2.7,0,5.6,0.3,8.1c0.3,2.5,0.8,4.7,1.4,6.5c0.6,1.8,1.4,3.2,2.2,4.4c0.8,1.2,1.8,2.1,2.8,2.9c2.3,1.7,5.7,2.6,9,2.9
		c3.5,0.4,7.4-0.3,11.4-2C415.9,292.9,417.6,291.9,419.3,290.7"/>
	<path class="st1" d="M546.4,296.3c0.4,4.2-1,8.3-5,12.5c-3.9,4.2-10.3,8.6-21.1,13c-10.7,4.4-25.9,8.8-47.3,13
		c-21.4,4.2-49,8.1-81.4,11.3c-32.4,3.2-69.5,5.6-111.1,6.7c-41.6,1.1-87.8,0.9-121.8,0.2c-34-0.8-55.9-2.1-76.9-3.6
		s-41.1-3.1-61.1-5.1l6.8,4.4c11.6,1.7,23.2,3,44.3,5c21.2,1.9,51.9,4.5,89.4,6.1c37.6,1.6,82,2.3,126.3,1.7
		c44.3-0.6,88.4-2.5,127.9-5.6c39.5-3.1,74.4-7.4,101.9-11.9c27.5-4.5,47.5-9.2,62.3-13.5c14.7-4.3,24.2-8.3,30.4-12
		c6.2-3.7,9.2-7.3,10.3-11c1.1-3.7,0.3-7.6-3.4-11.6c-3.8-4-10.5-8.2-22.4-12.6c-11.9-4.4-28.8-9.1-47.4-12.9
		c-18.6-3.9-38.7-6.9-54.4-8.8c-15.6-2-26.6-2.8-37.7-3.2c6.8,0.7,13.6,1.9,24.4,4.4c10.8,2.5,25.6,6.2,36.5,9.9
		c11,3.7,18.1,7.2,22.9,11.2C543.6,287.7,545.9,292.1,546.4,296.3"/>
	<polygon class="st0" points="453.9,207.5 453.9,199.6 450.9,199.6 450.9,198.5 458,198.5 458,199.6 455.1,199.6 455.1,207.5 	"/>
	<path class="st0" d="M459.2,207.5v-9h1.8l2.1,6.4c0.2,0.6,0.3,1,0.4,1.3c0.1-0.3,0.3-0.8,0.5-1.4l2.2-6.3h1.6v9h-1.2V200l-2.6,7.6
		H463l-2.6-7.7v7.7H459.2z"/>
	<polygon class="st0" points="557,416.8 557,408.8 554,408.8 554,407.7 561.1,407.7 561.1,408.8 558.2,408.8 558.2,416.8 	"/>
	<path class="st0" d="M562.3,416.8v-9h1.8l2.1,6.4c0.2,0.6,0.3,1,0.4,1.3c0.1-0.3,0.3-0.8,0.5-1.4l2.2-6.3h1.6v9h-1.2v-7.6l-2.6,7.6
		h-1.1l-2.6-7.7v7.7H562.3z"/>
	<path class="st0" d="M82.9,414.6c-0.5-0.2-0.9-0.3-1.3-0.5c-0.4-0.1-0.8-0.3-1.2-0.4c-0.4-0.1-0.8-0.2-1.2-0.2
		c-0.4,0-0.9-0.1-1.3-0.1c-0.5,0-1.1,0.1-1.6,0.2c-0.6,0.1-1.1,0.3-1.5,0.6c-0.5,0.3-0.8,0.6-1.1,1.1c-0.3,0.5-0.4,1-0.4,1.7
		c0,0.9,0.3,1.6,0.9,2.1c0.6,0.6,1.3,1.1,2.1,1.5c0.9,0.5,1.8,0.9,2.8,1.4c1,0.5,1.9,1,2.8,1.7c0.9,0.7,1.6,1.5,2.1,2.5
		c0.6,1,0.9,2.2,0.9,3.7c0,1.4-0.3,2.7-0.8,3.7c-0.5,1-1.2,1.8-2.1,2.5c-0.9,0.6-1.9,1.1-3.1,1.4c-1.2,0.3-2.5,0.4-3.8,0.4
		c-1,0-1.9-0.1-2.8-0.3c-0.9-0.2-1.8-0.5-2.7-0.8l0.4-3.6c0.3,0.1,0.7,0.3,1.2,0.4c0.4,0.2,0.9,0.3,1.4,0.4c0.5,0.1,1,0.2,1.5,0.3
		c0.5,0.1,1,0.1,1.5,0.1c0.5,0,1.1-0.1,1.8-0.3c0.6-0.2,1.2-0.4,1.7-0.8c0.5-0.3,0.9-0.8,1.3-1.4c0.3-0.6,0.5-1.2,0.5-2
		c0-1-0.3-1.8-0.8-2.4c-0.6-0.6-1.3-1.2-2.1-1.7c-0.9-0.5-1.8-0.9-2.8-1.4c-1-0.4-1.9-1-2.8-1.6c-0.9-0.6-1.6-1.4-2.1-2.3
		c-0.6-0.9-0.9-2-0.9-3.4c0-1.2,0.2-2.2,0.7-3.1c0.5-0.9,1.1-1.7,1.8-2.3c0.8-0.6,1.7-1.1,2.7-1.4c1.1-0.3,2.2-0.5,3.4-0.5
		c0.9,0,1.9,0.1,2.9,0.2c1,0.2,2,0.4,2.9,0.7L82.9,414.6z"/>
	<path class="st0" d="M88.6,417.8H92v2.9H92c0.7-1.2,1.5-2,2.5-2.5c1-0.5,2.2-0.8,3.7-0.8c1.1,0,2.2,0.3,3.3,0.9
		c1,0.6,1.8,1.6,2.3,2.9c0.3-0.7,0.8-1.3,1.3-1.8c0.5-0.5,1.1-0.9,1.6-1.2c0.6-0.3,1.1-0.5,1.7-0.7c0.6-0.1,1.1-0.2,1.5-0.2
		c1.3,0,2.3,0.2,3.2,0.6c0.9,0.4,1.6,0.9,2.1,1.6c0.5,0.7,0.9,1.5,1.2,2.4c0.2,0.9,0.4,1.9,0.4,3v12.6h-3.6v-11.7
		c0-0.6-0.1-1.2-0.1-1.9c-0.1-0.6-0.3-1.2-0.5-1.8c-0.3-0.5-0.6-1-1.1-1.3c-0.5-0.3-1.1-0.5-1.8-0.5c-0.9,0-1.7,0.2-2.4,0.6
		c-0.7,0.4-1.2,1-1.6,1.6c-0.4,0.7-0.7,1.5-0.9,2.3c-0.2,0.9-0.3,1.8-0.3,2.7v9.9h-3.6v-11.7c0-0.6,0-1.2-0.1-1.9
		c-0.1-0.6-0.3-1.2-0.5-1.8c-0.3-0.5-0.6-1-1.1-1.3c-0.5-0.3-1.1-0.5-1.8-0.5c-0.9,0-1.7,0.2-2.4,0.6c-0.7,0.4-1.2,1-1.6,1.6
		c-0.4,0.7-0.7,1.5-0.9,2.3c-0.2,0.9-0.3,1.8-0.3,2.7v9.9h-3.6V417.8z"/>
	<path class="st0" d="M122.9,419.2c0.9-0.5,1.9-1,3-1.3c1.1-0.4,2.3-0.5,3.5-0.5c2.8,0,4.9,0.7,6.1,2c1.2,1.4,1.8,3.4,1.8,6.1v8.1
		c0,1.1,0,2,0,2.6c0,0.6,0.1,1,0.1,1.3h-3.4V435H134c-0.2,0.3-0.5,0.6-0.8,1c-0.4,0.3-0.8,0.7-1.3,1c-0.5,0.3-1.1,0.5-1.7,0.8
		c-0.7,0.2-1.4,0.3-2.2,0.3c-1.1,0-2-0.1-2.9-0.4c-0.9-0.2-1.7-0.6-2.3-1.1c-0.6-0.5-1.1-1.1-1.5-1.9c-0.4-0.8-0.5-1.7-0.5-2.8
		c0-1.2,0.3-2.3,0.9-3.1c0.6-0.8,1.4-1.5,2.3-2c0.9-0.5,1.9-0.9,3-1.1c1.1-0.2,2.1-0.3,3-0.3h1.9c0.6,0,1.2,0,1.9,0.1
		c0-1.7-0.4-3-1.1-3.8c-0.7-0.9-2-1.3-3.8-1.3c-1,0-2,0.2-3.1,0.5c-1,0.4-1.9,0.8-2.6,1.5L122.9,419.2z M133.7,428.1
		c-0.4,0-0.8,0-1.2,0c-0.4,0-0.8,0-1.2,0c-0.5,0-1.1,0-1.9,0.1c-0.8,0.1-1.5,0.2-2.3,0.5c-0.7,0.3-1.4,0.6-1.9,1.1
		c-0.5,0.5-0.8,1.2-0.8,2.1c0,0.5,0.1,1,0.4,1.4c0.2,0.4,0.5,0.7,0.9,1c0.3,0.3,0.7,0.5,1.2,0.6c0.4,0.1,0.9,0.2,1.3,0.2
		c1.8,0,3.2-0.5,4.1-1.5c0.9-1,1.4-2.2,1.4-3.7V428.1z"/>
	<path class="st0" d="M142.5,417.8h3.4v3h0.1c0.5-1,1.2-1.9,2.1-2.5c0.9-0.7,1.9-1,3-1c0.5,0,1,0,1.3,0.1c0.3,0.1,0.7,0.1,1.1,0.2
		v3.2c-0.3-0.1-0.7-0.2-1-0.3c-0.3-0.1-0.7-0.1-1-0.1c-1.6,0-2.9,0.7-3.9,2.2c-1,1.4-1.5,3.4-1.5,5.9v9h-3.6V417.8z"/>
	<path class="st0" d="M168.7,420.8h-5.2v10.8c0,1.2,0.3,2,0.9,2.6c0.6,0.6,1.3,0.9,2.1,0.9c0.6,0,1-0.1,1.4-0.2
		c0.4-0.1,0.7-0.3,1-0.5v3.1c-0.4,0.1-0.9,0.3-1.4,0.4c-0.5,0.1-1.1,0.2-1.7,0.2c-1.9,0-3.4-0.5-4.4-1.4c-1.1-0.9-1.6-2.4-1.6-4.3
		v-11.5h-4.4v-2.9h4.4v-4.6l3.6-1.2v5.7h5.2V420.8z"/>
	<polygon class="st0" points="187.8,414 179.4,414 179.4,410.6 200,410.6 200,414 191.6,414 191.6,437.5 187.8,437.5 	"/>
	<path class="st0" d="M214.8,436.7c-0.4,0.1-0.7,0.3-1.1,0.4c-0.4,0.1-0.8,0.3-1.3,0.4c-0.5,0.1-1,0.2-1.7,0.3
		c-0.6,0.1-1.3,0.1-2.1,0.1c-1.8,0-3.3-0.3-4.5-0.8c-1.3-0.5-2.3-1.2-3.2-2.2c-0.8-0.9-1.5-2-1.9-3.4c-0.4-1.3-0.6-2.8-0.6-4.4
		c0-1.5,0.2-2.8,0.7-4c0.4-1.2,1.1-2.3,1.9-3.1c0.8-0.9,1.8-1.6,2.9-2.1c1.1-0.5,2.4-0.7,3.8-0.7c1.6,0,3,0.3,4.1,0.8
		c1.1,0.6,2,1.3,2.7,2.3c0.7,1,1.2,2.2,1.5,3.5c0.3,1.4,0.4,2.8,0.4,4.4h-14.1c0,1,0.2,1.9,0.5,2.7c0.3,0.8,0.8,1.5,1.4,2.1
		c0.6,0.6,1.3,1,2.1,1.4c0.8,0.3,1.6,0.5,2.5,0.5c0.6,0,1.2-0.1,1.8-0.2c0.6-0.1,1.2-0.3,1.8-0.5c0.6-0.2,1-0.4,1.5-0.6
		c0.4-0.2,0.8-0.4,1-0.6V436.7z M212.5,425.8c0-0.7-0.1-1.5-0.3-2.1c-0.2-0.7-0.5-1.3-0.9-1.8c-0.4-0.5-0.9-0.9-1.5-1.2
		c-0.6-0.3-1.3-0.4-2.1-0.4c-0.9,0-1.7,0.2-2.3,0.5c-0.6,0.3-1.2,0.8-1.6,1.3c-0.4,0.5-0.7,1.1-1,1.8c-0.2,0.6-0.4,1.3-0.4,1.9
		H212.5z"/>
	<path class="st0" d="M232.7,421.2c-0.7-0.3-1.4-0.5-2-0.6c-0.7-0.1-1.3-0.2-1.9-0.2c-1,0-1.9,0.2-2.7,0.6c-0.8,0.4-1.4,1-2,1.7
		c-0.5,0.7-1,1.5-1.2,2.4c-0.3,0.9-0.4,1.8-0.4,2.7c0,0.9,0.1,1.7,0.4,2.6c0.2,0.9,0.6,1.7,1.2,2.4c0.5,0.7,1.2,1.3,2,1.7
		c0.8,0.4,1.8,0.7,3,0.7c0.6,0,1.3-0.1,2-0.3c0.7-0.2,1.3-0.5,1.9-0.8l0.3,3.2c-0.7,0.4-1.5,0.6-2.3,0.7c-0.8,0.1-1.6,0.1-2.2,0.1
		c-1.5,0-2.8-0.3-4.1-0.8c-1.2-0.5-2.3-1.3-3.2-2.2c-0.9-0.9-1.6-2-2.1-3.3c-0.5-1.3-0.7-2.6-0.7-4c0-1.5,0.2-2.9,0.7-4.1
		c0.5-1.3,1.2-2.4,2-3.3c0.9-0.9,1.9-1.6,3.2-2.1c1.2-0.5,2.6-0.8,4.1-0.8c0.7,0,1.5,0.1,2.4,0.2c0.8,0.2,1.5,0.3,2,0.5L232.7,421.2
		z"/>
	<path class="st0" d="M236.4,408.6h3.6v12.1h0.1c0.7-1.1,1.5-1.9,2.6-2.4c1.1-0.6,2.3-0.9,3.7-0.9c2.5,0,4.4,0.8,5.6,2.2
		c1.2,1.5,1.8,3.6,1.8,6.2v11.7h-3.6v-10.2c0-2.3-0.3-4-0.9-5.2c-0.6-1.1-1.7-1.8-3.3-1.9c-1,0-1.9,0.2-2.7,0.6
		c-0.8,0.4-1.4,1-1.9,1.7c-0.5,0.7-0.8,1.6-1.1,2.6c-0.2,1-0.4,2.1-0.4,3.3v9.1h-3.6V408.6z"/>
	<path class="st0" d="M258.1,417.8h3.5v3.1h0.1c0.5-1.1,1.4-2,2.6-2.6c1.2-0.6,2.5-0.9,3.9-0.9c2.5,0,4.4,0.7,5.6,2.2
		c1.2,1.5,1.8,3.6,1.8,6.2v11.7h-3.6v-10.2c0-2.3-0.3-4-0.9-5.2c-0.6-1.1-1.7-1.7-3.3-1.8c-1,0-1.9,0.2-2.7,0.6
		c-0.8,0.4-1.4,0.9-1.9,1.7c-0.5,0.7-0.8,1.6-1.1,2.6c-0.2,1-0.4,2.1-0.4,3.3v9.1h-3.6V417.8z"/>
	<path class="st0" d="M278.4,427.7c0-1.5,0.2-2.9,0.7-4.1c0.5-1.3,1.2-2.4,2-3.3c0.9-0.9,1.9-1.6,3.2-2.1c1.2-0.5,2.6-0.8,4.1-0.8
		c1.5,0,2.9,0.3,4.1,0.8c1.2,0.5,2.3,1.2,3.2,2.1c0.9,0.9,1.6,2,2,3.3c0.5,1.3,0.7,2.6,0.7,4.1c0,1.4-0.2,2.7-0.7,4
		c-0.5,1.2-1.2,2.3-2,3.3c-0.9,0.9-1.9,1.7-3.2,2.2c-1.2,0.5-2.6,0.8-4.1,0.8c-1.5,0-2.8-0.3-4.1-0.8c-1.2-0.5-2.3-1.3-3.2-2.2
		c-0.9-0.9-1.6-2-2.1-3.3C278.6,430.4,278.4,429.1,278.4,427.7 M282.3,427.7c0,0.9,0.1,1.7,0.4,2.6c0.2,0.9,0.6,1.7,1.1,2.4
		c0.5,0.7,1.1,1.3,1.9,1.7c0.8,0.4,1.7,0.7,2.8,0.7c1.1,0,2-0.2,2.7-0.7c0.8-0.4,1.4-1,1.9-1.7c0.5-0.7,0.9-1.5,1.1-2.4
		c0.2-0.9,0.4-1.7,0.4-2.6c0-0.9-0.1-1.8-0.4-2.7c-0.3-0.9-0.7-1.7-1.2-2.4c-0.5-0.7-1.2-1.2-1.9-1.7c-0.8-0.4-1.6-0.6-2.6-0.6
		c-1,0-1.8,0.2-2.6,0.6c-0.8,0.4-1.4,1-1.9,1.7c-0.5,0.7-0.9,1.5-1.2,2.4C282.4,425.8,282.3,426.8,282.3,427.7"/>
	<rect x="302.8" y="408.6" class="st0" width="3.6" height="29"/>
	<path class="st0" d="M310.8,427.7c0-1.5,0.2-2.9,0.7-4.1c0.5-1.3,1.2-2.4,2-3.3c0.9-0.9,1.9-1.6,3.2-2.1c1.2-0.5,2.6-0.8,4.1-0.8
		c1.5,0,2.9,0.3,4.1,0.8c1.2,0.5,2.3,1.2,3.2,2.1c0.9,0.9,1.6,2,2,3.3c0.5,1.3,0.7,2.6,0.7,4.1c0,1.4-0.2,2.7-0.7,4
		c-0.5,1.2-1.2,2.3-2,3.3c-0.9,0.9-1.9,1.7-3.2,2.2c-1.2,0.5-2.6,0.8-4.1,0.8c-1.5,0-2.8-0.3-4.1-0.8c-1.2-0.5-2.3-1.3-3.2-2.2
		c-0.9-0.9-1.6-2-2.1-3.3C311,430.4,310.8,429.1,310.8,427.7 M314.6,427.7c0,0.9,0.1,1.7,0.4,2.6c0.2,0.9,0.6,1.7,1.1,2.4
		c0.5,0.7,1.1,1.3,1.9,1.7c0.8,0.4,1.7,0.7,2.8,0.7c1.1,0,2-0.2,2.7-0.7c0.8-0.4,1.4-1,1.9-1.7c0.5-0.7,0.9-1.5,1.1-2.4
		c0.2-0.9,0.4-1.7,0.4-2.6c0-0.9-0.1-1.8-0.4-2.7c-0.3-0.9-0.7-1.7-1.2-2.4c-0.5-0.7-1.2-1.2-1.9-1.7c-0.8-0.4-1.6-0.6-2.6-0.6
		c-1,0-1.8,0.2-2.6,0.6c-0.8,0.4-1.4,1-1.9,1.7c-0.5,0.7-0.9,1.5-1.2,2.4C314.8,425.8,314.6,426.8,314.6,427.7"/>
	<path class="st0" d="M352.1,436.7c0,3-0.8,5.3-2.4,6.9c-1.6,1.6-4.2,2.5-7.7,2.5c-0.5,0-1,0-1.5-0.1c-0.5,0-1-0.1-1.6-0.2
		c-0.6-0.1-1.2-0.2-1.8-0.4c-0.6-0.2-1.3-0.4-2.1-0.7l0.4-3.4c0.7,0.3,1.3,0.6,1.9,0.8c0.6,0.2,1.1,0.4,1.7,0.6
		c0.5,0.1,1.1,0.2,1.7,0.3c0.6,0.1,1.2,0.1,1.9,0.1c1.9,0,3.4-0.6,4.5-1.8c1.1-1.2,1.6-2.9,1.6-4.9v-1.9h-0.1
		c-0.8,1-1.7,1.8-2.9,2.3c-1.2,0.5-2.4,0.7-3.7,0.7c-1.4,0-2.6-0.3-3.7-0.8c-1.1-0.5-1.9-1.2-2.6-2.1c-0.7-0.9-1.2-1.9-1.6-3.1
		c-0.4-1.2-0.5-2.4-0.5-3.7c0-1.3,0.2-2.5,0.5-3.8c0.4-1.2,0.9-2.4,1.6-3.4c0.7-1,1.6-1.8,2.7-2.4c1.1-0.6,2.4-0.9,3.9-0.9
		c1.7,0,3.1,0.3,4.1,0.9c1,0.6,1.8,1.4,2.3,2.5h0.1v-2.9h3.4V436.7z M342.8,434.6c0.9,0,1.6-0.2,2.3-0.5c0.7-0.4,1.3-0.8,1.8-1.4
		c0.5-0.6,0.9-1.3,1.2-2.1c0.3-0.8,0.4-1.7,0.4-2.6c0-1-0.1-2-0.3-2.9c-0.2-0.9-0.6-1.7-1.1-2.4c-0.5-0.7-1.1-1.2-1.8-1.7
		c-0.7-0.4-1.6-0.6-2.5-0.6c-0.9,0-1.7,0.2-2.4,0.7s-1.3,1-1.7,1.7c-0.5,0.7-0.8,1.5-1,2.4c-0.2,0.9-0.3,1.7-0.3,2.6
		c0,0.9,0.1,1.8,0.4,2.6c0.3,0.8,0.6,1.6,1.1,2.2c0.5,0.6,1,1.2,1.7,1.5C341.1,434.4,341.9,434.6,342.8,434.6"/>
	<path class="st0" d="M355.9,442.9c0.2,0.1,0.5,0.2,0.8,0.2c0.3,0.1,0.6,0.1,0.9,0.1c0.8,0,1.5-0.2,2-0.7c0.6-0.5,1-1,1.4-1.6
		c0.3-0.6,0.6-1.1,0.7-1.6c0.1-0.5,0.2-0.8,0.2-0.9c0-0.2-0.1-0.5-0.3-0.9c-0.2-0.4-0.3-0.8-0.4-1.1l-6.7-18.4h4l5.3,16.3h0.1
		l5.4-16.3h3.7l-7.3,20.1c-0.3,1-0.7,1.9-1.1,2.9c-0.4,1-0.9,1.8-1.4,2.6c-0.6,0.8-1.2,1.4-2.1,1.9c-0.8,0.5-1.8,0.7-3,0.7
		c-0.6,0-1.1,0-1.4-0.1c-0.4-0.1-0.7-0.1-1-0.2L355.9,442.9z"/>
	<rect x="372.9" y="433.2" class="st0" width="4.3" height="4.3"/>
	<path class="st0" d="M390.5,410.6h8c2,0,3.9,0.3,5.6,0.9c1.7,0.6,3.3,1.5,4.6,2.6c1.3,1.1,2.3,2.5,3.1,4.1c0.7,1.6,1.1,3.5,1.1,5.6
		c0,2.3-0.3,4.3-1,6c-0.7,1.7-1.6,3.1-2.9,4.3c-1.2,1.1-2.7,2-4.5,2.6c-1.8,0.6-3.8,0.9-6,0.9h-8V410.6z M394.4,434.1h4.1
		c3.3,0,5.9-0.8,7.6-2.5c1.8-1.6,2.7-4.2,2.7-7.7c0-1.6-0.3-3-0.8-4.2c-0.5-1.2-1.2-2.3-2.1-3.1c-0.9-0.9-1.9-1.5-3.1-2
		c-1.2-0.5-2.5-0.7-3.9-0.7h-4.5V434.1z"/>
	<path class="st0" d="M432.4,436.7c-0.4,0.1-0.7,0.3-1.1,0.4c-0.4,0.1-0.8,0.3-1.3,0.4s-1,0.2-1.7,0.3c-0.6,0.1-1.3,0.1-2.1,0.1
		c-1.8,0-3.3-0.3-4.5-0.8c-1.3-0.5-2.3-1.2-3.2-2.2c-0.8-0.9-1.5-2-1.9-3.4c-0.4-1.3-0.6-2.8-0.6-4.4c0-1.5,0.2-2.8,0.7-4
		c0.4-1.2,1.1-2.3,1.9-3.1c0.8-0.9,1.8-1.6,2.9-2.1c1.1-0.5,2.4-0.7,3.8-0.7c1.6,0,3,0.3,4.1,0.8c1.1,0.6,2,1.3,2.7,2.3
		c0.7,1,1.2,2.2,1.4,3.5c0.3,1.4,0.4,2.8,0.4,4.4h-14.1c0,1,0.2,1.9,0.5,2.7c0.3,0.8,0.8,1.5,1.4,2.1c0.6,0.6,1.3,1,2.1,1.4
		c0.8,0.3,1.6,0.5,2.5,0.5c0.6,0,1.2-0.1,1.8-0.2c0.6-0.1,1.2-0.3,1.8-0.5c0.6-0.2,1-0.4,1.5-0.6c0.4-0.2,0.8-0.4,1-0.6V436.7z
		 M430.1,425.8c0-0.7-0.1-1.5-0.3-2.1c-0.2-0.7-0.5-1.3-0.9-1.8c-0.4-0.5-0.9-0.9-1.5-1.2c-0.6-0.3-1.3-0.4-2.1-0.4
		c-0.9,0-1.7,0.2-2.3,0.5c-0.6,0.3-1.2,0.8-1.6,1.3c-0.4,0.5-0.7,1.1-1,1.8c-0.2,0.6-0.4,1.3-0.4,1.9H430.1z"/>
	<rect x="438.3" y="408.6" class="st0" width="3.6" height="29"/>
	<path class="st0" d="M451,413.4h-4.1v-4.1h4.1V413.4z M447.1,417.8h3.6v19.7h-3.6V417.8z"/>
	<polygon class="st0" points="465.1,437.5 460.8,437.5 453.7,417.8 457.7,417.8 463,433.9 463.1,433.9 468.6,417.8 472.2,417.8 	"/>
	<path class="st0" d="M489.8,436.7c-0.4,0.1-0.7,0.3-1.1,0.4c-0.4,0.1-0.8,0.3-1.3,0.4s-1,0.2-1.7,0.3c-0.6,0.1-1.3,0.1-2.1,0.1
		c-1.8,0-3.3-0.3-4.5-0.8c-1.3-0.5-2.3-1.2-3.2-2.2c-0.8-0.9-1.5-2-1.9-3.4c-0.4-1.3-0.6-2.8-0.6-4.4c0-1.5,0.2-2.8,0.7-4
		c0.4-1.2,1.1-2.3,1.9-3.1c0.8-0.9,1.8-1.6,2.9-2.1c1.1-0.5,2.4-0.7,3.8-0.7c1.7,0,3,0.3,4.1,0.8c1.1,0.6,2,1.3,2.7,2.3
		c0.7,1,1.2,2.2,1.4,3.5c0.3,1.4,0.4,2.8,0.4,4.4h-14.1c0,1,0.2,1.9,0.5,2.7c0.3,0.8,0.8,1.5,1.4,2.1c0.6,0.6,1.3,1,2.1,1.4
		c0.8,0.3,1.6,0.5,2.5,0.5c0.6,0,1.2-0.1,1.8-0.2c0.6-0.1,1.2-0.3,1.8-0.5c0.6-0.2,1-0.4,1.5-0.6c0.4-0.2,0.8-0.4,1-0.6V436.7z
		 M487.5,425.8c0-0.7-0.1-1.5-0.3-2.1c-0.2-0.7-0.5-1.3-0.9-1.8c-0.4-0.5-0.9-0.9-1.5-1.2c-0.6-0.3-1.3-0.4-2.1-0.4
		c-0.9,0-1.7,0.2-2.3,0.5c-0.6,0.3-1.2,0.8-1.6,1.3c-0.4,0.5-0.7,1.1-1,1.8c-0.2,0.6-0.4,1.3-0.4,1.9H487.5z"/>
	<path class="st0" d="M495.2,417.8h3.4v3h0.1c0.5-1,1.2-1.9,2.1-2.5c0.9-0.7,1.9-1,3-1c0.5,0,1,0,1.3,0.1c0.3,0.1,0.7,0.1,1.1,0.2
		v3.2c-0.3-0.1-0.7-0.2-1-0.3c-0.3-0.1-0.7-0.1-1-0.1c-1.6,0-2.9,0.7-3.9,2.2c-1,1.4-1.5,3.4-1.5,5.9v9h-3.6V417.8z"/>
	<path class="st0" d="M523.6,436.7c-0.4,0.1-0.7,0.3-1.1,0.4c-0.4,0.1-0.8,0.3-1.3,0.4c-0.5,0.1-1,0.2-1.7,0.3
		c-0.6,0.1-1.3,0.1-2.1,0.1c-1.8,0-3.3-0.3-4.5-0.8c-1.3-0.5-2.3-1.2-3.2-2.2c-0.8-0.9-1.5-2-1.9-3.4c-0.4-1.3-0.6-2.8-0.6-4.4
		c0-1.5,0.2-2.8,0.7-4c0.4-1.2,1.1-2.3,1.9-3.1c0.8-0.9,1.8-1.6,2.9-2.1c1.1-0.5,2.4-0.7,3.8-0.7c1.6,0,3,0.3,4.1,0.8
		c1.1,0.6,2,1.3,2.7,2.3c0.7,1,1.2,2.2,1.4,3.5c0.3,1.4,0.4,2.8,0.4,4.4h-14.1c0,1,0.2,1.9,0.5,2.7c0.3,0.8,0.8,1.5,1.4,2.1
		c0.6,0.6,1.3,1,2.1,1.4c0.8,0.3,1.6,0.5,2.5,0.5c0.6,0,1.2-0.1,1.8-0.2c0.6-0.1,1.2-0.3,1.8-0.5c0.6-0.2,1-0.4,1.5-0.6
		c0.4-0.2,0.8-0.4,1-0.6V436.7z M521.3,425.8c0-0.7-0.1-1.5-0.3-2.1c-0.2-0.7-0.5-1.3-0.9-1.8c-0.4-0.5-0.9-0.9-1.5-1.2
		c-0.6-0.3-1.3-0.4-2.1-0.4c-0.9,0-1.7,0.2-2.3,0.5c-0.6,0.3-1.2,0.8-1.6,1.3c-0.4,0.5-0.7,1.1-1,1.8c-0.2,0.6-0.4,1.3-0.4,1.9
		H521.3z"/>
	<path class="st0" d="M543,434.7L543,434.7c-0.3,0.4-0.6,0.7-1,1.1c-0.4,0.4-0.9,0.7-1.4,1c-0.6,0.3-1.2,0.6-1.9,0.8
		c-0.7,0.2-1.5,0.3-2.4,0.3c-1.5,0-2.8-0.3-3.8-0.9c-1.1-0.6-1.9-1.4-2.6-2.4c-0.7-1-1.2-2.1-1.5-3.4c-0.3-1.3-0.5-2.6-0.5-3.9
		c0-1.3,0.2-2.6,0.5-3.8c0.3-1.2,0.9-2.3,1.6-3.2c0.7-0.9,1.6-1.6,2.6-2.2c1.1-0.5,2.3-0.8,3.7-0.8c1.7,0,3.1,0.3,4.1,0.9
		c1,0.6,1.8,1.4,2.4,2.3h0.1v-12h3.6v29H543V434.7z M531.6,427.6c0,0.8,0.1,1.6,0.3,2.5c0.2,0.9,0.5,1.7,1,2.4
		c0.4,0.7,1,1.3,1.7,1.8c0.7,0.5,1.5,0.7,2.5,0.7c1,0,1.9-0.2,2.6-0.7c0.7-0.4,1.3-1,1.8-1.8c0.5-0.7,0.8-1.5,1-2.4
		c0.2-0.9,0.3-1.7,0.3-2.5c0-0.9-0.1-1.8-0.4-2.7c-0.2-0.9-0.6-1.7-1.1-2.4c-0.5-0.7-1.1-1.3-1.8-1.7c-0.7-0.4-1.6-0.6-2.6-0.6
		s-1.8,0.2-2.5,0.6c-0.7,0.4-1.3,1-1.7,1.7c-0.4,0.7-0.8,1.5-0.9,2.3C531.6,425.8,531.5,426.7,531.6,427.6"/>
	<rect x="551.8" y="433.2" class="st0" width="4.3" height="4.3"/>
</g>
</svg>
