<?xml version="1.0" encoding="UTF-8" standalone="no"?>
<!-- Created with Inkscape (http://www.inkscape.org/) -->

<svg
   xmlns:dc="http://purl.org/dc/elements/1.1/"
   xmlns:cc="http://creativecommons.org/ns#"
   xmlns:rdf="http://www.w3.org/1999/02/22-rdf-syntax-ns#"
   xmlns:svg="http://www.w3.org/2000/svg"
   xmlns="http://www.w3.org/2000/svg"
   xmlns:sodipodi="http://sodipodi.sourceforge.net/DTD/sodipodi-0.dtd"
   xmlns:inkscape="http://www.inkscape.org/namespaces/inkscape"
   width="242.6759"
   height="40.9147"
   viewBox="0 0 64.207999 10.825347"
   version="1.1"
   id="svg7778"
   inkscape:version="0.92.0 r15299"
   sodipodi:docname="lattice semiconductor.svg">
  <defs
     id="defs7772" />
  <sodipodi:namedview
     id="base"
     pagecolor="#ffffff"
     bordercolor="#666666"
     borderopacity="1.0"
     inkscape:pageopacity="0.0"
     inkscape:pageshadow="2"
     inkscape:zoom="3.7270038"
     inkscape:cx="120.33795"
     inkscape:cy="19.457348"
     inkscape:document-units="mm"
     inkscape:current-layer="layer1"
     showgrid="false"
     fit-margin-top="0"
     fit-margin-left="0"
     fit-margin-right="0"
     fit-margin-bottom="0"
     units="px"
     inkscape:window-width="1280"
     inkscape:window-height="744"
     inkscape:window-x="-4"
     inkscape:window-y="-4"
     inkscape:window-maximized="1" />
  <metadata
     id="metadata7775">
    <rdf:RDF>
      <cc:Work
         rdf:about="">
        <dc:format>image/svg+xml</dc:format>
        <dc:type
           rdf:resource="http://purl.org/dc/dcmitype/StillImage" />
        <dc:title></dc:title>
      </cc:Work>
    </rdf:RDF>
  </metadata>
  <g
     inkscape:label="Layer 1"
     inkscape:groupmode="layer"
     id="layer1"
     transform="translate(-12.761774,-174.15013)">
    <path
       inkscape:connector-curvature="0"
       id="path7154"
       style="fill:#000000;fill-opacity:1;fill-rule:nonzero;stroke:none;stroke-width:0.35277778"
       d="m 33.660147,180.03023 h -4.37938 l 1.38359,-5.30719 c 0.019,-0.0734 0.003,-0.1524 -0.0441,-0.21272 -0.0462,-0.0607 -0.11818,-0.0956 -0.19508,-0.0956 h -1.17757 c -0.11183,0 -0.20991,0.0759 -0.23883,0.1838 l -1.66088,6.37328 c -0.0198,0.0737 -0.003,0.1524 0.0434,0.21238 0.0469,0.0607 0.11853,0.096 0.19509,0.096 h 5.87657 c 0.11218,0 0.2099,-0.0759 0.23847,-0.1838 l 0.19685,-0.7567 c 0.0198,-0.0744 0.004,-0.1524 -0.043,-0.21308 -0.0466,-0.0603 -0.11889,-0.0963 -0.19509,-0.0963" />
    <path
       inkscape:connector-curvature="0"
       id="path7158"
       style="fill:#000000;fill-opacity:1;fill-rule:nonzero;stroke:none;stroke-width:0.35277778"
       d="m 40.340346,178.34183 h -2.118429 l 0.91405,-1.15252 c 0.26246,-0.3235 0.518579,-0.6791 0.71508,-0.96415 0.0434,0.2667 0.1016,0.58068 0.17286,0.8696 z m 0.751422,-3.74332 c -0.0286,-0.10795 -0.126651,-0.1838 -0.238832,-0.1838 h -1.17793 c -0.0744,0 -0.144989,0.0335 -0.191909,0.0924 l -5.12551,6.37222 c -0.0596,0.0734 -0.0713,0.17533 -0.0303,0.26141 0.0409,0.085 0.12771,0.13935 0.22261,0.13935 h 1.20579 c 0.0748,0 0.14605,-0.0339 0.19226,-0.0924 l 1.31975,-1.64747 h 3.37855 l 0.396869,1.55433 c 0.0275,0.10972 0.125942,0.18557 0.23848,0.18557 h 1.248481 c 0.0762,0 0.148519,-0.0349 0.19544,-0.0963 0.0462,-0.0596 0.0624,-0.13864 0.043,-0.21202 l -1.676749,-6.37328" />
    <path
       inkscape:connector-curvature="0"
       id="path7162"
       style="fill:#000000;fill-opacity:1;fill-rule:nonzero;stroke:none;stroke-width:0.35277778"
       d="m 50.372647,174.41471 h -6.86082 c -0.112189,0 -0.20955,0.0759 -0.23848,0.18415 l -0.19685,0.75706 c -0.019,0.0734 -0.003,0.1524 0.0434,0.21273 0.0466,0.0603 0.118541,0.0956 0.195091,0.0956 h 2.527998 l -1.383588,5.30754 c -0.0191,0.0737 -0.003,0.1524 0.0437,0.21237 0.0462,0.061 0.118891,0.096 0.194742,0.096 h 1.177919 c 0.112541,0 0.210259,-0.0759 0.23848,-0.1838 l 1.416048,-5.43207 h 2.63807 c 0.115711,0 0.21767,-0.0759 0.246589,-0.1845 l 0.204261,-0.75671 c 0.02011,-0.0734 0.004,-0.1524 -0.0448,-0.21273 -0.0487,-0.0603 -0.122772,-0.0956 -0.20179,-0.0956" />
    <path
       inkscape:connector-curvature="0"
       id="path7166"
       style="fill:#000000;fill-opacity:1;fill-rule:nonzero;stroke:none;stroke-width:0.35277778"
       d="m 58.139396,175.47975 0.197202,-0.75671 c 0.01979,-0.0734 0.004,-0.15205 -0.0427,-0.21272 -0.0473,-0.0603 -0.119949,-0.0956 -0.195789,-0.0956 h -6.852362 c -0.117118,0 -0.218019,0.0759 -0.247999,0.18415 l -0.204611,0.75707 c -0.01939,0.0734 -0.004,0.15239 0.0455,0.21307 0.0483,0.06 0.123481,0.0952 0.20144,0.0952 h 2.517421 l -1.384652,5.30754 c -0.01831,0.0737 -0.003,0.1524 0.0437,0.21238 0.0462,0.061 0.118179,0.0963 0.194739,0.0963 h 1.178631 c 0.11253,0 0.210251,-0.0758 0.23812,-0.18415 l 1.416052,-5.43207 h 2.656771 c 0.11289,0 0.210608,-0.0758 0.23848,-0.1845" />
    <path
       inkscape:connector-curvature="0"
       id="path7170"
       style="fill:#000000;fill-opacity:1;fill-rule:nonzero;stroke:none;stroke-width:0.35277778"
       d="m 60.875188,174.51032 c -0.0473,-0.0603 -0.119592,-0.0956 -0.19544,-0.0956 h -1.206151 c -0.112181,0 -0.2106,0.0758 -0.238829,0.18415 l -1.661231,6.37293 c -0.01871,0.0737 -0.004,0.1524 0.0437,0.21237 0.0466,0.061 0.118528,0.096 0.19508,0.096 h 1.20686 c 0.111469,0 0.208838,-0.0759 0.23812,-0.1838 l 1.66017,-6.37329 c 0.01979,-0.0734 0.003,-0.1524 -0.0423,-0.21272" />
    <path
       inkscape:connector-curvature="0"
       id="path7174"
       style="fill:#000000;fill-opacity:1;fill-rule:nonzero;stroke:none;stroke-width:0.35277778"
       d="m 67.153226,180.03023 h -2.621838 c -0.86713,0 -1.448861,-0.1838 -1.72897,-0.54716 -0.259292,-0.33549 -0.295982,-0.84843 -0.106892,-1.5681 0.40005,-1.53564 1.386062,-2.25072 3.102332,-2.25072 h 2.6229 c 0.11254,0 0.210259,-0.0758 0.23813,-0.18485 l 0.19685,-0.75636 c 0.02011,-0.0734 0.004,-0.1524 -0.0427,-0.21272 -0.0469,-0.0607 -0.11924,-0.0956 -0.19544,-0.0956 h -2.720269 c -2.49978,0 -4.32082,1.26154 -4.871511,3.37609 -0.254,0.97014 -0.1397,1.80304 0.32879,2.4077 0.54645,0.70768 1.542349,1.08162 2.88149,1.08162 h 2.720271 c 0.112538,0 0.209899,-0.0759 0.23812,-0.1838 l 0.19685,-0.7567 c 0.0205,-0.0744 0.004,-0.1524 -0.0427,-0.21308 -0.0469,-0.0603 -0.11924,-0.0963 -0.19544,-0.0963" />
    <path
       inkscape:connector-curvature="0"
       id="path7178"
       style="fill:#000000;fill-opacity:1;fill-rule:nonzero;stroke:none;stroke-width:0.35277778"
       d="m 76.653527,174.51032 c -0.0462,-0.0603 -0.11853,-0.0956 -0.194378,-0.0956 h -6.269572 c -0.112178,0 -0.210961,0.0758 -0.238829,0.18415 l -1.661581,6.37293 c -0.01831,0.0737 -0.004,0.1524 0.0441,0.21237 0.0459,0.061 0.118179,0.096 0.194379,0.096 h 6.367639 c 0.112882,0 0.209902,-0.0759 0.23812,-0.1838 l 0.197203,-0.75671 c 0.01979,-0.0744 0.003,-0.15205 -0.0427,-0.21273 -0.0476,-0.0603 -0.118539,-0.0967 -0.195789,-0.0967 h -4.869752 l 0.436031,-1.67181 h 4.479581 c 0.112178,0 0.21096,-0.0759 0.23953,-0.1845 l 0.183089,-0.7045 c 0.01871,-0.0741 0.004,-0.1524 -0.0437,-0.21273 -0.0459,-0.0607 -0.11853,-0.0956 -0.19473,-0.0956 h -4.35187 l 0.390168,-1.49683 h 4.901502 c 0.111469,0 0.208838,-0.0759 0.23812,-0.18451 l 0.197559,-0.75671 c 0.01799,-0.0734 0.004,-0.1524 -0.0441,-0.21272" />
    <path
       inkscape:connector-curvature="0"
       id="path7182"
       style="fill:#ffc221;fill-opacity:1;fill-rule:nonzero;stroke:none;stroke-width:0.35277778"
       d="m 15.064176,177.35688 h 2.72627 c 0.10301,0 0.19332,-0.0706 0.21766,-0.17039 l 0.60854,-2.45675 c 0.0169,-0.0674 0.001,-0.13793 -0.0413,-0.19226 -0.042,-0.0547 -0.10725,-0.0861 -0.17639,-0.0861 h -2.72662 c -0.10301,0 -0.19297,0.0706 -0.21767,0.17039 l -0.60889,2.45675 c -0.0162,0.0674 -7.01e-4,0.13829 0.0413,0.19226 0.043,0.0547 0.10795,0.0861 0.17709,0.0861" />
    <path
       inkscape:connector-curvature="0"
       id="path7186"
       style="fill:#ffc221;fill-opacity:1;fill-rule:nonzero;stroke:none;stroke-width:0.35277778"
       d="m 17.101466,180.84797 0.60819,-2.45745 c 0.0166,-0.0667 0.001,-0.13723 -0.0413,-0.19191 -0.0423,-0.054 -0.10759,-0.0857 -0.17674,-0.0857 h -2.72591 c -0.10301,0 -0.19297,0.0698 -0.21802,0.17004 l -0.60819,2.45675 c -0.0169,0.0674 -0.002,0.13864 0.0406,0.19191 0.043,0.0547 0.10795,0.0857 0.17674,0.0857 h 2.72698 c 0.10301,0 0.19261,-0.0699 0.21766,-0.16933" />
    <path
       inkscape:connector-curvature="0"
       id="path7190"
       style="fill:#ffc221;fill-opacity:1;fill-rule:nonzero;stroke:none;stroke-width:0.35277778"
       d="m 16.585356,181.77366 h -2.72662 c -0.10301,0 -0.19297,0.0699 -0.21731,0.17004 l -0.60854,2.45674 c -0.0166,0.0677 -10e-4,0.13759 0.0406,0.19297 0.043,0.0543 0.1083,0.0861 0.17709,0.0861 h 2.72592 c 0.10371,0 0.19332,-0.0702 0.21837,-0.17039 l 0.60818,-2.4578 c 0.0166,-0.0663 0.001,-0.13688 -0.0413,-0.19121 -0.0423,-0.0547 -0.1076,-0.0864 -0.17639,-0.0864" />
    <path
       inkscape:connector-curvature="0"
       id="path7194"
       style="fill:#000000;fill-opacity:1;fill-rule:nonzero;stroke:none;stroke-width:0.35277778"
       d="m 19.017756,177.35688 h 2.72662 c 0.10301,0 0.19262,-0.0706 0.21766,-0.17039 l 0.60819,-2.45675 c 0.0169,-0.0674 0.002,-0.13793 -0.0413,-0.19226 -0.0423,-0.0547 -0.10725,-0.0861 -0.17639,-0.0861 h -2.72627 c -0.10301,0 -0.19297,0.0706 -0.21766,0.17039 l -0.60854,2.45675 c -0.0166,0.0674 -0.001,0.13829 0.0413,0.19226 0.0427,0.0547 0.1076,0.0861 0.17639,0.0861" />
    <path
       inkscape:connector-curvature="0"
       id="path7198"
       style="fill:#000000;fill-opacity:1;fill-rule:nonzero;stroke:none;stroke-width:0.35277778"
       d="m 21.055046,180.84797 0.60854,-2.45745 c 0.0166,-0.0667 0.001,-0.13723 -0.0416,-0.19191 -0.042,-0.054 -0.10724,-0.0857 -0.17639,-0.0857 h -2.72626 c -0.10301,0 -0.19297,0.0698 -0.21802,0.17004 l -0.60819,2.45675 c -0.0166,0.0674 -10e-4,0.13864 0.0409,0.19191 0.043,0.0547 0.10795,0.0857 0.177091,0.0857 h 2.726269 c 0.103011,0 0.192971,-0.0699 0.21766,-0.16933" />
    <path
       inkscape:connector-curvature="0"
       id="path7202"
       style="fill:#ffc221;fill-opacity:1;fill-rule:nonzero;stroke:none;stroke-width:0.35277778"
       d="m 20.538936,181.77366 h -2.72591 c -0.10337,0 -0.19333,0.0699 -0.21802,0.17004 l -0.60889,2.45674 c -0.0166,0.0677 -10e-4,0.13759 0.0413,0.19297 0.0427,0.0543 0.1076,0.0861 0.17674,0.0861 h 2.72627 c 0.10372,0 0.19297,-0.0702 0.21802,-0.17039 l 0.60818,-2.4578 c 0.0166,-0.0663 10e-4,-0.13688 -0.0413,-0.19121 -0.0427,-0.0547 -0.1076,-0.0864 -0.17639,-0.0864" />
    <path
       inkscape:connector-curvature="0"
       id="path7206"
       style="fill:#000000;fill-opacity:1;fill-rule:nonzero;stroke:none;stroke-width:0.35277778"
       d="m 26.483237,174.53748 c -0.043,-0.0547 -0.1076,-0.0861 -0.17674,-0.0861 h -2.72592 c -0.10336,0 -0.19332,0.0706 -0.21766,0.17039 l -0.609251,2.45675 c -0.0162,0.0674 -10e-4,0.13829 0.0416,0.19226 0.0427,0.0547 0.10725,0.0861 0.17604,0.0861 h 2.725911 c 0.10372,0 0.19332,-0.0706 0.21802,-0.17039 l 0.60924,-2.45675 c 0.0166,-0.0674 10e-4,-0.13793 -0.0413,-0.19226" />
    <path
       inkscape:connector-curvature="0"
       id="path7210"
       style="fill:#000000;fill-opacity:1;fill-rule:nonzero;stroke:none;stroke-width:0.35277778"
       d="m 25.399507,178.11288 h -2.726271 c -0.10336,0 -0.19297,0.0698 -0.21766,0.17004 l -0.60889,2.45674 c -0.0162,0.0674 -0.002,0.13864 0.0413,0.19191 0.0423,0.0543 0.1076,0.0857 0.176391,0.0857 h 2.72662 c 0.10301,0 0.19297,-0.0699 0.21802,-0.16933 l 0.60818,-2.45745 c 0.0166,-0.0667 0.002,-0.13723 -0.0409,-0.19192 -0.043,-0.0543 -0.1076,-0.0857 -0.17674,-0.0857" />
    <path
       inkscape:connector-curvature="0"
       id="path7214"
       style="fill:#ffc221;fill-opacity:1;fill-rule:nonzero;stroke:none;stroke-width:0.35277778"
       d="m 24.492517,181.77366 h -2.725911 c -0.10337,0 -0.19333,0.0699 -0.21767,0.17004 l -0.60889,2.45674 c -0.0162,0.0677 -0.002,0.13759 0.0409,0.19297 0.043,0.0543 0.107601,0.0861 0.17639,0.0861 h 2.726971 c 0.10266,0 0.19262,-0.0702 0.21767,-0.17039 l 0.60818,-2.4578 c 0.0162,-0.0663 0.002,-0.13688 -0.0413,-0.19121 -0.0427,-0.0547 -0.10725,-0.0864 -0.17639,-0.0864" />
    <path
       inkscape:connector-curvature="0"
       id="path7218"
       style="fill:#ffc221;fill-opacity:1;fill-rule:nonzero;stroke:none;stroke-width:0.35277778"
       d="m 29.138597,182.61715 h -1.10737 c -0.58808,0 -0.96767,0.21202 -1.06786,0.59619 -0.0406,0.15699 -0.0222,0.28752 0.0557,0.38806 0.11007,0.14217 0.33267,0.21484 0.66146,0.21484 h 0.53199 c 0.15628,0 0.25012,0.024 0.28822,0.073 0.0275,0.0363 0.031,0.0931 0.0106,0.17109 -0.0593,0.22825 -0.30445,0.27658 -0.49918,0.27658 h -1.24072 c -0.0261,0 -0.0501,0.0176 -0.0564,0.043 l -0.0607,0.23283 c -0.004,0.0173 -3.44e-4,0.0353 0.0106,0.0498 0.0113,0.0141 0.0286,0.0233 0.0462,0.0233 h 1.22414 c 0.57114,0 0.95602,-0.22013 1.05586,-0.6029 0.043,-0.16298 0.0236,-0.29739 -0.0568,-0.40111 -0.11112,-0.14358 -0.335139,-0.21801 -0.664629,-0.21801 h -0.52776 c -0.159811,0 -0.25576,-0.0236 -0.293511,-0.0727 -0.0254,-0.0317 -0.0289,-0.0822 -0.01,-0.15204 0.0494,-0.19086 0.19862,-0.27305 0.49777,-0.27305 h 1.14265 c 0.0261,0 0.0494,-0.0173 0.0557,-0.0441 l 0.0603,-0.23142 c 0.005,-0.0176 0.001,-0.036 -0.0102,-0.0501 -0.0109,-0.0138 -0.0279,-0.0233 -0.0462,-0.0233" />
    <path
       inkscape:connector-curvature="0"
       id="path7222"
       style="fill:#ffc221;fill-opacity:1;fill-rule:nonzero;stroke:none;stroke-width:0.35277778"
       d="m 32.960237,182.61715 h -1.91911 c -0.0268,0 -0.0497,0.0183 -0.0565,0.0444 l -0.50905,1.95121 c -0.004,0.0173 -3.7e-4,0.0353 0.0106,0.0498 0.0109,0.0141 0.0282,0.0233 0.0459,0.0233 h 1.9498 c 0.0265,0 0.049,-0.0191 0.0561,-0.0438 l 0.0603,-0.23177 c 0.005,-0.0183 10e-4,-0.0356 -0.0102,-0.0512 -0.0109,-0.0145 -0.0279,-0.0222 -0.0459,-0.0222 h -1.51307 l 0.14217,-0.5461 h 1.38501 c 0.0265,0 0.0497,-0.0176 0.0564,-0.0441 l 0.0561,-0.21484 c 0.005,-0.0173 3.44e-4,-0.0374 -0.0102,-0.0512 -0.0109,-0.0141 -0.0282,-0.0219 -0.0466,-0.0219 h -1.35396 l 0.12841,-0.49283 h 1.51342 c 0.0264,0 0.0494,-0.0173 0.0561,-0.0441 l 0.0603,-0.23142 c 0.005,-0.0176 10e-4,-0.036 -0.0102,-0.0501 -0.0109,-0.0138 -0.0279,-0.0233 -0.0459,-0.0233" />
    <path
       inkscape:connector-curvature="0"
       id="path7226"
       style="fill:#ffc221;fill-opacity:1;fill-rule:nonzero;stroke:none;stroke-width:0.35277778"
       d="m 37.356557,182.61715 h -0.49001 c -0.018,0 -0.0353,0.01 -0.0466,0.024 l -0.95215,1.28164 c -0.0649,0.0868 -0.14358,0.20038 -0.20109,0.28646 -0.0148,-0.0829 -0.0335,-0.1838 -0.0515,-0.26529 l -0.30551,-1.28164 c -0.007,-0.0254 -0.03,-0.0452 -0.0572,-0.0452 h -0.48965 c -0.0265,0 -0.0494,0.0183 -0.0561,0.0444 l -0.50906,1.95121 c -0.004,0.0173 0,0.0353 0.0109,0.0498 0.0109,0.0141 0.0282,0.0233 0.0459,0.0233 h 0.33972 c 0.0261,0 0.0497,-0.0191 0.0568,-0.0438 l 0.29386,-1.12994 c 0.0155,-0.0589 0.0317,-0.12841 0.0473,-0.1965 0.0106,0.0603 0.0226,0.11924 0.0346,0.1711 l 0.27834,1.15429 c 0.007,0.0254 0.0303,0.0448 0.0568,0.0448 h 0.3609 c 0.0187,0 0.0356,-0.01 0.0466,-0.0233 l 0.875951,-1.155 c 0.037,-0.0476 0.0773,-0.10336 0.11677,-0.16122 -0.0131,0.0483 -0.0265,0.0953 -0.0374,0.13723 l -0.29422,1.12924 c -0.005,0.0173 -7.15e-4,0.0353 0.0106,0.0498 0.0109,0.0141 0.0279,0.0233 0.0459,0.0233 h 0.36089 c 0.0268,0 0.0498,-0.0191 0.0565,-0.0438 l 0.50835,-1.95156 c 0.005,-0.0176 10e-4,-0.036 -0.01,-0.0501 -0.0113,-0.0138 -0.0286,-0.0233 -0.0462,-0.0233" />
    <path
       inkscape:connector-curvature="0"
       id="path7230"
       style="fill:#ffc221;fill-opacity:1;fill-rule:nonzero;stroke:none;stroke-width:0.35277778"
       d="m 39.661957,182.61715 h -0.36901 c -0.0272,0 -0.0501,0.0183 -0.0568,0.0444 l -0.50836,1.95121 c -0.005,0.0173 -10e-4,0.0353 0.0102,0.0498 0.0109,0.0141 0.0282,0.0233 0.0459,0.0233 h 0.36971 c 0.0272,0 0.0494,-0.0191 0.0564,-0.0438 l 0.508351,-1.95156 c 0.005,-0.0176 0.0011,-0.036 -0.01021,-0.0501 -0.0109,-0.0138 -0.0282,-0.0233 -0.0462,-0.0233" />
    <path
       inkscape:connector-curvature="0"
       id="path7234"
       style="fill:#ffc221;fill-opacity:1;fill-rule:nonzero;stroke:none;stroke-width:0.35277778"
       d="m 43.466316,182.61715 h -0.83326 c -0.757058,0 -1.3081,0.38276 -1.474259,1.022 -0.0762,0.29104 -0.0427,0.54045 0.0974,0.72213 0.163692,0.21132 0.464611,0.32456 0.86818,0.32456 h 0.83326 c 0.0268,0 0.0497,-0.0191 0.0564,-0.0438 l 0.0603,-0.23177 c 0.005,-0.0183 7.93e-4,-0.0356 -0.01021,-0.0512 -0.01061,-0.0145 -0.0279,-0.0222 -0.0466,-0.0222 h -0.802931 c -0.270578,0 -0.452958,-0.0589 -0.54257,-0.17498 -0.0825,-0.10724 -0.0949,-0.26775 -0.0353,-0.49424 0.124539,-0.47801 0.431099,-0.70167 0.966258,-0.70167 h 0.802571 c 0.0268,0 0.0494,-0.0173 0.0561,-0.0441 l 0.0607,-0.23142 c 0.005,-0.0176 0.0011,-0.036 -0.01061,-0.0501 -0.01061,-0.0138 -0.0275,-0.0233 -0.0455,-0.0233" />
    <path
       inkscape:connector-curvature="0"
       id="path7238"
       style="fill:#ffc221;fill-opacity:1;fill-rule:nonzero;stroke:none;stroke-width:0.35277778"
       d="m 45.860266,184.36834 c -0.326668,0 -0.521758,-0.0557 -0.614889,-0.17674 -0.0833,-0.10689 -0.0931,-0.27482 -0.0314,-0.51047 0.15981,-0.61489 0.53305,-0.74013 1.04422,-0.74013 0.32209,0 0.515411,0.0554 0.608189,0.17604 0.0836,0.1083 0.0935,0.28398 0.0286,0.53375 -0.132652,0.50976 -0.432512,0.71755 -1.034701,0.71755 z m 0.462841,-1.77553 c -0.86324,0 -1.414629,0.36336 -1.594199,1.05128 -0.0815,0.31115 -0.0529,0.5588 0.0854,0.73766 0.16863,0.21836 0.499539,0.32914 0.983549,0.32914 0.872061,0 1.40617,-0.34925 1.58609,-1.03646 0.0829,-0.31715 0.0526,-0.56939 -0.0882,-0.75071 -0.169331,-0.22014 -0.496361,-0.33091 -0.972611,-0.33091" />
    <path
       inkscape:connector-curvature="0"
       id="path7242"
       style="fill:#ffc221;fill-opacity:1;fill-rule:nonzero;stroke:none;stroke-width:0.35277778"
       d="m 51.425686,182.61715 h -0.338309 c -0.0272,0 -0.0508,0.0183 -0.0579,0.0444 l -0.37606,1.44462 c -0.02191,-0.0452 -0.048,-0.0963 -0.0737,-0.14216 l -0.76941,-1.31657 c -0.01019,-0.019 -0.0289,-0.0303 -0.0494,-0.0303 h -0.413451 c -0.0258,0 -0.0494,0.0183 -0.0565,0.0444 l -0.508,1.95121 c -0.005,0.0173 -2.65e-4,0.0353 0.01021,0.0498 0.0113,0.0141 0.0282,0.0233 0.0462,0.0233 h 0.338659 c 0.0272,0 0.0508,-0.0191 0.0575,-0.0438 l 0.379942,-1.45803 c 0.024,0.048 0.0529,0.10407 0.0864,0.16193 l 0.76517,1.31022 c 0.01061,0.0173 0.03,0.0296 0.0512,0.0296 h 0.399341 c 0.0258,0 0.0494,-0.0191 0.0561,-0.0438 l 0.508,-1.95156 c 0.005,-0.0176 0.0011,-0.036 -0.01019,-0.0501 -0.01061,-0.0138 -0.0275,-0.0233 -0.0459,-0.0233" />
    <path
       inkscape:connector-curvature="0"
       id="path7246"
       style="fill:#ffc221;fill-opacity:1;fill-rule:nonzero;stroke:none;stroke-width:0.35277778"
       d="m 53.871847,184.33694 h -0.542219 l 0.356309,-1.37089 h 0.57291 c 0.315029,0 0.500589,0.0512 0.58455,0.15839 0.0783,0.1009 0.0829,0.27023 0.01479,0.52917 -0.132652,0.51117 -0.381709,0.68333 -0.986369,0.68333 z m 0.498829,-1.71979 h -1.03011 c -0.0265,0 -0.0494,0.0183 -0.0561,0.0444 l -0.508359,1.95121 c -0.005,0.0173 -0.0021,0.0353 0.01061,0.0497 0.01061,0.0141 0.0282,0.0229 0.0455,0.0229 h 1.026232 c 0.81245,0 1.315508,-0.34466 1.492609,-1.02446 0.0825,-0.31574 0.0554,-0.56515 -0.079,-0.73978 -0.15839,-0.20426 -0.452961,-0.30409 -0.90134,-0.30409" />
    <path
       inkscape:connector-curvature="0"
       id="path7250"
       style="fill:#ffc221;fill-opacity:1;fill-rule:nonzero;stroke:none;stroke-width:0.35277778"
       d="m 59.428097,182.61715 h -0.360191 c -0.0272,0 -0.0504,0.0183 -0.0561,0.0444 l -0.306908,1.17616 c -0.109371,0.41698 -0.28575,0.53058 -0.818801,0.53058 -0.29069,0 -0.44909,-0.0374 -0.51435,-0.12136 -0.054,-0.0691 -0.0554,-0.18662 -0.006,-0.37923 l 0.30657,-1.17722 c 0.006,-0.0176 0.0011,-0.036 -0.01021,-0.0501 -0.01061,-0.0138 -0.0275,-0.0233 -0.0455,-0.0233 h -0.361249 c -0.02609,0 -0.0494,0.0183 -0.0564,0.0444 l -0.31432,1.20897 c -0.0624,0.23848 -0.0402,0.42898 0.0656,0.56621 0.14288,0.18415 0.428979,0.27411 0.877009,0.27411 0.76059,0 1.19979,-0.266 1.341961,-0.81175 l 0.31609,-1.20861 c 0.004,-0.0176 0,-0.036 -0.01021,-0.0501 -0.0123,-0.0138 -0.0279,-0.0233 -0.0473,-0.0233" />
    <path
       inkscape:connector-curvature="0"
       id="path7254"
       style="fill:#ffc221;fill-opacity:1;fill-rule:nonzero;stroke:none;stroke-width:0.35277778"
       d="m 63.134028,182.61715 h -0.832562 c -0.75706,0 -1.308449,0.38276 -1.474959,1.022 -0.0762,0.29104 -0.042,0.54045 0.0974,0.72213 0.16474,0.21132 0.46496,0.32456 0.86818,0.32456 h 0.83221 c 0.0275,0 0.0508,-0.0191 0.0575,-0.0438 l 0.0596,-0.23177 c 0.006,-0.0183 0.0021,-0.0356 -0.01,-0.0512 -0.0109,-0.0145 -0.0279,-0.0222 -0.0462,-0.0222 h -0.802219 c -0.271291,0 -0.45402,-0.0589 -0.542221,-0.17498 -0.0847,-0.10724 -0.0956,-0.26775 -0.037,-0.49424 0.125241,-0.47801 0.43215,-0.70167 0.96696,-0.70167 h 0.802222 c 0.0272,0 0.0505,-0.0173 0.0575,-0.0441 l 0.0596,-0.23142 c 0.005,-0.0176 7.94e-4,-0.036 -0.01021,-0.0501 -0.0109,-0.0138 -0.0279,-0.0233 -0.0459,-0.0233" />
    <path
       inkscape:connector-curvature="0"
       id="path7258"
       style="fill:#ffc221;fill-opacity:1;fill-rule:nonzero;stroke:none;stroke-width:0.35277778"
       d="m 66.736597,182.61715 h -2.10467 c -0.02609,0 -0.0494,0.0183 -0.0561,0.0444 l -0.0596,0.23142 c -0.006,0.0173 -0.0021,0.0356 0.01019,0.0512 0.01021,0.0145 0.0275,0.0219 0.0459,0.0219 h 0.794811 l -0.428634,1.64676 c -0.005,0.0173 -7.93e-4,0.0353 0.01021,0.0498 0.0109,0.0141 0.0279,0.0233 0.0469,0.0233 h 0.36054 c 0.0272,0 0.049,-0.0191 0.0561,-0.0438 l 0.437094,-1.67604 h 0.826209 c 0.0272,0 0.049,-0.0173 0.0561,-0.0441 l 0.061,-0.23142 c 0.004,-0.0176 7.93e-4,-0.036 -0.01021,-0.0501 -0.0113,-0.0138 -0.0286,-0.0233 -0.0459,-0.0233" />
    <path
       inkscape:connector-curvature="0"
       id="path7262"
       style="fill:#ffc221;fill-opacity:1;fill-rule:nonzero;stroke:none;stroke-width:0.35277778"
       d="m 69.091037,184.36834 c -0.325609,0 -0.521761,-0.0557 -0.615241,-0.17674 -0.0829,-0.10689 -0.0928,-0.27482 -0.031,-0.51047 0.160162,-0.61489 0.534111,-0.74013 1.045992,-0.74013 0.321019,0 0.514699,0.0554 0.607129,0.17604 0.0847,0.1083 0.0942,0.28398 0.0286,0.53375 -0.133701,0.50976 -0.432151,0.71755 -1.035401,0.71755 z m 0.463201,-1.77553 c -0.8636,0 -1.414291,0.36336 -1.59421,1.05128 -0.0815,0.31115 -0.0515,0.5588 0.0864,0.73766 0.168619,0.21836 0.498819,0.32914 0.98213,0.32914 0.87312,0 1.40652,-0.34925 1.58573,-1.03646 0.0829,-0.31715 0.054,-0.56939 -0.0868,-0.75071 -0.169691,-0.22014 -0.49706,-0.33091 -0.97331,-0.33091" />
    <path
       inkscape:connector-curvature="0"
       id="path7266"
       style="fill:#ffc221;fill-opacity:1;fill-rule:nonzero;stroke:none;stroke-width:0.35277778"
       d="m 72.925016,182.96605 h 0.705562 c 0.267049,0 0.414859,0.031 0.467778,0.0991 0.01939,0.025 0.0427,0.0759 0.008,0.20496 -0.0674,0.25965 -0.211321,0.33091 -0.67169,0.33091 h -0.67594 z m 1.614311,-0.10724 c -0.12559,-0.16228 -0.386639,-0.24166 -0.79587,-0.24166 h -1.164158 c -0.0265,0 -0.0487,0.018 -0.0557,0.0444 l -0.509762,1.95122 c -0.004,0.0173 0,0.0353 0.01021,0.0497 0.0123,0.0141 0.0282,0.0229 0.0473,0.0229 h 0.36018 c 0.0272,0 0.0505,-0.0191 0.0571,-0.0438 l 0.180269,-0.69179 h 0.4953 c 0.19826,0 0.23495,0.0325 0.335851,0.20143 l 0.297389,0.50448 c 0.0109,0.019 0.03,0.0296 0.0508,0.0296 h 0.407461 c 7.94e-4,0 0.003,0 0.003,0 0.0321,0 0.0582,-0.0265 0.0582,-0.0586 0,-0.0173 -0.007,-0.0335 -0.01831,-0.0438 l -0.308337,-0.51858 c -0.0388,-0.0684 -0.073,-0.12065 -0.111831,-0.16334 0.398639,-0.0896 0.635351,-0.29315 0.719312,-0.61736 0.0452,-0.17321 0.0254,-0.31503 -0.0586,-0.42509" />
    <path
       inkscape:connector-curvature="0"
       id="path7270"
       style="fill:#ffc221;fill-opacity:1;fill-rule:nonzero;stroke:none;stroke-width:0.35277778"
       d="m 75.195147,184.11222 h -0.45297 c -0.01339,0 -0.0236,0.0102 -0.0236,0.0236 v 0.0631 c 0,0.003 2.65e-4,0.007 0.0021,0.008 0.003,0.01 0.01159,0.0162 0.02151,0.0162 h 0.16334 v 0.4445 c 0,0.002 2.65e-4,0.005 0.0021,0.008 0.003,0.0102 0.0113,0.0173 0.02151,0.0173 h 0.0787 c 0.01241,0 0.0226,-0.0106 0.0226,-0.024 V 184.223 h 0.164738 c 0.0131,0 0.0236,-0.0102 0.0236,-0.0236 v -0.0624 c 0,-0.001 0,-0.003 0,-0.004 -0.0021,-0.0113 -0.0113,-0.0212 -0.024,-0.0212" />
    <path
       inkscape:connector-curvature="0"
       id="path7274"
       style="fill:#ffc221;fill-opacity:1;fill-rule:nonzero;stroke:none;stroke-width:0.35277778"
       d="m 75.874949,184.11222 h -0.105831 c -0.01021,0 -0.01831,0.006 -0.02151,0.0145 l -0.134062,0.34925 c -0.005,0.0145 -0.0109,0.0314 -0.01691,0.0473 -0.005,-0.0162 -0.0109,-0.0328 -0.01619,-0.0473 l -0.137578,-0.34925 c -0.003,-0.009 -0.01241,-0.0145 -0.0222,-0.0145 h -0.10513 c -0.0131,0 -0.02331,0.0116 -0.02331,0.025 v 0.53199 c 0,0.0134 0.01021,0.024 0.02331,0.024 h 0.0727 c 0.008,0 0.01479,-0.004 0.01831,-0.0113 0.004,-0.003 0.006,-0.009 0.006,-0.0141 v -0.2928 l 0.12065,0.30374 c 0.004,0.008 0.01159,0.0145 0.02119,0.0145 h 0.0773 c 0.01021,0 0.019,-0.007 0.02259,-0.0145 l 0.11888,-0.30409 v 0.29457 c 0,0.0134 0.01019,0.024 0.02289,0.024 h 0.0783 c 0.007,0 0.01299,-0.004 0.01831,-0.0102 0.004,-0.004 0.005,-0.01 0.005,-0.0152 v -0.53198 c 0,-0.0134 -0.01021,-0.0236 -0.0222,-0.0236" />
  </g>
</svg>
