<?xml version="1.0" encoding="UTF-8" standalone="no"?>
<!-- Created with Inkscape (http://www.inkscape.org/) -->
<svg
   xmlns:dc="http://purl.org/dc/elements/1.1/"
   xmlns:cc="http://web.resource.org/cc/"
   xmlns:rdf="http://www.w3.org/1999/02/22-rdf-syntax-ns#"
   xmlns:svg="http://www.w3.org/2000/svg"
   xmlns="http://www.w3.org/2000/svg"
   xmlns:sodipodi="http://sodipodi.sourceforge.net/DTD/sodipodi-0.dtd"
   xmlns:inkscape="http://www.inkscape.org/namespaces/inkscape"
   width="733.07391"
   height="159.91238"
   id="svg5538"
   sodipodi:version="0.32"
   inkscape:version="0.44"
   version="1.0"
   sodipodi:docbase="E:\Logos"
   sodipodi:docname="Qualcomm-Logo.svg">
  <defs
     id="defs5540" />
  <sodipodi:namedview
     id="base"
     pagecolor="#ffffff"
     bordercolor="#666666"
     borderopacity="1.0"
     inkscape:pageopacity="0.0"
     inkscape:pageshadow="2"
     inkscape:zoom="0.35"
     inkscape:cx="350"
     inkscape:cy="520"
     inkscape:document-units="px"
     inkscape:current-layer="layer1"
     inkscape:window-width="925"
     inkscape:window-height="573"
     inkscape:window-x="110"
     inkscape:window-y="110" />
  <metadata
     id="metadata5543">
    <rdf:RDF>
      <cc:Work
         rdf:about="">
        <dc:format>image/svg+xml</dc:format>
        <dc:type
           rdf:resource="http://purl.org/dc/dcmitype/StillImage" />
      </cc:Work>
    </rdf:RDF>
  </metadata>
  <g
     inkscape:label="Ebene 1"
     inkscape:groupmode="layer"
     id="layer1"
     transform="translate(20.82268,-629.8997)">
    <path
       id="path5480"
       class="ps01"
       d="M 277.48415,720.91344 C 277.48415,723.92852 280.96856,727.43429 284.02629,727.43429 L 328.61233,727.41293 L 318.65693,711.33493 L 292.77283,711.3278 L 292.77283,649.49759 L 277.48415,649.49759 L 277.48415,720.91344"
       style="fill:black;fill-rule:nonzero;stroke:none" />
    <path
       id="path5482"
       class="ps01"
       d="M 76.811456,728.6858 L 76.811456,706.9972 L 57.896186,712.41578 L 57.896186,739.28829 C 54.269596,740.27676 50.429636,740.88827 46.518596,740.88827 C 22.412276,740.88827 2.8570057,721.35435 2.8570057,697.25511 C 2.8570057,673.16307 22.412276,653.62909 46.518596,653.62909 C 70.624916,653.62909 90.180186,673.16307 90.180186,697.25511 C 90.180186,709.59273 85.060226,720.74278 76.811456,728.6858 z M 113.85982,697.25511 C 113.85982,660.05743 83.709136,629.89967 46.518596,629.89967 C 9.3279957,629.89967 -20.822684,660.05743 -20.822684,697.25511 C -20.822684,734.45992 9.3279957,764.61774 46.518596,764.61774 C 50.500726,764.61774 54.198456,764.24798 57.967326,763.58663 L 57.896186,789.81205 L 76.811456,789.81205 L 76.811456,757.19385 C 98.713366,746.07224 113.85982,723.48053 113.85982,697.25511"
       style="fill:black;fill-rule:nonzero;stroke:none" />
    <path
       id="path5484"
       class="ps01"
       d="M 176.01005,727.44137 L 131.99292,727.44137 C 129.00628,727.44137 125.45078,723.94987 125.45078,720.9348 L 125.37969,649.49759 L 140.66832,649.49759 L 140.66832,711.3278 L 167.19242,711.3278 L 167.19242,649.49759 L 182.48111,649.49759 L 182.48111,720.9348 C 182.48111,723.94987 178.99669,727.44137 176.01005,727.44137"
       style="fill:black;fill-rule:nonzero;stroke:none" />
    <path
       id="path5486"
       class="ps01"
       d="M 381.30487,652.37044 C 375.18942,648.78651 368.07842,646.72433 360.46965,646.72433 C 337.64328,646.72433 319.08356,665.22713 319.08356,688.0535 C 319.08356,710.88695 337.64328,729.39689 360.46965,729.39689 C 367.58065,729.39689 374.40719,727.53381 380.23824,724.35521 L 372.7717,710.93674 C 369.14506,712.93491 364.94956,714.0869 360.46965,714.0869 C 346.03428,714.0869 334.44333,702.42486 334.44333,688.0535 C 334.44333,673.68214 346.03428,662.03431 360.46965,662.03431 C 365.3051,662.03431 369.85614,663.40676 373.76725,665.7249 L 381.30487,652.37044"
       style="fill:black;fill-rule:nonzero;stroke:none" />
    <path
       id="path5488"
       class="ps01"
       d="M 416.71775,714.30022 C 402.35347,714.30022 390.76257,702.75197 390.76257,688.38061 C 390.76257,674.00925 402.35347,662.24762 416.71775,662.24762 C 431.08197,662.24762 442.74402,673.90259 442.74402,688.27395 C 442.74402,702.64526 431.08197,714.30022 416.71775,714.30022 z M 416.71775,646.94472 C 393.89138,646.94472 375.40274,665.55424 375.40274,688.38061 C 375.40274,711.20692 393.89138,729.60312 416.71775,729.60312 C 439.54406,729.60312 458.0327,711.10026 458.0327,688.27395 C 458.0327,665.44758 439.54406,646.94472 416.71775,646.94472"
       style="fill:black;fill-rule:nonzero;stroke:none" />
    <path
       id="path5490"
       class="ps01"
       d="M 217.68055,697.2836 L 229.9826,669.31597 L 242.28464,697.2836 L 217.68055,697.2836 z M 237.59143,649.63269 L 222.44497,649.63269 L 188.3121,727.02895 L 204.52519,727.02895 L 212.56065,709.97671 L 247.90238,709.97671 L 248.61347,711.61939 L 255.44001,727.02895 L 271.65315,727.02895 L 237.59143,649.63269"
       style="fill:black;fill-rule:nonzero;stroke:none" />
    <path
       id="path5492"
       class="ps01"
       d="M 704.00248,717.85572 L 675.98512,653.25219 C 674.27849,650.1376 671.43407,648.70115 667.3808,648.70115 C 663.32753,648.70115 660.41203,650.1376 658.77648,653.25219 L 638.15458,700.62573 L 617.60376,653.25219 C 615.89713,650.1376 613.05271,648.70115 608.99944,648.70115 C 604.87503,648.70115 602.03062,650.1376 600.39512,653.25219 L 579.77316,700.73952 L 559.22234,653.25219 C 557.51571,650.1376 554.6713,648.70115 550.61802,648.70115 C 546.49367,648.70115 543.64926,650.1376 541.94262,653.25219 L 521.3918,700.62573 L 500.84098,653.25219 C 499.13434,650.1376 496.28993,648.70115 492.16552,648.70115 C 488.11224,648.70115 485.26783,650.1376 483.5612,653.25219 L 455.54384,717.85572 C 451.70388,727.97471 465.64147,733.17284 470.19252,725.04494 L 492.16552,673.5897 L 514.20966,725.04494 C 517.05407,730.30713 525.94285,730.07246 528.57388,725.04494 L 550.61802,673.5897 L 572.59108,725.04494 C 574.08434,727.62625 576.43098,728.73559 578.91984,728.89911 C 579.2043,728.94182 579.48876,728.95604 579.77316,728.97026 C 580.05762,728.95604 580.34208,728.94182 580.69762,728.89911 C 583.11535,728.73559 585.53307,727.62625 586.9553,725.04494 L 608.99944,673.5897 L 630.97244,725.04494 C 633.60353,730.07246 642.49225,730.30713 645.33666,725.04494 L 667.3808,673.5897 L 689.35386,725.04494 C 693.9049,733.17284 707.84244,727.97471 704.00248,717.85572"
       style="fill:black;fill-rule:nonzero;stroke:none" />
    <path
       id="path5494"
       class="ps01"
       d="M 701.15813,658.5499 L 701.15813,655.32151 L 703.36254,655.32151 C 704.42917,655.32151 705.63803,655.56331 705.63803,656.85748 C 705.63803,658.45746 704.42917,658.5499 703.07808,658.5499 L 701.15813,658.5499 z M 707.27358,656.94992 C 707.27358,654.89488 706.06472,653.98463 703.57585,653.98463 L 699.59367,653.98463 L 699.59367,664.40938 L 701.15813,664.40938 L 701.15813,659.88677 L 703.00699,659.88677 L 705.78026,664.40938 L 707.55804,664.40938 L 704.5714,659.81568 C 706.06472,659.62367 707.27358,658.813 707.27358,656.94992 z M 703.07808,666.72758 C 698.95366,666.72758 695.75377,663.52763 695.75377,659.17568 C 695.75377,654.89488 698.95366,651.66643 703.07808,651.66643 C 707.20244,651.66643 710.40239,654.89488 710.40239,659.17568 C 710.40239,663.52763 707.20244,666.72758 703.07808,666.72758 z M 703.07808,650.15889 C 698.10035,650.15889 693.9049,653.98463 693.9049,659.17568 C 693.9049,664.40938 698.10035,668.23512 703.07808,668.23512 C 708.05581,668.23512 712.25126,664.40938 712.25126,659.17568 C 712.25126,653.98463 708.05581,650.15889 703.07808,650.15889"
       style="fill:black;fill-rule:nonzero;stroke:none" />
  </g>
</svg>
