<?xml version="1.0" encoding="UTF-8" standalone="no"?>
<!-- Generator: Adobe Illustrator 16.0.2, SVG Export Plug-In . SVG Version: 6.00 Build 0)  -->

<svg
   version="1.1"
   id="Camada_1"
   x="0px"
   y="0px"
   width="893.998px"
   height="200px"
   viewBox="0 0 893.998 200"
   enable-background="new 0 0 893.998 200"
   xml:space="preserve"
   sodipodi:docname="alliance_rep_logo.svg"
   inkscape:version="1.1.2 (b8e25be833, 2022-02-05)"
   xmlns:inkscape="http://www.inkscape.org/namespaces/inkscape"
   xmlns:sodipodi="http://sodipodi.sourceforge.net/DTD/sodipodi-0.dtd"
   xmlns="http://www.w3.org/2000/svg"
   xmlns:svg="http://www.w3.org/2000/svg"
   xmlns:i="&amp;#38;ns_ai;"><defs
   id="defs1078">
	
	
</defs><sodipodi:namedview
   id="namedview1076"
   pagecolor="#505050"
   bordercolor="#eeeeee"
   borderopacity="1"
   inkscape:pageshadow="0"
   inkscape:pageopacity="0"
   inkscape:pagecheckerboard="0"
   showgrid="false"
   inkscape:zoom="1.154365"
   inkscape:cx="446.99899"
   inkscape:cy="118.67997"
   inkscape:window-width="1920"
   inkscape:window-height="1009"
   inkscape:window-x="-8"
   inkscape:window-y="-8"
   inkscape:window-maximized="1"
   inkscape:current-layer="g1069"
   showguides="true"
   inkscape:guide-bbox="true"><sodipodi:guide
     position="244.016,72.986"
     orientation="0,-1"
     id="guide15252" /><sodipodi:guide
     position="231.362,72.986"
     orientation="1,0"
     id="guide15254" /></sodipodi:namedview>
<g
   i:extraneous="self"
   id="g1071">
		
		<g
   id="g1069">
			
			
			
			
			
			
			
			
			
			
			
			
			
			
			
			
			
		<g
   id="g15498"
   inkscape:export-filename="C:\Users\eders\OneDrive\Ãrea de Trabalho\alliance_rep_logo.png"
   inkscape:export-xdpi="160.308"
   inkscape:export-ydpi="160.308"><g
     id="g1033">
			<path
   fill-rule="evenodd"
   clip-rule="evenodd"
   fill="#0a215d"
   d="m 189.05,138.448 -22.24,-38.519 -14.664,25.348 c -2.208,2.984 -3.532,6.667 -3.532,10.664 0,9.887 7.986,17.905 17.854,17.968 0.924,0.109 1.84,0.189 2.737,0.189 h 10.807 c 9.94,10e-4 14.008,-7.037 9.038,-15.65 z"
   id="path1023" />
			<path
   fill-rule="evenodd"
   clip-rule="evenodd"
   fill="#0a215d"
   d="M 123.387,114.179 H 90.641 L 103.719,91.53 c 4.456,-7.714 11.745,-7.714 16.192,0 l 14.816,25.658 31.566,-18.221 -5.096,-8.822 c -4.45,-7.717 -11.742,-20.34 -16.198,-28.054 l -25.088,-43.45 c -4.447,-7.712 -11.736,-7.712 -16.192,0 L 10.981,179.05 c -4.448,7.719 -1.776,10.39 5.942,5.938 l 37.128,-21.432 c 7.721,-4.452 20.342,-11.739 28.061,-16.196 l 43.444,-25.079 c 7.718,-4.46 6.74,-8.102 -2.169,-8.102 z"
   id="path1025" />
			<g
   id="g1029">
				<path
   fill-rule="evenodd"
   clip-rule="evenodd"
   fill="#65b3d4"
   d="M 90.641,114.179 103.719,91.53 c 1.338,-2.317 2.937,-3.925 4.633,-4.851 -0.131,0.071 -0.266,0.132 -0.392,0.212 -1.553,0.955 -47.276,27.288 -47.276,27.288 z"
   id="path1027" />
			</g>
			<path
   fill-rule="evenodd"
   clip-rule="evenodd"
   fill="#65b3d4"
   d="m 151.986,142.019 c 0,-4.001 1.321,-7.685 3.536,-10.668 l 14.661,-25.349 -10.364,6.017 -7.672,13.259 c -2.208,2.984 -3.532,6.667 -3.532,10.664 0,4.414 1.6,8.452 4.241,11.579 -0.562,-1.739 -0.87,-3.583 -0.87,-5.502 z"
   id="path1031" />
		</g><g
     aria-label="Alliance Rep Brazil"
     id="text2585"
     style="font-weight:bold;font-size:72.5622px;line-height:1.25;font-family:Raleway;-inkscape-font-specification:'Raleway Bold';fill:#0a215d;stroke-width:1.81406"
     transform="translate(-2.4426018,0.88781058)"><path
       d="m 252.8159,74.607026 h 10.1587 l 18.93874,51.519164 h -10.30383 l -4.78911,-12.84351 h -17.99543 l -4.71654,12.84351 H 233.8046 Z m 12.19045,31.637124 -7.1111,-21.260729 -7.40134,21.260729 z"
       id="path15256" /><path
       d="m 286.36099,73.155782 h 9.72334 v 40.779958 q 0,2.61224 0.87074,3.55555 0.87075,0.87074 2.39456,0.87074 1.16099,0 2.39455,-0.29024 1.23356,-0.29025 2.17686,-0.72563 l 1.30612,7.40135 q -1.95918,0.94331 -4.57141,1.45124 -2.61224,0.50794 -4.71655,0.50794 -4.57142,0 -7.11109,-2.39455 -2.46712,-2.46712 -2.46712,-6.96598 z"
       id="path15258" /><path
       d="m 309.36317,73.155782 h 9.72333 v 40.779958 q 0,2.61224 0.87075,3.55555 0.87075,0.87074 2.39455,0.87074 1.161,0 2.39456,-0.29024 1.23355,-0.29025 2.17686,-0.72563 l 1.30612,7.40135 q -1.95918,0.94331 -4.57142,1.45124 -2.61224,0.50794 -4.71654,0.50794 -4.57142,0 -7.1111,-2.39455 -2.46711,-2.46712 -2.46711,-6.96598 z"
       id="path15260" /><path
       d="M 332.43791,126.12619 V 88.103596 h 9.72333 v 38.022594 z m 0,-43.319635 v -9.650773 h 9.72333 v 9.650773 z"
       id="path15262" /><path
       d="m 348.32897,114.87905 q 0,-3.70067 2.03174,-6.45804 2.10431,-2.82992 5.80498,-4.35373 3.70067,-1.52381 8.48978,-1.52381 2.39455,0 4.86166,0.36282 2.46712,0.36281 4.28117,1.16099 v -2.03174 q 0,-3.628111 -2.17686,-5.587291 -2.10431,-1.959179 -6.31291,-1.959179 -3.12018,0 -5.9501,1.088433 -2.82993,1.088433 -5.95011,3.192737 l -3.12017,-6.385474 q 3.77323,-2.467115 7.69159,-3.700672 3.99092,-1.233558 8.34466,-1.233558 8.12696,0 12.62582,4.063484 4.57142,4.063483 4.57142,11.60995 v 12.11789 q 0,1.52381 0.50793,2.17687 0.5805,0.65306 1.81406,0.79818 v 7.90928 q -1.30612,0.21769 -2.39455,0.36281 -1.01587,0.14513 -1.7415,0.14513 -2.90248,0 -4.42629,-1.30612 -1.45124,-1.30612 -1.81406,-3.19274 l -0.21768,-1.95918 q -2.46712,3.19274 -6.16779,4.93423 -3.70067,1.74149 -7.54647,1.74149 -3.77323,0 -6.82085,-1.5238 -2.97505,-1.59637 -4.71654,-4.28117 -1.66893,-2.75737 -1.66893,-6.16779 z m 23.65528,1.95918 q 0.79818,-0.87075 1.30612,-1.74149 0.50793,-0.87075 0.50793,-1.59637 v -3.8458 q -1.74149,-0.72562 -3.77323,-1.08843 -2.03174,-0.43538 -3.8458,-0.43538 -3.77323,0 -6.24035,1.66893 -2.39455,1.59637 -2.39455,4.28117 0,1.45125 0.79818,2.75737 0.79819,1.30612 2.32199,2.1043 1.52381,0.79819 3.62812,0.79819 2.17686,0 4.28117,-0.79819 2.1043,-0.87074 3.41042,-2.1043 z"
       id="path15264" /><path
       d="m 427.92966,126.12619 h -9.72334 V 104.7929 q 0,-4.57142 -1.59636,-6.67572 -1.59637,-2.104304 -4.4263,-2.104304 -1.95918,0 -3.99092,1.015871 -1.95918,1.015871 -3.55555,2.829926 -1.59637,1.741497 -2.32199,4.063487 v 22.20403 h -9.72333 V 88.103596 h 8.78002 v 7.038534 q 1.45125,-2.467115 3.70068,-4.136046 2.24942,-1.741493 5.15191,-2.612239 2.97505,-0.943309 6.24035,-0.943309 3.55555,0 5.80498,1.30612 2.32199,1.233557 3.48298,3.410423 1.23356,2.104304 1.66893,4.789106 0.50794,2.684801 0.50794,5.442165 z"
       id="path15266" /><path
       d="m 454.12462,126.85181 q -4.64398,0 -8.34465,-1.5238 -3.70068,-1.59637 -6.31291,-4.35374 -2.61224,-2.82992 -4.06349,-6.38547 -1.37868,-3.55555 -1.37868,-7.47391 0,-5.3696 2.39455,-9.795894 2.46712,-4.498857 6.96597,-7.183658 4.49886,-2.684802 10.66665,-2.684802 6.16779,0 10.59408,2.684802 4.42629,2.684801 6.60316,7.038533 l -9.50565,2.902489 q -1.23356,-2.104304 -3.2653,-3.192737 -2.03174,-1.160996 -4.49885,-1.160996 -2.75737,0 -5.07936,1.451244 -2.24943,1.378682 -3.55555,3.990919 -1.30612,2.53968 -1.30612,5.9501 0,3.33786 1.30612,5.9501 1.37869,2.53968 3.62811,4.06349 2.24943,1.45124 5.0068,1.45124 1.74149,0 3.2653,-0.5805 1.59636,-0.58049 2.82992,-1.59636 1.23356,-1.01588 1.81406,-2.322 l 9.50564,2.90249 q -1.30611,2.82993 -3.84579,5.07936 -2.46712,2.24943 -5.87754,3.55554 -3.33786,1.23356 -7.54647,1.23356 z"
       id="path15268" /><path
       d="m 494.61433,126.85181 q -4.57142,0 -8.27209,-1.5238 -3.70067,-1.59637 -6.31291,-4.28117 -2.61224,-2.75737 -4.06349,-6.24035 -1.37868,-3.55555 -1.37868,-7.47391 0,-5.44217 2.39455,-9.941022 2.46712,-4.498857 6.96598,-7.183658 4.57141,-2.757364 10.7392,-2.757364 6.24035,0 10.66665,2.757364 4.42629,2.684801 6.74828,7.183658 2.39455,4.426292 2.39455,9.578212 0,0.87075 -0.0726,1.81405 -0.0726,0.87075 -0.14512,1.45125 h -29.3877 q 0.29025,2.90249 1.66893,5.07935 1.45125,2.17687 3.62812,3.33786 2.24942,1.08844 4.7891,1.08844 2.90249,0 5.44217,-1.37869 2.61223,-1.45124 3.55554,-3.77323 l 8.34466,2.32199 q -1.37868,2.90249 -3.99092,5.15192 -2.53968,2.24943 -6.02267,3.55554 -3.48298,1.23356 -7.69159,1.23356 z m -9.94102,-22.78453 h 19.88204 q -0.29025,-2.90249 -1.66893,-5.006791 -1.30612,-2.176866 -3.48299,-3.337862 -2.17686,-1.233557 -4.86166,-1.233557 -2.61224,0 -4.78911,1.233557 -2.1043,1.160996 -3.48298,3.337862 -1.30612,2.104301 -1.59637,5.006791 z"
       id="path15270" /><path
       d="M 538.80477,126.12619 V 74.607026 h 22.78453 q 3.55555,0 6.5306,1.451244 3.04761,1.451245 5.22448,3.918359 2.24943,2.467115 3.41042,5.514728 1.23356,3.047612 1.23356,6.240349 0,3.265299 -1.161,6.312912 -1.08843,2.975052 -3.19273,5.224482 -2.10431,2.24942 -4.93423,3.48298 l 11.75507,19.37411 h -11.02945 l -10.59408,-17.2698 h -10.01359 v 17.2698 z m 10.01358,-26.04983 h 12.55326 q 1.88662,0 3.33786,-1.088434 1.45125,-1.160995 2.322,-3.047612 0.87074,-1.886617 0.87074,-4.208608 0,-2.467115 -1.01587,-4.28117 -1.01587,-1.886617 -2.61224,-2.97505 -1.5238,-1.088433 -3.33786,-1.088433 h -12.11789 z"
       id="path15272" /><path
       d="m 602.44909,126.85181 q -4.57142,0 -8.27209,-1.5238 -3.70067,-1.59637 -6.31291,-4.28117 -2.61224,-2.75737 -4.06348,-6.24035 -1.37869,-3.55555 -1.37869,-7.47391 0,-5.44217 2.39456,-9.941022 2.46711,-4.498857 6.96597,-7.183658 4.57142,-2.757364 10.7392,-2.757364 6.24035,0 10.66665,2.757364 4.42629,2.684801 6.74828,7.183658 2.39456,4.426292 2.39456,9.578212 0,0.87075 -0.0726,1.81405 -0.0726,0.87075 -0.14512,1.45125 h -29.38769 q 0.29025,2.90249 1.66893,5.07935 1.45124,2.17687 3.62811,3.33786 2.24943,1.08844 4.7891,1.08844 2.90249,0 5.44217,-1.37869 2.61224,-1.45124 3.55555,-3.77323 l 8.34465,2.32199 q -1.37868,2.90249 -3.99092,5.15192 -2.53968,2.24943 -6.02266,3.55554 -3.48299,1.23356 -7.6916,1.23356 z m -9.94102,-22.78453 h 19.88204 q -0.29025,-2.90249 -1.66893,-5.006791 -1.30612,-2.176866 -3.48298,-3.337862 -2.17687,-1.233557 -4.86167,-1.233557 -2.61224,0 -4.78911,1.233557 -2.1043,1.160996 -3.48298,3.337862 -1.30612,2.104301 -1.59637,5.006791 z"
       id="path15274" /><path
       d="m 651.06585,126.85181 q -4.42629,0 -7.83672,-1.95918 -3.33786,-2.03174 -5.22447,-5.44216 v 22.13147 h -9.72334 V 88.103596 h 8.48978 v 6.530598 q 2.17686,-3.337861 5.51473,-5.224478 3.33786,-1.95918 7.61903,-1.95918 3.84579,0 7.03853,1.523807 3.2653,1.523806 5.65985,4.281169 2.39456,2.684802 3.70067,6.24035 1.37869,3.482988 1.37869,7.546468 0,5.51473 -2.17687,10.01358 -2.1043,4.49886 -5.87754,7.18366 -3.70067,2.61224 -8.56234,2.61224 z m -3.2653,-8.27209 q 2.24943,0 4.06349,-0.94331 1.81405,-0.94331 3.12017,-2.53967 1.37868,-1.66894 2.03174,-3.70068 0.72562,-2.1043 0.72562,-4.35373 0,-2.39455 -0.79818,-4.42629 -0.72562,-2.03175 -2.17687,-3.555551 -1.45124,-1.596369 -3.41042,-2.467115 -1.88662,-0.870747 -4.13604,-0.870747 -1.37869,0 -2.82993,0.507936 -1.37868,0.435373 -2.6848,1.306119 -1.30612,0.870747 -2.32199,2.031742 -0.94331,1.160996 -1.37868,2.539676 v 8.92515 q 0.87074,2.10431 2.32199,3.8458 1.5238,1.74149 3.48298,2.75736 1.95918,0.94331 3.99092,0.94331 z"
       id="path15276" /><path
       d="m 734.14961,112.84731 q 0,4.35373 -2.24943,7.32878 -2.24942,2.90249 -6.09522,4.42629 -3.77324,1.52381 -8.27209,1.52381 H 692.64403 V 74.607026 h 27.57364 q 3.62811,0 6.24035,1.95918 2.6848,1.886617 4.06348,4.93423 1.45125,2.97505 1.45125,6.240349 0,3.700672 -1.88662,7.038534 -1.88662,3.337861 -5.51473,4.934229 4.4263,1.306122 6.96597,4.716542 2.61224,3.41043 2.61224,8.41722 z m -10.08614,-1.88662 q 0,-1.95918 -0.79819,-3.48299 -0.79818,-1.59636 -2.17686,-2.46711 -1.30612,-0.94331 -3.04762,-0.94331 h -15.38318 v 13.56913 h 14.87525 q 1.81405,0 3.2653,-0.87074 1.5238,-0.94331 2.39455,-2.46712 0.87075,-1.52381 0.87075,-3.33786 z M 702.65762,83.169366 v 12.988635 h 13.35144 q 1.66893,0 3.04761,-0.798185 1.37869,-0.798184 2.17687,-2.249428 0.87075,-1.451244 0.87075,-3.482986 0,-1.959179 -0.79819,-3.410423 -0.72562,-1.451244 -2.03174,-2.249428 -1.23356,-0.798185 -2.82993,-0.798185 z"
       id="path15278" /><path
       d="m 763.68245,96.520812 q -4.4263,0 -7.90928,1.741492 -3.48299,1.668931 -5.0068,4.861666 v 23.00222 h -9.72333 V 88.103596 h 8.92515 v 8.126967 q 2.03174,-3.918359 5.15192,-6.167787 3.12017,-2.249429 6.60316,-2.467115 0.79818,0 1.23355,0 0.43538,0 0.72563,0.07256 z"
       id="path15280" /><path
       d="m 766.3159,114.87905 q 0,-3.70067 2.03174,-6.45804 2.10431,-2.82992 5.80498,-4.35373 3.70067,-1.52381 8.48978,-1.52381 2.39455,0 4.86166,0.36282 2.46712,0.36281 4.28117,1.16099 v -2.03174 q 0,-3.628111 -2.17686,-5.587291 -2.10431,-1.959179 -6.31291,-1.959179 -3.12018,0 -5.9501,1.088433 -2.82993,1.088433 -5.9501,3.192737 l -3.12018,-6.385474 q 3.77324,-2.467115 7.69159,-3.700672 3.99093,-1.233558 8.34466,-1.233558 8.12696,0 12.62582,4.063484 4.57142,4.063483 4.57142,11.60995 v 12.11789 q 0,1.52381 0.50793,2.17687 0.5805,0.65306 1.81406,0.79818 v 7.90928 q -1.30612,0.21769 -2.39455,0.36281 -1.01587,0.14513 -1.7415,0.14513 -2.90248,0 -4.42629,-1.30612 -1.45124,-1.30612 -1.81405,-3.19274 l -0.21769,-1.95918 q -2.46712,3.19274 -6.16779,4.93423 -3.70067,1.74149 -7.54647,1.74149 -3.77323,0 -6.82084,-1.5238 -2.97506,-1.59637 -4.71655,-4.28117 -1.66893,-2.75737 -1.66893,-6.16779 z m 23.65528,1.95918 q 0.79818,-0.87075 1.30612,-1.74149 0.50793,-0.87075 0.50793,-1.59637 v -3.8458 q -1.74149,-0.72562 -3.77323,-1.08843 -2.03174,-0.43538 -3.8458,-0.43538 -3.77323,0 -6.24035,1.66893 -2.39455,1.59637 -2.39455,4.28117 0,1.45125 0.79819,2.75737 0.79818,1.30612 2.32199,2.1043 1.5238,0.79819 3.62811,0.79819 2.17686,0 4.28117,-0.79819 2.1043,-0.87074 3.41042,-2.1043 z"
       id="path15282" /><path
       d="m 808.03916,120.17609 20.97048,-25.251647 h -20.09973 v -6.820847 h 30.54868 v 5.950101 l -20.82535,25.251643 h 21.18816 v 6.82085 h -31.78224 z"
       id="path15284" /><path
       d="M 846.35197,126.12619 V 88.103596 h 9.72333 v 38.022594 z m 0,-43.319635 v -9.650773 h 9.72333 v 9.650773 z"
       id="path15286" /><path
       d="m 864.7827,73.155782 h 9.72334 v 40.779958 q 0,2.61224 0.87074,3.55555 0.87075,0.87074 2.39456,0.87074 1.16099,0 2.39455,-0.29024 1.23356,-0.29025 2.17687,-0.72563 l 1.30612,7.40135 q -1.95918,0.94331 -4.57142,1.45124 -2.61224,0.50794 -4.71655,0.50794 -4.57142,0 -7.11109,-2.39455 -2.46712,-2.46712 -2.46712,-6.96598 z"
       id="path15288" /></g></g></g>
	</g>

</svg>
